G04 #@! TF.GenerationSoftware,KiCad,Pcbnew,(5.1.4)-1*
G04 #@! TF.CreationDate,2020-08-26T09:44:49+02:00*
G04 #@! TF.ProjectId,flight_controler,666c6967-6874-45f6-936f-6e74726f6c65,rev?*
G04 #@! TF.SameCoordinates,Original*
G04 #@! TF.FileFunction,Copper,L1,Top*
G04 #@! TF.FilePolarity,Positive*
%FSLAX46Y46*%
G04 Gerber Fmt 4.6, Leading zero omitted, Abs format (unit mm)*
G04 Created by KiCad (PCBNEW (5.1.4)-1) date 2020-08-26 09:44:49*
%MOMM*%
%LPD*%
G04 APERTURE LIST*
%ADD10R,1.700000X1.700000*%
%ADD11O,2.200000X2.200000*%
%ADD12R,2.200000X2.200000*%
%ADD13C,1.500000*%
%ADD14O,1.700000X1.700000*%
%ADD15C,1.200000*%
%ADD16O,1.600000X1.600000*%
%ADD17R,1.600000X1.600000*%
%ADD18C,1.600000*%
%ADD19R,1.524000X1.524000*%
%ADD20C,1.524000*%
%ADD21C,0.500000*%
G04 APERTURE END LIST*
D10*
X201803000Y-121412000D03*
D11*
X201739500Y-135255000D03*
D12*
X201739500Y-125095000D03*
D13*
X196215000Y-92710000D03*
X196215000Y-97610000D03*
D10*
X211455000Y-102235000D03*
D14*
X211455000Y-104775000D03*
X211455000Y-107315000D03*
X211455000Y-109855000D03*
D15*
X201930000Y-91440000D03*
X203430000Y-91440000D03*
X203430000Y-96520000D03*
X201930000Y-96520000D03*
X234085000Y-92075000D03*
X235585000Y-92075000D03*
X235585000Y-97790000D03*
X234085000Y-97790000D03*
X185960000Y-130175000D03*
X187960000Y-130175000D03*
X223710500Y-128651000D03*
X221710500Y-128651000D03*
X169545000Y-119380000D03*
X167545000Y-119380000D03*
X173355000Y-127730000D03*
X173355000Y-125730000D03*
X207391000Y-134048500D03*
X209391000Y-134048500D03*
X213265000Y-134239000D03*
X215265000Y-134239000D03*
D16*
X189865000Y-121285000D03*
D17*
X182245000Y-121285000D03*
X213360000Y-124460000D03*
D16*
X220980000Y-124460000D03*
D10*
X196850000Y-110490000D03*
D14*
X196850000Y-107950000D03*
X196850000Y-105410000D03*
X196850000Y-80645000D03*
X196850000Y-83185000D03*
D10*
X196850000Y-85725000D03*
D14*
X179070000Y-116840000D03*
X179070000Y-114300000D03*
X179070000Y-111760000D03*
X179070000Y-109220000D03*
D10*
X179070000Y-106680000D03*
X207645000Y-81915000D03*
D14*
X207645000Y-84455000D03*
X207645000Y-86995000D03*
X207645000Y-89535000D03*
X207645000Y-92075000D03*
D10*
X228600000Y-85090000D03*
D14*
X228600000Y-82550000D03*
X228600000Y-80010000D03*
D10*
X227965000Y-104775000D03*
X227965000Y-111125000D03*
D14*
X227965000Y-108585000D03*
D10*
X179070000Y-80010000D03*
D14*
X221361000Y-134556500D03*
D10*
X223901000Y-134556500D03*
D14*
X168275000Y-106045000D03*
X170815000Y-106045000D03*
X168275000Y-108585000D03*
X170815000Y-108585000D03*
X168275000Y-111125000D03*
D10*
X170815000Y-111125000D03*
X233426000Y-115443000D03*
D14*
X235966000Y-115443000D03*
X233426000Y-117983000D03*
X235966000Y-117983000D03*
X233426000Y-120523000D03*
X235966000Y-120523000D03*
D10*
X203200000Y-106680000D03*
D14*
X203200000Y-104140000D03*
D10*
X195199000Y-127190500D03*
D14*
X195199000Y-124650500D03*
X195199000Y-122110500D03*
X195199000Y-119570500D03*
X195199000Y-117030500D03*
X195199000Y-114490500D03*
X227965000Y-114935000D03*
X227965000Y-117475000D03*
X227965000Y-120015000D03*
X227965000Y-122555000D03*
X227965000Y-125095000D03*
D10*
X227965000Y-127635000D03*
X207645000Y-119380000D03*
D14*
X207645000Y-116840000D03*
X207645000Y-114300000D03*
X207645000Y-111760000D03*
X207645000Y-109220000D03*
X207645000Y-106680000D03*
X207645000Y-104140000D03*
X207645000Y-101600000D03*
X207645000Y-99060000D03*
X207645000Y-96520000D03*
D18*
X189865000Y-124460000D03*
D16*
X182245000Y-124460000D03*
X220980000Y-121285000D03*
D18*
X213360000Y-121285000D03*
D10*
X173355000Y-116840000D03*
D14*
X173355000Y-119380000D03*
X173355000Y-121920000D03*
X213931500Y-128143000D03*
X211391500Y-128143000D03*
D10*
X208851500Y-128143000D03*
D17*
X222885000Y-116840000D03*
D16*
X215265000Y-83820000D03*
X222885000Y-114300000D03*
X215265000Y-86360000D03*
X222885000Y-111760000D03*
X215265000Y-88900000D03*
X222885000Y-109220000D03*
X215265000Y-91440000D03*
X222885000Y-106680000D03*
X215265000Y-93980000D03*
X222885000Y-104140000D03*
X215265000Y-96520000D03*
X222885000Y-101600000D03*
X215265000Y-99060000D03*
X222885000Y-99060000D03*
X215265000Y-101600000D03*
X222885000Y-96520000D03*
X215265000Y-104140000D03*
X222885000Y-93980000D03*
X215265000Y-106680000D03*
X222885000Y-91440000D03*
X215265000Y-109220000D03*
X222885000Y-88900000D03*
X215265000Y-111760000D03*
X222885000Y-86360000D03*
X215265000Y-114300000D03*
X222885000Y-83820000D03*
X215265000Y-116840000D03*
D19*
X176530000Y-96520000D03*
D20*
X173990000Y-96520000D03*
X176530000Y-93980000D03*
X173990000Y-93980000D03*
X176530000Y-91440000D03*
X173990000Y-91440000D03*
X176530000Y-88900000D03*
X173990000Y-88900000D03*
D16*
X182880000Y-116840000D03*
X190500000Y-83820000D03*
X182880000Y-114300000D03*
X190500000Y-86360000D03*
X182880000Y-111760000D03*
X190500000Y-88900000D03*
X182880000Y-109220000D03*
X190500000Y-91440000D03*
X182880000Y-106680000D03*
X190500000Y-93980000D03*
X182880000Y-104140000D03*
X190500000Y-96520000D03*
X182880000Y-101600000D03*
X190500000Y-99060000D03*
X182880000Y-99060000D03*
X190500000Y-101600000D03*
X182880000Y-96520000D03*
X190500000Y-104140000D03*
X182880000Y-93980000D03*
X190500000Y-106680000D03*
X182880000Y-91440000D03*
X190500000Y-109220000D03*
X182880000Y-88900000D03*
X190500000Y-111760000D03*
X182880000Y-86360000D03*
X190500000Y-114300000D03*
X182880000Y-83820000D03*
D17*
X190500000Y-116840000D03*
D13*
X229235000Y-97610000D03*
X229235000Y-92710000D03*
D21*
X185420000Y-99060000D02*
X190500000Y-99060000D01*
X182880000Y-101600000D02*
X185420000Y-99060000D01*
X229415000Y-97790000D02*
X229235000Y-97610000D01*
M02*
