G04 #@! TF.GenerationSoftware,KiCad,Pcbnew,(5.1.4)-1*
G04 #@! TF.CreationDate,2020-08-26T09:44:50+02:00*
G04 #@! TF.ProjectId,flight_controler,666c6967-6874-45f6-936f-6e74726f6c65,rev?*
G04 #@! TF.SameCoordinates,Original*
G04 #@! TF.FileFunction,Soldermask,Top*
G04 #@! TF.FilePolarity,Negative*
%FSLAX46Y46*%
G04 Gerber Fmt 4.6, Leading zero omitted, Abs format (unit mm)*
G04 Created by KiCad (PCBNEW (5.1.4)-1) date 2020-08-26 09:44:50*
%MOMM*%
%LPD*%
G04 APERTURE LIST*
%ADD10C,0.100000*%
G04 APERTURE END LIST*
D10*
G36*
X168586756Y-135106798D02*
G01*
X168693079Y-135127947D01*
X168993542Y-135252403D01*
X169263951Y-135433085D01*
X169493915Y-135663049D01*
X169674597Y-135933458D01*
X169799053Y-136233921D01*
X169862500Y-136552891D01*
X169862500Y-136878109D01*
X169799053Y-137197079D01*
X169674597Y-137497542D01*
X169493915Y-137767951D01*
X169263951Y-137997915D01*
X168993542Y-138178597D01*
X168693079Y-138303053D01*
X168586756Y-138324202D01*
X168374111Y-138366500D01*
X168048889Y-138366500D01*
X167836244Y-138324202D01*
X167729921Y-138303053D01*
X167429458Y-138178597D01*
X167159049Y-137997915D01*
X166929085Y-137767951D01*
X166748403Y-137497542D01*
X166623947Y-137197079D01*
X166560500Y-136878109D01*
X166560500Y-136552891D01*
X166623947Y-136233921D01*
X166748403Y-135933458D01*
X166929085Y-135663049D01*
X167159049Y-135433085D01*
X167429458Y-135252403D01*
X167729921Y-135127947D01*
X167836244Y-135106798D01*
X168048889Y-135064500D01*
X168374111Y-135064500D01*
X168586756Y-135106798D01*
X168586756Y-135106798D01*
G37*
G36*
X237293756Y-134344798D02*
G01*
X237400079Y-134365947D01*
X237700542Y-134490403D01*
X237970951Y-134671085D01*
X238200915Y-134901049D01*
X238381597Y-135171458D01*
X238381598Y-135171460D01*
X238392047Y-135196686D01*
X238500080Y-135457500D01*
X238506053Y-135471922D01*
X238550944Y-135697600D01*
X238569500Y-135790891D01*
X238569500Y-136116109D01*
X238506053Y-136435079D01*
X238381597Y-136735542D01*
X238200915Y-137005951D01*
X237970951Y-137235915D01*
X237700542Y-137416597D01*
X237400079Y-137541053D01*
X237293756Y-137562202D01*
X237081111Y-137604500D01*
X236755889Y-137604500D01*
X236543244Y-137562202D01*
X236436921Y-137541053D01*
X236136458Y-137416597D01*
X235866049Y-137235915D01*
X235636085Y-137005951D01*
X235455403Y-136735542D01*
X235330947Y-136435079D01*
X235267500Y-136116109D01*
X235267500Y-135790891D01*
X235286057Y-135697600D01*
X235330947Y-135471922D01*
X235336921Y-135457500D01*
X235444953Y-135196686D01*
X235455402Y-135171460D01*
X235455403Y-135171458D01*
X235636085Y-134901049D01*
X235866049Y-134671085D01*
X236136458Y-134490403D01*
X236436921Y-134365947D01*
X236543244Y-134344798D01*
X236755889Y-134302500D01*
X237081111Y-134302500D01*
X237293756Y-134344798D01*
X237293756Y-134344798D01*
G37*
G36*
X201883544Y-134112618D02*
G01*
X201965135Y-134120654D01*
X202182100Y-134186470D01*
X202182102Y-134186471D01*
X202382055Y-134293347D01*
X202557318Y-134437182D01*
X202701153Y-134612445D01*
X202747684Y-134699500D01*
X202808030Y-134812400D01*
X202873846Y-135029365D01*
X202896069Y-135255000D01*
X202876125Y-135457500D01*
X202873846Y-135480634D01*
X202808029Y-135697602D01*
X202701153Y-135897555D01*
X202557318Y-136072818D01*
X202382055Y-136216653D01*
X202182102Y-136323529D01*
X202182100Y-136323530D01*
X201965135Y-136389346D01*
X201908771Y-136394897D01*
X201796045Y-136406000D01*
X201682955Y-136406000D01*
X201570229Y-136394897D01*
X201513865Y-136389346D01*
X201296900Y-136323530D01*
X201296898Y-136323529D01*
X201096945Y-136216653D01*
X200921682Y-136072818D01*
X200777847Y-135897555D01*
X200670971Y-135697602D01*
X200605154Y-135480634D01*
X200602876Y-135457500D01*
X200582931Y-135255000D01*
X200605154Y-135029365D01*
X200670970Y-134812400D01*
X200731316Y-134699500D01*
X200777847Y-134612445D01*
X200921682Y-134437182D01*
X201096945Y-134293347D01*
X201296898Y-134186471D01*
X201296900Y-134186470D01*
X201513865Y-134120654D01*
X201595456Y-134112618D01*
X201682955Y-134104000D01*
X201796045Y-134104000D01*
X201883544Y-134112618D01*
X201883544Y-134112618D01*
G37*
G36*
X221471442Y-133662018D02*
G01*
X221537627Y-133668537D01*
X221707466Y-133720057D01*
X221863991Y-133803722D01*
X221888714Y-133824012D01*
X222001186Y-133916314D01*
X222057046Y-133984381D01*
X222113778Y-134053509D01*
X222197443Y-134210034D01*
X222248963Y-134379873D01*
X222266359Y-134556500D01*
X222248963Y-134733127D01*
X222197443Y-134902966D01*
X222113778Y-135059491D01*
X222109667Y-135064500D01*
X222001186Y-135196686D01*
X221899729Y-135279948D01*
X221863991Y-135309278D01*
X221707466Y-135392943D01*
X221537627Y-135444463D01*
X221471442Y-135450982D01*
X221405260Y-135457500D01*
X221316740Y-135457500D01*
X221250558Y-135450982D01*
X221184373Y-135444463D01*
X221014534Y-135392943D01*
X220858009Y-135309278D01*
X220822271Y-135279948D01*
X220720814Y-135196686D01*
X220612333Y-135064500D01*
X220608222Y-135059491D01*
X220524557Y-134902966D01*
X220473037Y-134733127D01*
X220455641Y-134556500D01*
X220473037Y-134379873D01*
X220524557Y-134210034D01*
X220608222Y-134053509D01*
X220664954Y-133984381D01*
X220720814Y-133916314D01*
X220833286Y-133824012D01*
X220858009Y-133803722D01*
X221014534Y-133720057D01*
X221184373Y-133668537D01*
X221250558Y-133662018D01*
X221316740Y-133655500D01*
X221405260Y-133655500D01*
X221471442Y-133662018D01*
X221471442Y-133662018D01*
G37*
G36*
X224802000Y-135457500D02*
G01*
X223000000Y-135457500D01*
X223000000Y-133655500D01*
X224802000Y-133655500D01*
X224802000Y-135457500D01*
X224802000Y-135457500D01*
G37*
G36*
X215454890Y-133613017D02*
G01*
X215573364Y-133662091D01*
X215583011Y-133668537D01*
X215679988Y-133733335D01*
X215770665Y-133824012D01*
X215841910Y-133930638D01*
X215890983Y-134049110D01*
X215916000Y-134174881D01*
X215916000Y-134303119D01*
X215890983Y-134428890D01*
X215841909Y-134547364D01*
X215770665Y-134653988D01*
X215679988Y-134744665D01*
X215573364Y-134815909D01*
X215573363Y-134815910D01*
X215573362Y-134815910D01*
X215454890Y-134864983D01*
X215329119Y-134890000D01*
X215200881Y-134890000D01*
X215075110Y-134864983D01*
X214956638Y-134815910D01*
X214956637Y-134815910D01*
X214956636Y-134815909D01*
X214850012Y-134744665D01*
X214759335Y-134653988D01*
X214688091Y-134547364D01*
X214639017Y-134428890D01*
X214614000Y-134303119D01*
X214614000Y-134174881D01*
X214639017Y-134049110D01*
X214688090Y-133930638D01*
X214759335Y-133824012D01*
X214850012Y-133733335D01*
X214946989Y-133668537D01*
X214956636Y-133662091D01*
X215075110Y-133613017D01*
X215200881Y-133588000D01*
X215329119Y-133588000D01*
X215454890Y-133613017D01*
X215454890Y-133613017D01*
G37*
G36*
X213454890Y-133613017D02*
G01*
X213573364Y-133662091D01*
X213583011Y-133668537D01*
X213679988Y-133733335D01*
X213770665Y-133824012D01*
X213841910Y-133930638D01*
X213890983Y-134049110D01*
X213916000Y-134174881D01*
X213916000Y-134303119D01*
X213890983Y-134428890D01*
X213841909Y-134547364D01*
X213770665Y-134653988D01*
X213679988Y-134744665D01*
X213573364Y-134815909D01*
X213573363Y-134815910D01*
X213573362Y-134815910D01*
X213454890Y-134864983D01*
X213329119Y-134890000D01*
X213200881Y-134890000D01*
X213075110Y-134864983D01*
X212956638Y-134815910D01*
X212956637Y-134815910D01*
X212956636Y-134815909D01*
X212850012Y-134744665D01*
X212759335Y-134653988D01*
X212688091Y-134547364D01*
X212639017Y-134428890D01*
X212614000Y-134303119D01*
X212614000Y-134174881D01*
X212639017Y-134049110D01*
X212688090Y-133930638D01*
X212759335Y-133824012D01*
X212850012Y-133733335D01*
X212946989Y-133668537D01*
X212956636Y-133662091D01*
X213075110Y-133613017D01*
X213200881Y-133588000D01*
X213329119Y-133588000D01*
X213454890Y-133613017D01*
X213454890Y-133613017D01*
G37*
G36*
X207580890Y-133422517D02*
G01*
X207699364Y-133471591D01*
X207805988Y-133542835D01*
X207896665Y-133633512D01*
X207963365Y-133733335D01*
X207967910Y-133740138D01*
X208016983Y-133858610D01*
X208042000Y-133984381D01*
X208042000Y-134112619D01*
X208016983Y-134238390D01*
X207994219Y-134293348D01*
X207967909Y-134356864D01*
X207896665Y-134463488D01*
X207805988Y-134554165D01*
X207699364Y-134625409D01*
X207699363Y-134625410D01*
X207699362Y-134625410D01*
X207580890Y-134674483D01*
X207455119Y-134699500D01*
X207326881Y-134699500D01*
X207201110Y-134674483D01*
X207082638Y-134625410D01*
X207082637Y-134625410D01*
X207082636Y-134625409D01*
X206976012Y-134554165D01*
X206885335Y-134463488D01*
X206814091Y-134356864D01*
X206787782Y-134293348D01*
X206765017Y-134238390D01*
X206740000Y-134112619D01*
X206740000Y-133984381D01*
X206765017Y-133858610D01*
X206814090Y-133740138D01*
X206818636Y-133733335D01*
X206885335Y-133633512D01*
X206976012Y-133542835D01*
X207082636Y-133471591D01*
X207201110Y-133422517D01*
X207326881Y-133397500D01*
X207455119Y-133397500D01*
X207580890Y-133422517D01*
X207580890Y-133422517D01*
G37*
G36*
X209580890Y-133422517D02*
G01*
X209699364Y-133471591D01*
X209805988Y-133542835D01*
X209896665Y-133633512D01*
X209963365Y-133733335D01*
X209967910Y-133740138D01*
X210016983Y-133858610D01*
X210042000Y-133984381D01*
X210042000Y-134112619D01*
X210016983Y-134238390D01*
X209994219Y-134293348D01*
X209967909Y-134356864D01*
X209896665Y-134463488D01*
X209805988Y-134554165D01*
X209699364Y-134625409D01*
X209699363Y-134625410D01*
X209699362Y-134625410D01*
X209580890Y-134674483D01*
X209455119Y-134699500D01*
X209326881Y-134699500D01*
X209201110Y-134674483D01*
X209082638Y-134625410D01*
X209082637Y-134625410D01*
X209082636Y-134625409D01*
X208976012Y-134554165D01*
X208885335Y-134463488D01*
X208814091Y-134356864D01*
X208787782Y-134293348D01*
X208765017Y-134238390D01*
X208740000Y-134112619D01*
X208740000Y-133984381D01*
X208765017Y-133858610D01*
X208814090Y-133740138D01*
X208818636Y-133733335D01*
X208885335Y-133633512D01*
X208976012Y-133542835D01*
X209082636Y-133471591D01*
X209201110Y-133422517D01*
X209326881Y-133397500D01*
X209455119Y-133397500D01*
X209580890Y-133422517D01*
X209580890Y-133422517D01*
G37*
G36*
X186149890Y-129549017D02*
G01*
X186268364Y-129598091D01*
X186374988Y-129669335D01*
X186465665Y-129760012D01*
X186536909Y-129866636D01*
X186585983Y-129985110D01*
X186611000Y-130110882D01*
X186611000Y-130239118D01*
X186585983Y-130364890D01*
X186536909Y-130483364D01*
X186465665Y-130589988D01*
X186374988Y-130680665D01*
X186268364Y-130751909D01*
X186268363Y-130751910D01*
X186268362Y-130751910D01*
X186149890Y-130800983D01*
X186024119Y-130826000D01*
X185895881Y-130826000D01*
X185770110Y-130800983D01*
X185651638Y-130751910D01*
X185651637Y-130751910D01*
X185651636Y-130751909D01*
X185545012Y-130680665D01*
X185454335Y-130589988D01*
X185383091Y-130483364D01*
X185334017Y-130364890D01*
X185309000Y-130239118D01*
X185309000Y-130110882D01*
X185334017Y-129985110D01*
X185383091Y-129866636D01*
X185454335Y-129760012D01*
X185545012Y-129669335D01*
X185651636Y-129598091D01*
X185770110Y-129549017D01*
X185895881Y-129524000D01*
X186024119Y-129524000D01*
X186149890Y-129549017D01*
X186149890Y-129549017D01*
G37*
G36*
X188149890Y-129549017D02*
G01*
X188268364Y-129598091D01*
X188374988Y-129669335D01*
X188465665Y-129760012D01*
X188536909Y-129866636D01*
X188585983Y-129985110D01*
X188611000Y-130110882D01*
X188611000Y-130239118D01*
X188585983Y-130364890D01*
X188536909Y-130483364D01*
X188465665Y-130589988D01*
X188374988Y-130680665D01*
X188268364Y-130751909D01*
X188268363Y-130751910D01*
X188268362Y-130751910D01*
X188149890Y-130800983D01*
X188024119Y-130826000D01*
X187895881Y-130826000D01*
X187770110Y-130800983D01*
X187651638Y-130751910D01*
X187651637Y-130751910D01*
X187651636Y-130751909D01*
X187545012Y-130680665D01*
X187454335Y-130589988D01*
X187383091Y-130483364D01*
X187334017Y-130364890D01*
X187309000Y-130239118D01*
X187309000Y-130110882D01*
X187334017Y-129985110D01*
X187383091Y-129866636D01*
X187454335Y-129760012D01*
X187545012Y-129669335D01*
X187651636Y-129598091D01*
X187770110Y-129549017D01*
X187895881Y-129524000D01*
X188024119Y-129524000D01*
X188149890Y-129549017D01*
X188149890Y-129549017D01*
G37*
G36*
X221900390Y-128025017D02*
G01*
X222018864Y-128074091D01*
X222125488Y-128145335D01*
X222216165Y-128236012D01*
X222272034Y-128319625D01*
X222287410Y-128342638D01*
X222336483Y-128461110D01*
X222361500Y-128586881D01*
X222361500Y-128715119D01*
X222336483Y-128840890D01*
X222313748Y-128895778D01*
X222287409Y-128959364D01*
X222216165Y-129065988D01*
X222125488Y-129156665D01*
X222018864Y-129227909D01*
X222018863Y-129227910D01*
X222018862Y-129227910D01*
X221900390Y-129276983D01*
X221774619Y-129302000D01*
X221646381Y-129302000D01*
X221520610Y-129276983D01*
X221402138Y-129227910D01*
X221402137Y-129227910D01*
X221402136Y-129227909D01*
X221295512Y-129156665D01*
X221204835Y-129065988D01*
X221133591Y-128959364D01*
X221107253Y-128895778D01*
X221084517Y-128840890D01*
X221059500Y-128715119D01*
X221059500Y-128586881D01*
X221084517Y-128461110D01*
X221133590Y-128342638D01*
X221148967Y-128319625D01*
X221204835Y-128236012D01*
X221295512Y-128145335D01*
X221402136Y-128074091D01*
X221520610Y-128025017D01*
X221646381Y-128000000D01*
X221774619Y-128000000D01*
X221900390Y-128025017D01*
X221900390Y-128025017D01*
G37*
G36*
X223900390Y-128025017D02*
G01*
X224018864Y-128074091D01*
X224125488Y-128145335D01*
X224216165Y-128236012D01*
X224272034Y-128319625D01*
X224287410Y-128342638D01*
X224336483Y-128461110D01*
X224361500Y-128586881D01*
X224361500Y-128715119D01*
X224336483Y-128840890D01*
X224313748Y-128895778D01*
X224287409Y-128959364D01*
X224216165Y-129065988D01*
X224125488Y-129156665D01*
X224018864Y-129227909D01*
X224018863Y-129227910D01*
X224018862Y-129227910D01*
X223900390Y-129276983D01*
X223774619Y-129302000D01*
X223646381Y-129302000D01*
X223520610Y-129276983D01*
X223402138Y-129227910D01*
X223402137Y-129227910D01*
X223402136Y-129227909D01*
X223295512Y-129156665D01*
X223204835Y-129065988D01*
X223133591Y-128959364D01*
X223107253Y-128895778D01*
X223084517Y-128840890D01*
X223059500Y-128715119D01*
X223059500Y-128586881D01*
X223084517Y-128461110D01*
X223133590Y-128342638D01*
X223148967Y-128319625D01*
X223204835Y-128236012D01*
X223295512Y-128145335D01*
X223402136Y-128074091D01*
X223520610Y-128025017D01*
X223646381Y-128000000D01*
X223774619Y-128000000D01*
X223900390Y-128025017D01*
X223900390Y-128025017D01*
G37*
G36*
X209752500Y-129044000D02*
G01*
X207950500Y-129044000D01*
X207950500Y-127242000D01*
X209752500Y-127242000D01*
X209752500Y-129044000D01*
X209752500Y-129044000D01*
G37*
G36*
X214041943Y-127248519D02*
G01*
X214108127Y-127255037D01*
X214277966Y-127306557D01*
X214434491Y-127390222D01*
X214470229Y-127419552D01*
X214571686Y-127502814D01*
X214654948Y-127604271D01*
X214684278Y-127640009D01*
X214767943Y-127796534D01*
X214819463Y-127966373D01*
X214836859Y-128143000D01*
X214819463Y-128319627D01*
X214767943Y-128489466D01*
X214684278Y-128645991D01*
X214654948Y-128681729D01*
X214571686Y-128783186D01*
X214501372Y-128840890D01*
X214434491Y-128895778D01*
X214277966Y-128979443D01*
X214108127Y-129030963D01*
X214041942Y-129037482D01*
X213975760Y-129044000D01*
X213887240Y-129044000D01*
X213821058Y-129037482D01*
X213754873Y-129030963D01*
X213585034Y-128979443D01*
X213428509Y-128895778D01*
X213361628Y-128840890D01*
X213291314Y-128783186D01*
X213208052Y-128681729D01*
X213178722Y-128645991D01*
X213095057Y-128489466D01*
X213043537Y-128319627D01*
X213026141Y-128143000D01*
X213043537Y-127966373D01*
X213095057Y-127796534D01*
X213178722Y-127640009D01*
X213208052Y-127604271D01*
X213291314Y-127502814D01*
X213392771Y-127419552D01*
X213428509Y-127390222D01*
X213585034Y-127306557D01*
X213754873Y-127255037D01*
X213821057Y-127248519D01*
X213887240Y-127242000D01*
X213975760Y-127242000D01*
X214041943Y-127248519D01*
X214041943Y-127248519D01*
G37*
G36*
X211501943Y-127248519D02*
G01*
X211568127Y-127255037D01*
X211737966Y-127306557D01*
X211894491Y-127390222D01*
X211930229Y-127419552D01*
X212031686Y-127502814D01*
X212114948Y-127604271D01*
X212144278Y-127640009D01*
X212227943Y-127796534D01*
X212279463Y-127966373D01*
X212296859Y-128143000D01*
X212279463Y-128319627D01*
X212227943Y-128489466D01*
X212144278Y-128645991D01*
X212114948Y-128681729D01*
X212031686Y-128783186D01*
X211961372Y-128840890D01*
X211894491Y-128895778D01*
X211737966Y-128979443D01*
X211568127Y-129030963D01*
X211501942Y-129037482D01*
X211435760Y-129044000D01*
X211347240Y-129044000D01*
X211281058Y-129037482D01*
X211214873Y-129030963D01*
X211045034Y-128979443D01*
X210888509Y-128895778D01*
X210821628Y-128840890D01*
X210751314Y-128783186D01*
X210668052Y-128681729D01*
X210638722Y-128645991D01*
X210555057Y-128489466D01*
X210503537Y-128319627D01*
X210486141Y-128143000D01*
X210503537Y-127966373D01*
X210555057Y-127796534D01*
X210638722Y-127640009D01*
X210668052Y-127604271D01*
X210751314Y-127502814D01*
X210852771Y-127419552D01*
X210888509Y-127390222D01*
X211045034Y-127306557D01*
X211214873Y-127255037D01*
X211281057Y-127248519D01*
X211347240Y-127242000D01*
X211435760Y-127242000D01*
X211501943Y-127248519D01*
X211501943Y-127248519D01*
G37*
G36*
X228866000Y-128536000D02*
G01*
X227064000Y-128536000D01*
X227064000Y-126734000D01*
X228866000Y-126734000D01*
X228866000Y-128536000D01*
X228866000Y-128536000D01*
G37*
G36*
X173544890Y-127104017D02*
G01*
X173663364Y-127153091D01*
X173769988Y-127224335D01*
X173860665Y-127315012D01*
X173931910Y-127421638D01*
X173980983Y-127540110D01*
X174006000Y-127665881D01*
X174006000Y-127794119D01*
X173980983Y-127919890D01*
X173931909Y-128038364D01*
X173860665Y-128144988D01*
X173769988Y-128235665D01*
X173663364Y-128306909D01*
X173663363Y-128306910D01*
X173663362Y-128306910D01*
X173544890Y-128355983D01*
X173419119Y-128381000D01*
X173290881Y-128381000D01*
X173165110Y-128355983D01*
X173046638Y-128306910D01*
X173046637Y-128306910D01*
X173046636Y-128306909D01*
X172940012Y-128235665D01*
X172849335Y-128144988D01*
X172778091Y-128038364D01*
X172729017Y-127919890D01*
X172704000Y-127794119D01*
X172704000Y-127665881D01*
X172729017Y-127540110D01*
X172778090Y-127421638D01*
X172849335Y-127315012D01*
X172940012Y-127224335D01*
X173046636Y-127153091D01*
X173165110Y-127104017D01*
X173290881Y-127079000D01*
X173419119Y-127079000D01*
X173544890Y-127104017D01*
X173544890Y-127104017D01*
G37*
G36*
X196100000Y-128091500D02*
G01*
X194298000Y-128091500D01*
X194298000Y-126289500D01*
X196100000Y-126289500D01*
X196100000Y-128091500D01*
X196100000Y-128091500D01*
G37*
G36*
X173544890Y-125104017D02*
G01*
X173585927Y-125121015D01*
X173663364Y-125153091D01*
X173769988Y-125224335D01*
X173860665Y-125315012D01*
X173919643Y-125403278D01*
X173931910Y-125421638D01*
X173980983Y-125540110D01*
X174006000Y-125665881D01*
X174006000Y-125794119D01*
X173980983Y-125919890D01*
X173931909Y-126038364D01*
X173860665Y-126144988D01*
X173769988Y-126235665D01*
X173663364Y-126306909D01*
X173663363Y-126306910D01*
X173663362Y-126306910D01*
X173544890Y-126355983D01*
X173419119Y-126381000D01*
X173290881Y-126381000D01*
X173165110Y-126355983D01*
X173046638Y-126306910D01*
X173046637Y-126306910D01*
X173046636Y-126306909D01*
X172940012Y-126235665D01*
X172849335Y-126144988D01*
X172778091Y-126038364D01*
X172729017Y-125919890D01*
X172704000Y-125794119D01*
X172704000Y-125665881D01*
X172729017Y-125540110D01*
X172778090Y-125421638D01*
X172790358Y-125403278D01*
X172849335Y-125315012D01*
X172940012Y-125224335D01*
X173046636Y-125153091D01*
X173124074Y-125121015D01*
X173165110Y-125104017D01*
X173290881Y-125079000D01*
X173419119Y-125079000D01*
X173544890Y-125104017D01*
X173544890Y-125104017D01*
G37*
G36*
X202890500Y-126246000D02*
G01*
X200588500Y-126246000D01*
X200588500Y-123944000D01*
X202890500Y-123944000D01*
X202890500Y-126246000D01*
X202890500Y-126246000D01*
G37*
G36*
X228075442Y-124200518D02*
G01*
X228141627Y-124207037D01*
X228311466Y-124258557D01*
X228467991Y-124342222D01*
X228503729Y-124371552D01*
X228605186Y-124454814D01*
X228678226Y-124543815D01*
X228717778Y-124592009D01*
X228801443Y-124748534D01*
X228852963Y-124918373D01*
X228870359Y-125095000D01*
X228852963Y-125271627D01*
X228801443Y-125441466D01*
X228717778Y-125597991D01*
X228688448Y-125633729D01*
X228605186Y-125735186D01*
X228503729Y-125818448D01*
X228467991Y-125847778D01*
X228311466Y-125931443D01*
X228141627Y-125982963D01*
X228075442Y-125989482D01*
X228009260Y-125996000D01*
X227920740Y-125996000D01*
X227854558Y-125989482D01*
X227788373Y-125982963D01*
X227618534Y-125931443D01*
X227462009Y-125847778D01*
X227426271Y-125818448D01*
X227324814Y-125735186D01*
X227241552Y-125633729D01*
X227212222Y-125597991D01*
X227128557Y-125441466D01*
X227077037Y-125271627D01*
X227059641Y-125095000D01*
X227077037Y-124918373D01*
X227128557Y-124748534D01*
X227212222Y-124592009D01*
X227251774Y-124543815D01*
X227324814Y-124454814D01*
X227426271Y-124371552D01*
X227462009Y-124342222D01*
X227618534Y-124258557D01*
X227788373Y-124207037D01*
X227854558Y-124200518D01*
X227920740Y-124194000D01*
X228009260Y-124194000D01*
X228075442Y-124200518D01*
X228075442Y-124200518D01*
G37*
G36*
X195309442Y-123756018D02*
G01*
X195375627Y-123762537D01*
X195545466Y-123814057D01*
X195701991Y-123897722D01*
X195726115Y-123917520D01*
X195839186Y-124010314D01*
X195922448Y-124111771D01*
X195951778Y-124147509D01*
X196035443Y-124304034D01*
X196086963Y-124473873D01*
X196104359Y-124650500D01*
X196086963Y-124827127D01*
X196035443Y-124996966D01*
X195951778Y-125153491D01*
X195922448Y-125189229D01*
X195839186Y-125290686D01*
X195737729Y-125373948D01*
X195701991Y-125403278D01*
X195545466Y-125486943D01*
X195375627Y-125538463D01*
X195309443Y-125544981D01*
X195243260Y-125551500D01*
X195154740Y-125551500D01*
X195088557Y-125544981D01*
X195022373Y-125538463D01*
X194852534Y-125486943D01*
X194696009Y-125403278D01*
X194660271Y-125373948D01*
X194558814Y-125290686D01*
X194475552Y-125189229D01*
X194446222Y-125153491D01*
X194362557Y-124996966D01*
X194311037Y-124827127D01*
X194293641Y-124650500D01*
X194311037Y-124473873D01*
X194362557Y-124304034D01*
X194446222Y-124147509D01*
X194475552Y-124111771D01*
X194558814Y-124010314D01*
X194671885Y-123917520D01*
X194696009Y-123897722D01*
X194852534Y-123814057D01*
X195022373Y-123762537D01*
X195088558Y-123756018D01*
X195154740Y-123749500D01*
X195243260Y-123749500D01*
X195309442Y-123756018D01*
X195309442Y-123756018D01*
G37*
G36*
X190113228Y-123641703D02*
G01*
X190268100Y-123705853D01*
X190407481Y-123798985D01*
X190526015Y-123917519D01*
X190619147Y-124056900D01*
X190683297Y-124211772D01*
X190716000Y-124376184D01*
X190716000Y-124543816D01*
X190683297Y-124708228D01*
X190619147Y-124863100D01*
X190526015Y-125002481D01*
X190407481Y-125121015D01*
X190268100Y-125214147D01*
X190113228Y-125278297D01*
X189948816Y-125311000D01*
X189781184Y-125311000D01*
X189616772Y-125278297D01*
X189461900Y-125214147D01*
X189322519Y-125121015D01*
X189203985Y-125002481D01*
X189110853Y-124863100D01*
X189046703Y-124708228D01*
X189014000Y-124543816D01*
X189014000Y-124376184D01*
X189046703Y-124211772D01*
X189110853Y-124056900D01*
X189203985Y-123917519D01*
X189322519Y-123798985D01*
X189461900Y-123705853D01*
X189616772Y-123641703D01*
X189781184Y-123609000D01*
X189948816Y-123609000D01*
X190113228Y-123641703D01*
X190113228Y-123641703D01*
G37*
G36*
X182411823Y-123621313D02*
G01*
X182572242Y-123669976D01*
X182639361Y-123705852D01*
X182720078Y-123748996D01*
X182849659Y-123855341D01*
X182956004Y-123984922D01*
X182956005Y-123984924D01*
X183035024Y-124132758D01*
X183083687Y-124293177D01*
X183100117Y-124460000D01*
X183083687Y-124626823D01*
X183035024Y-124787242D01*
X182994477Y-124863100D01*
X182956004Y-124935078D01*
X182849659Y-125064659D01*
X182720078Y-125171004D01*
X182720076Y-125171005D01*
X182572242Y-125250024D01*
X182411823Y-125298687D01*
X182286804Y-125311000D01*
X182203196Y-125311000D01*
X182078177Y-125298687D01*
X181917758Y-125250024D01*
X181769924Y-125171005D01*
X181769922Y-125171004D01*
X181640341Y-125064659D01*
X181533996Y-124935078D01*
X181495523Y-124863100D01*
X181454976Y-124787242D01*
X181406313Y-124626823D01*
X181389883Y-124460000D01*
X181406313Y-124293177D01*
X181454976Y-124132758D01*
X181533995Y-123984924D01*
X181533996Y-123984922D01*
X181640341Y-123855341D01*
X181769922Y-123748996D01*
X181850639Y-123705852D01*
X181917758Y-123669976D01*
X182078177Y-123621313D01*
X182203196Y-123609000D01*
X182286804Y-123609000D01*
X182411823Y-123621313D01*
X182411823Y-123621313D01*
G37*
G36*
X221146823Y-123621313D02*
G01*
X221307242Y-123669976D01*
X221374361Y-123705852D01*
X221455078Y-123748996D01*
X221584659Y-123855341D01*
X221691004Y-123984922D01*
X221691005Y-123984924D01*
X221770024Y-124132758D01*
X221818687Y-124293177D01*
X221835117Y-124460000D01*
X221818687Y-124626823D01*
X221770024Y-124787242D01*
X221729477Y-124863100D01*
X221691004Y-124935078D01*
X221584659Y-125064659D01*
X221455078Y-125171004D01*
X221455076Y-125171005D01*
X221307242Y-125250024D01*
X221146823Y-125298687D01*
X221021804Y-125311000D01*
X220938196Y-125311000D01*
X220813177Y-125298687D01*
X220652758Y-125250024D01*
X220504924Y-125171005D01*
X220504922Y-125171004D01*
X220375341Y-125064659D01*
X220268996Y-124935078D01*
X220230523Y-124863100D01*
X220189976Y-124787242D01*
X220141313Y-124626823D01*
X220124883Y-124460000D01*
X220141313Y-124293177D01*
X220189976Y-124132758D01*
X220268995Y-123984924D01*
X220268996Y-123984922D01*
X220375341Y-123855341D01*
X220504922Y-123748996D01*
X220585639Y-123705852D01*
X220652758Y-123669976D01*
X220813177Y-123621313D01*
X220938196Y-123609000D01*
X221021804Y-123609000D01*
X221146823Y-123621313D01*
X221146823Y-123621313D01*
G37*
G36*
X214211000Y-125311000D02*
G01*
X212509000Y-125311000D01*
X212509000Y-123609000D01*
X214211000Y-123609000D01*
X214211000Y-125311000D01*
X214211000Y-125311000D01*
G37*
G36*
X228075442Y-121660518D02*
G01*
X228141627Y-121667037D01*
X228311466Y-121718557D01*
X228467991Y-121802222D01*
X228498768Y-121827480D01*
X228605186Y-121914814D01*
X228688448Y-122016271D01*
X228717778Y-122052009D01*
X228801443Y-122208534D01*
X228852963Y-122378373D01*
X228870359Y-122555000D01*
X228852963Y-122731627D01*
X228801443Y-122901466D01*
X228717778Y-123057991D01*
X228688448Y-123093729D01*
X228605186Y-123195186D01*
X228503729Y-123278448D01*
X228467991Y-123307778D01*
X228311466Y-123391443D01*
X228141627Y-123442963D01*
X228075442Y-123449482D01*
X228009260Y-123456000D01*
X227920740Y-123456000D01*
X227854558Y-123449482D01*
X227788373Y-123442963D01*
X227618534Y-123391443D01*
X227462009Y-123307778D01*
X227426271Y-123278448D01*
X227324814Y-123195186D01*
X227241552Y-123093729D01*
X227212222Y-123057991D01*
X227128557Y-122901466D01*
X227077037Y-122731627D01*
X227059641Y-122555000D01*
X227077037Y-122378373D01*
X227128557Y-122208534D01*
X227212222Y-122052009D01*
X227241552Y-122016271D01*
X227324814Y-121914814D01*
X227431232Y-121827480D01*
X227462009Y-121802222D01*
X227618534Y-121718557D01*
X227788373Y-121667037D01*
X227854558Y-121660518D01*
X227920740Y-121654000D01*
X228009260Y-121654000D01*
X228075442Y-121660518D01*
X228075442Y-121660518D01*
G37*
G36*
X195309443Y-121216019D02*
G01*
X195375627Y-121222537D01*
X195545466Y-121274057D01*
X195701991Y-121357722D01*
X195737729Y-121387052D01*
X195839186Y-121470314D01*
X195890817Y-121533228D01*
X195951778Y-121607509D01*
X195951779Y-121607511D01*
X196033329Y-121760078D01*
X196035443Y-121764034D01*
X196086963Y-121933873D01*
X196104359Y-122110500D01*
X196086963Y-122287127D01*
X196035443Y-122456966D01*
X195951778Y-122613491D01*
X195922448Y-122649229D01*
X195839186Y-122750686D01*
X195753507Y-122821000D01*
X195701991Y-122863278D01*
X195545466Y-122946943D01*
X195375627Y-122998463D01*
X195309443Y-123004981D01*
X195243260Y-123011500D01*
X195154740Y-123011500D01*
X195088557Y-123004981D01*
X195022373Y-122998463D01*
X194852534Y-122946943D01*
X194696009Y-122863278D01*
X194644493Y-122821000D01*
X194558814Y-122750686D01*
X194475552Y-122649229D01*
X194446222Y-122613491D01*
X194362557Y-122456966D01*
X194311037Y-122287127D01*
X194293641Y-122110500D01*
X194311037Y-121933873D01*
X194362557Y-121764034D01*
X194364672Y-121760078D01*
X194446221Y-121607511D01*
X194446222Y-121607509D01*
X194507183Y-121533228D01*
X194558814Y-121470314D01*
X194660271Y-121387052D01*
X194696009Y-121357722D01*
X194852534Y-121274057D01*
X195022373Y-121222537D01*
X195088557Y-121216019D01*
X195154740Y-121209500D01*
X195243260Y-121209500D01*
X195309443Y-121216019D01*
X195309443Y-121216019D01*
G37*
G36*
X173465442Y-121025518D02*
G01*
X173531627Y-121032037D01*
X173701466Y-121083557D01*
X173857991Y-121167222D01*
X173893729Y-121196552D01*
X173995186Y-121279814D01*
X174068226Y-121368815D01*
X174107778Y-121417009D01*
X174191443Y-121573534D01*
X174242963Y-121743373D01*
X174260359Y-121920000D01*
X174242963Y-122096627D01*
X174234754Y-122123687D01*
X174191442Y-122266468D01*
X174180399Y-122287127D01*
X174107778Y-122422991D01*
X174079895Y-122456966D01*
X173995186Y-122560186D01*
X173893729Y-122643448D01*
X173857991Y-122672778D01*
X173701466Y-122756443D01*
X173531627Y-122807963D01*
X173465443Y-122814481D01*
X173399260Y-122821000D01*
X173310740Y-122821000D01*
X173244557Y-122814481D01*
X173178373Y-122807963D01*
X173008534Y-122756443D01*
X172852009Y-122672778D01*
X172816271Y-122643448D01*
X172714814Y-122560186D01*
X172630105Y-122456966D01*
X172602222Y-122422991D01*
X172529601Y-122287127D01*
X172518558Y-122266468D01*
X172475246Y-122123687D01*
X172467037Y-122096627D01*
X172449641Y-121920000D01*
X172467037Y-121743373D01*
X172518557Y-121573534D01*
X172602222Y-121417009D01*
X172641774Y-121368815D01*
X172714814Y-121279814D01*
X172816271Y-121196552D01*
X172852009Y-121167222D01*
X173008534Y-121083557D01*
X173178373Y-121032037D01*
X173244558Y-121025518D01*
X173310740Y-121019000D01*
X173399260Y-121019000D01*
X173465442Y-121025518D01*
X173465442Y-121025518D01*
G37*
G36*
X202704000Y-122313000D02*
G01*
X200902000Y-122313000D01*
X200902000Y-120511000D01*
X202704000Y-120511000D01*
X202704000Y-122313000D01*
X202704000Y-122313000D01*
G37*
G36*
X190031823Y-120446313D02*
G01*
X190192242Y-120494976D01*
X190259361Y-120530852D01*
X190340078Y-120573996D01*
X190469659Y-120680341D01*
X190576004Y-120809922D01*
X190576005Y-120809924D01*
X190655024Y-120957758D01*
X190703687Y-121118177D01*
X190720117Y-121285000D01*
X190703687Y-121451823D01*
X190655024Y-121612242D01*
X190614477Y-121688100D01*
X190576004Y-121760078D01*
X190469659Y-121889659D01*
X190340078Y-121996004D01*
X190340076Y-121996005D01*
X190192242Y-122075024D01*
X190031823Y-122123687D01*
X189906804Y-122136000D01*
X189823196Y-122136000D01*
X189698177Y-122123687D01*
X189537758Y-122075024D01*
X189389924Y-121996005D01*
X189389922Y-121996004D01*
X189260341Y-121889659D01*
X189153996Y-121760078D01*
X189115523Y-121688100D01*
X189074976Y-121612242D01*
X189026313Y-121451823D01*
X189009883Y-121285000D01*
X189026313Y-121118177D01*
X189074976Y-120957758D01*
X189153995Y-120809924D01*
X189153996Y-120809922D01*
X189260341Y-120680341D01*
X189389922Y-120573996D01*
X189470639Y-120530852D01*
X189537758Y-120494976D01*
X189698177Y-120446313D01*
X189823196Y-120434000D01*
X189906804Y-120434000D01*
X190031823Y-120446313D01*
X190031823Y-120446313D01*
G37*
G36*
X213608228Y-120466703D02*
G01*
X213763100Y-120530853D01*
X213902481Y-120623985D01*
X214021015Y-120742519D01*
X214114147Y-120881900D01*
X214178297Y-121036772D01*
X214211000Y-121201184D01*
X214211000Y-121368816D01*
X214178297Y-121533228D01*
X214114147Y-121688100D01*
X214021015Y-121827481D01*
X213902481Y-121946015D01*
X213763100Y-122039147D01*
X213608228Y-122103297D01*
X213443816Y-122136000D01*
X213276184Y-122136000D01*
X213111772Y-122103297D01*
X212956900Y-122039147D01*
X212817519Y-121946015D01*
X212698985Y-121827481D01*
X212605853Y-121688100D01*
X212541703Y-121533228D01*
X212509000Y-121368816D01*
X212509000Y-121201184D01*
X212541703Y-121036772D01*
X212605853Y-120881900D01*
X212698985Y-120742519D01*
X212817519Y-120623985D01*
X212956900Y-120530853D01*
X213111772Y-120466703D01*
X213276184Y-120434000D01*
X213443816Y-120434000D01*
X213608228Y-120466703D01*
X213608228Y-120466703D01*
G37*
G36*
X221146823Y-120446313D02*
G01*
X221307242Y-120494976D01*
X221374361Y-120530852D01*
X221455078Y-120573996D01*
X221584659Y-120680341D01*
X221691004Y-120809922D01*
X221691005Y-120809924D01*
X221770024Y-120957758D01*
X221818687Y-121118177D01*
X221835117Y-121285000D01*
X221818687Y-121451823D01*
X221770024Y-121612242D01*
X221729477Y-121688100D01*
X221691004Y-121760078D01*
X221584659Y-121889659D01*
X221455078Y-121996004D01*
X221455076Y-121996005D01*
X221307242Y-122075024D01*
X221146823Y-122123687D01*
X221021804Y-122136000D01*
X220938196Y-122136000D01*
X220813177Y-122123687D01*
X220652758Y-122075024D01*
X220504924Y-121996005D01*
X220504922Y-121996004D01*
X220375341Y-121889659D01*
X220268996Y-121760078D01*
X220230523Y-121688100D01*
X220189976Y-121612242D01*
X220141313Y-121451823D01*
X220124883Y-121285000D01*
X220141313Y-121118177D01*
X220189976Y-120957758D01*
X220268995Y-120809924D01*
X220268996Y-120809922D01*
X220375341Y-120680341D01*
X220504922Y-120573996D01*
X220585639Y-120530852D01*
X220652758Y-120494976D01*
X220813177Y-120446313D01*
X220938196Y-120434000D01*
X221021804Y-120434000D01*
X221146823Y-120446313D01*
X221146823Y-120446313D01*
G37*
G36*
X183096000Y-122136000D02*
G01*
X181394000Y-122136000D01*
X181394000Y-120434000D01*
X183096000Y-120434000D01*
X183096000Y-122136000D01*
X183096000Y-122136000D01*
G37*
G36*
X236076442Y-119628518D02*
G01*
X236142627Y-119635037D01*
X236312466Y-119686557D01*
X236468991Y-119770222D01*
X236499168Y-119794988D01*
X236606186Y-119882814D01*
X236666993Y-119956909D01*
X236718778Y-120020009D01*
X236802443Y-120176534D01*
X236853963Y-120346373D01*
X236871359Y-120523000D01*
X236853963Y-120699627D01*
X236802443Y-120869466D01*
X236718778Y-121025991D01*
X236713816Y-121032037D01*
X236606186Y-121163186D01*
X236504729Y-121246448D01*
X236468991Y-121275778D01*
X236312466Y-121359443D01*
X236142627Y-121410963D01*
X236076442Y-121417482D01*
X236010260Y-121424000D01*
X235921740Y-121424000D01*
X235855558Y-121417482D01*
X235789373Y-121410963D01*
X235619534Y-121359443D01*
X235463009Y-121275778D01*
X235427271Y-121246448D01*
X235325814Y-121163186D01*
X235218184Y-121032037D01*
X235213222Y-121025991D01*
X235129557Y-120869466D01*
X235078037Y-120699627D01*
X235060641Y-120523000D01*
X235078037Y-120346373D01*
X235129557Y-120176534D01*
X235213222Y-120020009D01*
X235265007Y-119956909D01*
X235325814Y-119882814D01*
X235432832Y-119794988D01*
X235463009Y-119770222D01*
X235619534Y-119686557D01*
X235789373Y-119635037D01*
X235855558Y-119628518D01*
X235921740Y-119622000D01*
X236010260Y-119622000D01*
X236076442Y-119628518D01*
X236076442Y-119628518D01*
G37*
G36*
X233536442Y-119628518D02*
G01*
X233602627Y-119635037D01*
X233772466Y-119686557D01*
X233928991Y-119770222D01*
X233959168Y-119794988D01*
X234066186Y-119882814D01*
X234126993Y-119956909D01*
X234178778Y-120020009D01*
X234262443Y-120176534D01*
X234313963Y-120346373D01*
X234331359Y-120523000D01*
X234313963Y-120699627D01*
X234262443Y-120869466D01*
X234178778Y-121025991D01*
X234173816Y-121032037D01*
X234066186Y-121163186D01*
X233964729Y-121246448D01*
X233928991Y-121275778D01*
X233772466Y-121359443D01*
X233602627Y-121410963D01*
X233536442Y-121417482D01*
X233470260Y-121424000D01*
X233381740Y-121424000D01*
X233315558Y-121417482D01*
X233249373Y-121410963D01*
X233079534Y-121359443D01*
X232923009Y-121275778D01*
X232887271Y-121246448D01*
X232785814Y-121163186D01*
X232678184Y-121032037D01*
X232673222Y-121025991D01*
X232589557Y-120869466D01*
X232538037Y-120699627D01*
X232520641Y-120523000D01*
X232538037Y-120346373D01*
X232589557Y-120176534D01*
X232673222Y-120020009D01*
X232725007Y-119956909D01*
X232785814Y-119882814D01*
X232892832Y-119794988D01*
X232923009Y-119770222D01*
X233079534Y-119686557D01*
X233249373Y-119635037D01*
X233315558Y-119628518D01*
X233381740Y-119622000D01*
X233470260Y-119622000D01*
X233536442Y-119628518D01*
X233536442Y-119628518D01*
G37*
G36*
X228075443Y-119120519D02*
G01*
X228141627Y-119127037D01*
X228311466Y-119178557D01*
X228467991Y-119262222D01*
X228503729Y-119291552D01*
X228605186Y-119374814D01*
X228662061Y-119444118D01*
X228717778Y-119512009D01*
X228801443Y-119668534D01*
X228852963Y-119838373D01*
X228870359Y-120015000D01*
X228852963Y-120191627D01*
X228801443Y-120361466D01*
X228717778Y-120517991D01*
X228713667Y-120523000D01*
X228605186Y-120655186D01*
X228503729Y-120738448D01*
X228467991Y-120767778D01*
X228311466Y-120851443D01*
X228141627Y-120902963D01*
X228075442Y-120909482D01*
X228009260Y-120916000D01*
X227920740Y-120916000D01*
X227854558Y-120909482D01*
X227788373Y-120902963D01*
X227618534Y-120851443D01*
X227462009Y-120767778D01*
X227426271Y-120738448D01*
X227324814Y-120655186D01*
X227216333Y-120523000D01*
X227212222Y-120517991D01*
X227128557Y-120361466D01*
X227077037Y-120191627D01*
X227059641Y-120015000D01*
X227077037Y-119838373D01*
X227128557Y-119668534D01*
X227212222Y-119512009D01*
X227267939Y-119444118D01*
X227324814Y-119374814D01*
X227426271Y-119291552D01*
X227462009Y-119262222D01*
X227618534Y-119178557D01*
X227788373Y-119127037D01*
X227854557Y-119120519D01*
X227920740Y-119114000D01*
X228009260Y-119114000D01*
X228075443Y-119120519D01*
X228075443Y-119120519D01*
G37*
G36*
X195309443Y-118676019D02*
G01*
X195375627Y-118682537D01*
X195545466Y-118734057D01*
X195701991Y-118817722D01*
X195737729Y-118847052D01*
X195839186Y-118930314D01*
X195922448Y-119031771D01*
X195951778Y-119067509D01*
X195951779Y-119067511D01*
X196024401Y-119203375D01*
X196035443Y-119224034D01*
X196086963Y-119393873D01*
X196104359Y-119570500D01*
X196086963Y-119747127D01*
X196035443Y-119916966D01*
X195951778Y-120073491D01*
X195922448Y-120109229D01*
X195839186Y-120210686D01*
X195753507Y-120281000D01*
X195701991Y-120323278D01*
X195545466Y-120406943D01*
X195375627Y-120458463D01*
X195309442Y-120464982D01*
X195243260Y-120471500D01*
X195154740Y-120471500D01*
X195088558Y-120464982D01*
X195022373Y-120458463D01*
X194852534Y-120406943D01*
X194696009Y-120323278D01*
X194644493Y-120281000D01*
X194558814Y-120210686D01*
X194475552Y-120109229D01*
X194446222Y-120073491D01*
X194362557Y-119916966D01*
X194311037Y-119747127D01*
X194293641Y-119570500D01*
X194311037Y-119393873D01*
X194362557Y-119224034D01*
X194373600Y-119203375D01*
X194446221Y-119067511D01*
X194446222Y-119067509D01*
X194475552Y-119031771D01*
X194558814Y-118930314D01*
X194660271Y-118847052D01*
X194696009Y-118817722D01*
X194852534Y-118734057D01*
X195022373Y-118682537D01*
X195088557Y-118676019D01*
X195154740Y-118669500D01*
X195243260Y-118669500D01*
X195309443Y-118676019D01*
X195309443Y-118676019D01*
G37*
G36*
X208546000Y-120281000D02*
G01*
X206744000Y-120281000D01*
X206744000Y-118479000D01*
X208546000Y-118479000D01*
X208546000Y-120281000D01*
X208546000Y-120281000D01*
G37*
G36*
X173465442Y-118485518D02*
G01*
X173531627Y-118492037D01*
X173701466Y-118543557D01*
X173857991Y-118627222D01*
X173893729Y-118656552D01*
X173995186Y-118739814D01*
X174078448Y-118841271D01*
X174107778Y-118877009D01*
X174191443Y-119033534D01*
X174242963Y-119203373D01*
X174260359Y-119380000D01*
X174242963Y-119556627D01*
X174203001Y-119688364D01*
X174191442Y-119726468D01*
X174180399Y-119747127D01*
X174107778Y-119882991D01*
X174105583Y-119885665D01*
X173995186Y-120020186D01*
X173893729Y-120103448D01*
X173857991Y-120132778D01*
X173701466Y-120216443D01*
X173531627Y-120267963D01*
X173465442Y-120274482D01*
X173399260Y-120281000D01*
X173310740Y-120281000D01*
X173244558Y-120274482D01*
X173178373Y-120267963D01*
X173008534Y-120216443D01*
X172852009Y-120132778D01*
X172816271Y-120103448D01*
X172714814Y-120020186D01*
X172604417Y-119885665D01*
X172602222Y-119882991D01*
X172529601Y-119747127D01*
X172518558Y-119726468D01*
X172506999Y-119688364D01*
X172467037Y-119556627D01*
X172449641Y-119380000D01*
X172467037Y-119203373D01*
X172518557Y-119033534D01*
X172602222Y-118877009D01*
X172631552Y-118841271D01*
X172714814Y-118739814D01*
X172816271Y-118656552D01*
X172852009Y-118627222D01*
X173008534Y-118543557D01*
X173178373Y-118492037D01*
X173244558Y-118485518D01*
X173310740Y-118479000D01*
X173399260Y-118479000D01*
X173465442Y-118485518D01*
X173465442Y-118485518D01*
G37*
G36*
X167734890Y-118754017D02*
G01*
X167853364Y-118803091D01*
X167959988Y-118874335D01*
X168050665Y-118965012D01*
X168119153Y-119067511D01*
X168121910Y-119071638D01*
X168170983Y-119190110D01*
X168196000Y-119315881D01*
X168196000Y-119444119D01*
X168170983Y-119569890D01*
X168122658Y-119686557D01*
X168121909Y-119688364D01*
X168050665Y-119794988D01*
X167959988Y-119885665D01*
X167853364Y-119956909D01*
X167853363Y-119956910D01*
X167853362Y-119956910D01*
X167734890Y-120005983D01*
X167609119Y-120031000D01*
X167480881Y-120031000D01*
X167355110Y-120005983D01*
X167236638Y-119956910D01*
X167236637Y-119956910D01*
X167236636Y-119956909D01*
X167130012Y-119885665D01*
X167039335Y-119794988D01*
X166968091Y-119688364D01*
X166967343Y-119686557D01*
X166919017Y-119569890D01*
X166894000Y-119444119D01*
X166894000Y-119315881D01*
X166919017Y-119190110D01*
X166968090Y-119071638D01*
X166970848Y-119067511D01*
X167039335Y-118965012D01*
X167130012Y-118874335D01*
X167236636Y-118803091D01*
X167355110Y-118754017D01*
X167480881Y-118729000D01*
X167609119Y-118729000D01*
X167734890Y-118754017D01*
X167734890Y-118754017D01*
G37*
G36*
X169734890Y-118754017D02*
G01*
X169853364Y-118803091D01*
X169959988Y-118874335D01*
X170050665Y-118965012D01*
X170119153Y-119067511D01*
X170121910Y-119071638D01*
X170170983Y-119190110D01*
X170196000Y-119315881D01*
X170196000Y-119444119D01*
X170170983Y-119569890D01*
X170122658Y-119686557D01*
X170121909Y-119688364D01*
X170050665Y-119794988D01*
X169959988Y-119885665D01*
X169853364Y-119956909D01*
X169853363Y-119956910D01*
X169853362Y-119956910D01*
X169734890Y-120005983D01*
X169609119Y-120031000D01*
X169480881Y-120031000D01*
X169355110Y-120005983D01*
X169236638Y-119956910D01*
X169236637Y-119956910D01*
X169236636Y-119956909D01*
X169130012Y-119885665D01*
X169039335Y-119794988D01*
X168968091Y-119688364D01*
X168967343Y-119686557D01*
X168919017Y-119569890D01*
X168894000Y-119444119D01*
X168894000Y-119315881D01*
X168919017Y-119190110D01*
X168968090Y-119071638D01*
X168970848Y-119067511D01*
X169039335Y-118965012D01*
X169130012Y-118874335D01*
X169236636Y-118803091D01*
X169355110Y-118754017D01*
X169480881Y-118729000D01*
X169609119Y-118729000D01*
X169734890Y-118754017D01*
X169734890Y-118754017D01*
G37*
G36*
X233536442Y-117088518D02*
G01*
X233602627Y-117095037D01*
X233772466Y-117146557D01*
X233928991Y-117230222D01*
X233964729Y-117259552D01*
X234066186Y-117342814D01*
X234149448Y-117444271D01*
X234178778Y-117480009D01*
X234262443Y-117636534D01*
X234313963Y-117806373D01*
X234331359Y-117983000D01*
X234313963Y-118159627D01*
X234262443Y-118329466D01*
X234178778Y-118485991D01*
X234173816Y-118492037D01*
X234066186Y-118623186D01*
X233964729Y-118706448D01*
X233928991Y-118735778D01*
X233772466Y-118819443D01*
X233602627Y-118870963D01*
X233536442Y-118877482D01*
X233470260Y-118884000D01*
X233381740Y-118884000D01*
X233315558Y-118877482D01*
X233249373Y-118870963D01*
X233079534Y-118819443D01*
X232923009Y-118735778D01*
X232887271Y-118706448D01*
X232785814Y-118623186D01*
X232678184Y-118492037D01*
X232673222Y-118485991D01*
X232589557Y-118329466D01*
X232538037Y-118159627D01*
X232520641Y-117983000D01*
X232538037Y-117806373D01*
X232589557Y-117636534D01*
X232673222Y-117480009D01*
X232702552Y-117444271D01*
X232785814Y-117342814D01*
X232887271Y-117259552D01*
X232923009Y-117230222D01*
X233079534Y-117146557D01*
X233249373Y-117095037D01*
X233315558Y-117088518D01*
X233381740Y-117082000D01*
X233470260Y-117082000D01*
X233536442Y-117088518D01*
X233536442Y-117088518D01*
G37*
G36*
X236076442Y-117088518D02*
G01*
X236142627Y-117095037D01*
X236312466Y-117146557D01*
X236468991Y-117230222D01*
X236504729Y-117259552D01*
X236606186Y-117342814D01*
X236689448Y-117444271D01*
X236718778Y-117480009D01*
X236802443Y-117636534D01*
X236853963Y-117806373D01*
X236871359Y-117983000D01*
X236853963Y-118159627D01*
X236802443Y-118329466D01*
X236718778Y-118485991D01*
X236713816Y-118492037D01*
X236606186Y-118623186D01*
X236504729Y-118706448D01*
X236468991Y-118735778D01*
X236312466Y-118819443D01*
X236142627Y-118870963D01*
X236076442Y-118877482D01*
X236010260Y-118884000D01*
X235921740Y-118884000D01*
X235855558Y-118877482D01*
X235789373Y-118870963D01*
X235619534Y-118819443D01*
X235463009Y-118735778D01*
X235427271Y-118706448D01*
X235325814Y-118623186D01*
X235218184Y-118492037D01*
X235213222Y-118485991D01*
X235129557Y-118329466D01*
X235078037Y-118159627D01*
X235060641Y-117983000D01*
X235078037Y-117806373D01*
X235129557Y-117636534D01*
X235213222Y-117480009D01*
X235242552Y-117444271D01*
X235325814Y-117342814D01*
X235427271Y-117259552D01*
X235463009Y-117230222D01*
X235619534Y-117146557D01*
X235789373Y-117095037D01*
X235855558Y-117088518D01*
X235921740Y-117082000D01*
X236010260Y-117082000D01*
X236076442Y-117088518D01*
X236076442Y-117088518D01*
G37*
G36*
X228075443Y-116580519D02*
G01*
X228141627Y-116587037D01*
X228311466Y-116638557D01*
X228467991Y-116722222D01*
X228503729Y-116751552D01*
X228605186Y-116834814D01*
X228688448Y-116936271D01*
X228717778Y-116972009D01*
X228801443Y-117128534D01*
X228852963Y-117298373D01*
X228870359Y-117475000D01*
X228852963Y-117651627D01*
X228801443Y-117821466D01*
X228717778Y-117977991D01*
X228713667Y-117983000D01*
X228605186Y-118115186D01*
X228503729Y-118198448D01*
X228467991Y-118227778D01*
X228311466Y-118311443D01*
X228141627Y-118362963D01*
X228075442Y-118369482D01*
X228009260Y-118376000D01*
X227920740Y-118376000D01*
X227854558Y-118369482D01*
X227788373Y-118362963D01*
X227618534Y-118311443D01*
X227462009Y-118227778D01*
X227426271Y-118198448D01*
X227324814Y-118115186D01*
X227216333Y-117983000D01*
X227212222Y-117977991D01*
X227128557Y-117821466D01*
X227077037Y-117651627D01*
X227059641Y-117475000D01*
X227077037Y-117298373D01*
X227128557Y-117128534D01*
X227212222Y-116972009D01*
X227241552Y-116936271D01*
X227324814Y-116834814D01*
X227426271Y-116751552D01*
X227462009Y-116722222D01*
X227618534Y-116638557D01*
X227788373Y-116587037D01*
X227854557Y-116580519D01*
X227920740Y-116574000D01*
X228009260Y-116574000D01*
X228075443Y-116580519D01*
X228075443Y-116580519D01*
G37*
G36*
X195309442Y-116136018D02*
G01*
X195375627Y-116142537D01*
X195545466Y-116194057D01*
X195701991Y-116277722D01*
X195737729Y-116307052D01*
X195839186Y-116390314D01*
X195922448Y-116491771D01*
X195951778Y-116527509D01*
X195951779Y-116527511D01*
X196024401Y-116663375D01*
X196035443Y-116684034D01*
X196086963Y-116853873D01*
X196104359Y-117030500D01*
X196086963Y-117207127D01*
X196035443Y-117376966D01*
X195951778Y-117533491D01*
X195922448Y-117569229D01*
X195839186Y-117670686D01*
X195753507Y-117741000D01*
X195701991Y-117783278D01*
X195545466Y-117866943D01*
X195375627Y-117918463D01*
X195309443Y-117924981D01*
X195243260Y-117931500D01*
X195154740Y-117931500D01*
X195088557Y-117924981D01*
X195022373Y-117918463D01*
X194852534Y-117866943D01*
X194696009Y-117783278D01*
X194644493Y-117741000D01*
X194558814Y-117670686D01*
X194475552Y-117569229D01*
X194446222Y-117533491D01*
X194362557Y-117376966D01*
X194311037Y-117207127D01*
X194293641Y-117030500D01*
X194311037Y-116853873D01*
X194362557Y-116684034D01*
X194373600Y-116663375D01*
X194446221Y-116527511D01*
X194446222Y-116527509D01*
X194475552Y-116491771D01*
X194558814Y-116390314D01*
X194660271Y-116307052D01*
X194696009Y-116277722D01*
X194852534Y-116194057D01*
X195022373Y-116142537D01*
X195088558Y-116136018D01*
X195154740Y-116129500D01*
X195243260Y-116129500D01*
X195309442Y-116136018D01*
X195309442Y-116136018D01*
G37*
G36*
X207755442Y-115945518D02*
G01*
X207821627Y-115952037D01*
X207991466Y-116003557D01*
X208147991Y-116087222D01*
X208183729Y-116116552D01*
X208285186Y-116199814D01*
X208368448Y-116301271D01*
X208397778Y-116337009D01*
X208481443Y-116493534D01*
X208532963Y-116663373D01*
X208550359Y-116840000D01*
X208532963Y-117016627D01*
X208481443Y-117186466D01*
X208481442Y-117186468D01*
X208470399Y-117207127D01*
X208397778Y-117342991D01*
X208369895Y-117376966D01*
X208285186Y-117480186D01*
X208183729Y-117563448D01*
X208147991Y-117592778D01*
X207991466Y-117676443D01*
X207821627Y-117727963D01*
X207755442Y-117734482D01*
X207689260Y-117741000D01*
X207600740Y-117741000D01*
X207534558Y-117734482D01*
X207468373Y-117727963D01*
X207298534Y-117676443D01*
X207142009Y-117592778D01*
X207106271Y-117563448D01*
X207004814Y-117480186D01*
X206920105Y-117376966D01*
X206892222Y-117342991D01*
X206819601Y-117207127D01*
X206808558Y-117186468D01*
X206808557Y-117186466D01*
X206757037Y-117016627D01*
X206739641Y-116840000D01*
X206757037Y-116663373D01*
X206808557Y-116493534D01*
X206892222Y-116337009D01*
X206921552Y-116301271D01*
X207004814Y-116199814D01*
X207106271Y-116116552D01*
X207142009Y-116087222D01*
X207298534Y-116003557D01*
X207468373Y-115952037D01*
X207534558Y-115945518D01*
X207600740Y-115939000D01*
X207689260Y-115939000D01*
X207755442Y-115945518D01*
X207755442Y-115945518D01*
G37*
G36*
X174256000Y-117741000D02*
G01*
X172454000Y-117741000D01*
X172454000Y-115939000D01*
X174256000Y-115939000D01*
X174256000Y-117741000D01*
X174256000Y-117741000D01*
G37*
G36*
X179180442Y-115945518D02*
G01*
X179246627Y-115952037D01*
X179416466Y-116003557D01*
X179572991Y-116087222D01*
X179608729Y-116116552D01*
X179710186Y-116199814D01*
X179793448Y-116301271D01*
X179822778Y-116337009D01*
X179906443Y-116493534D01*
X179957963Y-116663373D01*
X179975359Y-116840000D01*
X179957963Y-117016627D01*
X179906443Y-117186466D01*
X179906442Y-117186468D01*
X179895399Y-117207127D01*
X179822778Y-117342991D01*
X179794895Y-117376966D01*
X179710186Y-117480186D01*
X179608729Y-117563448D01*
X179572991Y-117592778D01*
X179416466Y-117676443D01*
X179246627Y-117727963D01*
X179180442Y-117734482D01*
X179114260Y-117741000D01*
X179025740Y-117741000D01*
X178959558Y-117734482D01*
X178893373Y-117727963D01*
X178723534Y-117676443D01*
X178567009Y-117592778D01*
X178531271Y-117563448D01*
X178429814Y-117480186D01*
X178345105Y-117376966D01*
X178317222Y-117342991D01*
X178244601Y-117207127D01*
X178233558Y-117186468D01*
X178233557Y-117186466D01*
X178182037Y-117016627D01*
X178164641Y-116840000D01*
X178182037Y-116663373D01*
X178233557Y-116493534D01*
X178317222Y-116337009D01*
X178346552Y-116301271D01*
X178429814Y-116199814D01*
X178531271Y-116116552D01*
X178567009Y-116087222D01*
X178723534Y-116003557D01*
X178893373Y-115952037D01*
X178959558Y-115945518D01*
X179025740Y-115939000D01*
X179114260Y-115939000D01*
X179180442Y-115945518D01*
X179180442Y-115945518D01*
G37*
G36*
X223736000Y-117691000D02*
G01*
X222034000Y-117691000D01*
X222034000Y-115989000D01*
X223736000Y-115989000D01*
X223736000Y-117691000D01*
X223736000Y-117691000D01*
G37*
G36*
X215431823Y-116001313D02*
G01*
X215592242Y-116049976D01*
X215654373Y-116083186D01*
X215740078Y-116128996D01*
X215869659Y-116235341D01*
X215976004Y-116364922D01*
X215976005Y-116364924D01*
X216055024Y-116512758D01*
X216103687Y-116673177D01*
X216120117Y-116840000D01*
X216103687Y-117006823D01*
X216080882Y-117082000D01*
X216061299Y-117146558D01*
X216055024Y-117167242D01*
X216044747Y-117186468D01*
X215976004Y-117315078D01*
X215869659Y-117444659D01*
X215740078Y-117551004D01*
X215740076Y-117551005D01*
X215592242Y-117630024D01*
X215431823Y-117678687D01*
X215306804Y-117691000D01*
X215223196Y-117691000D01*
X215098177Y-117678687D01*
X214937758Y-117630024D01*
X214789924Y-117551005D01*
X214789922Y-117551004D01*
X214660341Y-117444659D01*
X214553996Y-117315078D01*
X214485253Y-117186468D01*
X214474976Y-117167242D01*
X214468702Y-117146558D01*
X214449118Y-117082000D01*
X214426313Y-117006823D01*
X214409883Y-116840000D01*
X214426313Y-116673177D01*
X214474976Y-116512758D01*
X214553995Y-116364924D01*
X214553996Y-116364922D01*
X214660341Y-116235341D01*
X214789922Y-116128996D01*
X214875627Y-116083186D01*
X214937758Y-116049976D01*
X215098177Y-116001313D01*
X215223196Y-115989000D01*
X215306804Y-115989000D01*
X215431823Y-116001313D01*
X215431823Y-116001313D01*
G37*
G36*
X191351000Y-117691000D02*
G01*
X189649000Y-117691000D01*
X189649000Y-115989000D01*
X191351000Y-115989000D01*
X191351000Y-117691000D01*
X191351000Y-117691000D01*
G37*
G36*
X183046823Y-116001313D02*
G01*
X183207242Y-116049976D01*
X183269373Y-116083186D01*
X183355078Y-116128996D01*
X183484659Y-116235341D01*
X183591004Y-116364922D01*
X183591005Y-116364924D01*
X183670024Y-116512758D01*
X183718687Y-116673177D01*
X183735117Y-116840000D01*
X183718687Y-117006823D01*
X183695882Y-117082000D01*
X183676299Y-117146558D01*
X183670024Y-117167242D01*
X183659747Y-117186468D01*
X183591004Y-117315078D01*
X183484659Y-117444659D01*
X183355078Y-117551004D01*
X183355076Y-117551005D01*
X183207242Y-117630024D01*
X183046823Y-117678687D01*
X182921804Y-117691000D01*
X182838196Y-117691000D01*
X182713177Y-117678687D01*
X182552758Y-117630024D01*
X182404924Y-117551005D01*
X182404922Y-117551004D01*
X182275341Y-117444659D01*
X182168996Y-117315078D01*
X182100253Y-117186468D01*
X182089976Y-117167242D01*
X182083702Y-117146558D01*
X182064118Y-117082000D01*
X182041313Y-117006823D01*
X182024883Y-116840000D01*
X182041313Y-116673177D01*
X182089976Y-116512758D01*
X182168995Y-116364924D01*
X182168996Y-116364922D01*
X182275341Y-116235341D01*
X182404922Y-116128996D01*
X182490627Y-116083186D01*
X182552758Y-116049976D01*
X182713177Y-116001313D01*
X182838196Y-115989000D01*
X182921804Y-115989000D01*
X183046823Y-116001313D01*
X183046823Y-116001313D01*
G37*
G36*
X234327000Y-116344000D02*
G01*
X232525000Y-116344000D01*
X232525000Y-114542000D01*
X234327000Y-114542000D01*
X234327000Y-116344000D01*
X234327000Y-116344000D01*
G37*
G36*
X236076443Y-114548519D02*
G01*
X236142627Y-114555037D01*
X236312466Y-114606557D01*
X236468991Y-114690222D01*
X236504729Y-114719552D01*
X236606186Y-114802814D01*
X236689448Y-114904271D01*
X236718778Y-114940009D01*
X236802443Y-115096534D01*
X236853963Y-115266373D01*
X236871359Y-115443000D01*
X236853963Y-115619627D01*
X236802443Y-115789466D01*
X236718778Y-115945991D01*
X236713816Y-115952037D01*
X236606186Y-116083186D01*
X236504729Y-116166448D01*
X236468991Y-116195778D01*
X236312466Y-116279443D01*
X236142627Y-116330963D01*
X236076442Y-116337482D01*
X236010260Y-116344000D01*
X235921740Y-116344000D01*
X235855558Y-116337482D01*
X235789373Y-116330963D01*
X235619534Y-116279443D01*
X235463009Y-116195778D01*
X235427271Y-116166448D01*
X235325814Y-116083186D01*
X235218184Y-115952037D01*
X235213222Y-115945991D01*
X235129557Y-115789466D01*
X235078037Y-115619627D01*
X235060641Y-115443000D01*
X235078037Y-115266373D01*
X235129557Y-115096534D01*
X235213222Y-114940009D01*
X235242552Y-114904271D01*
X235325814Y-114802814D01*
X235427271Y-114719552D01*
X235463009Y-114690222D01*
X235619534Y-114606557D01*
X235789373Y-114555037D01*
X235855557Y-114548519D01*
X235921740Y-114542000D01*
X236010260Y-114542000D01*
X236076443Y-114548519D01*
X236076443Y-114548519D01*
G37*
G36*
X228075442Y-114040518D02*
G01*
X228141627Y-114047037D01*
X228311466Y-114098557D01*
X228467991Y-114182222D01*
X228503729Y-114211552D01*
X228605186Y-114294814D01*
X228688448Y-114396271D01*
X228717778Y-114432009D01*
X228801443Y-114588534D01*
X228852963Y-114758373D01*
X228870359Y-114935000D01*
X228852963Y-115111627D01*
X228801443Y-115281466D01*
X228717778Y-115437991D01*
X228713667Y-115443000D01*
X228605186Y-115575186D01*
X228503729Y-115658448D01*
X228467991Y-115687778D01*
X228311466Y-115771443D01*
X228141627Y-115822963D01*
X228075443Y-115829481D01*
X228009260Y-115836000D01*
X227920740Y-115836000D01*
X227854557Y-115829481D01*
X227788373Y-115822963D01*
X227618534Y-115771443D01*
X227462009Y-115687778D01*
X227426271Y-115658448D01*
X227324814Y-115575186D01*
X227216333Y-115443000D01*
X227212222Y-115437991D01*
X227128557Y-115281466D01*
X227077037Y-115111627D01*
X227059641Y-114935000D01*
X227077037Y-114758373D01*
X227128557Y-114588534D01*
X227212222Y-114432009D01*
X227241552Y-114396271D01*
X227324814Y-114294814D01*
X227426271Y-114211552D01*
X227462009Y-114182222D01*
X227618534Y-114098557D01*
X227788373Y-114047037D01*
X227854558Y-114040518D01*
X227920740Y-114034000D01*
X228009260Y-114034000D01*
X228075442Y-114040518D01*
X228075442Y-114040518D01*
G37*
G36*
X195309442Y-113596018D02*
G01*
X195375627Y-113602537D01*
X195545466Y-113654057D01*
X195701991Y-113737722D01*
X195737729Y-113767052D01*
X195839186Y-113850314D01*
X195922448Y-113951771D01*
X195951778Y-113987509D01*
X195951779Y-113987511D01*
X196024401Y-114123375D01*
X196035443Y-114144034D01*
X196086963Y-114313873D01*
X196104359Y-114490500D01*
X196086963Y-114667127D01*
X196035443Y-114836966D01*
X195951778Y-114993491D01*
X195922448Y-115029229D01*
X195839186Y-115130686D01*
X195753507Y-115201000D01*
X195701991Y-115243278D01*
X195545466Y-115326943D01*
X195375627Y-115378463D01*
X195309443Y-115384981D01*
X195243260Y-115391500D01*
X195154740Y-115391500D01*
X195088557Y-115384981D01*
X195022373Y-115378463D01*
X194852534Y-115326943D01*
X194696009Y-115243278D01*
X194644493Y-115201000D01*
X194558814Y-115130686D01*
X194475552Y-115029229D01*
X194446222Y-114993491D01*
X194362557Y-114836966D01*
X194311037Y-114667127D01*
X194293641Y-114490500D01*
X194311037Y-114313873D01*
X194362557Y-114144034D01*
X194373600Y-114123375D01*
X194446221Y-113987511D01*
X194446222Y-113987509D01*
X194475552Y-113951771D01*
X194558814Y-113850314D01*
X194660271Y-113767052D01*
X194696009Y-113737722D01*
X194852534Y-113654057D01*
X195022373Y-113602537D01*
X195088558Y-113596018D01*
X195154740Y-113589500D01*
X195243260Y-113589500D01*
X195309442Y-113596018D01*
X195309442Y-113596018D01*
G37*
G36*
X207755443Y-113405519D02*
G01*
X207821627Y-113412037D01*
X207991466Y-113463557D01*
X208147991Y-113547222D01*
X208183729Y-113576552D01*
X208285186Y-113659814D01*
X208349122Y-113737722D01*
X208397778Y-113797009D01*
X208481443Y-113953534D01*
X208532963Y-114123373D01*
X208550359Y-114300000D01*
X208532963Y-114476627D01*
X208481443Y-114646466D01*
X208481442Y-114646468D01*
X208470399Y-114667127D01*
X208397778Y-114802991D01*
X208369895Y-114836966D01*
X208285186Y-114940186D01*
X208183729Y-115023448D01*
X208147991Y-115052778D01*
X207991466Y-115136443D01*
X207821627Y-115187963D01*
X207755442Y-115194482D01*
X207689260Y-115201000D01*
X207600740Y-115201000D01*
X207534558Y-115194482D01*
X207468373Y-115187963D01*
X207298534Y-115136443D01*
X207142009Y-115052778D01*
X207106271Y-115023448D01*
X207004814Y-114940186D01*
X206920105Y-114836966D01*
X206892222Y-114802991D01*
X206819601Y-114667127D01*
X206808558Y-114646468D01*
X206808557Y-114646466D01*
X206757037Y-114476627D01*
X206739641Y-114300000D01*
X206757037Y-114123373D01*
X206808557Y-113953534D01*
X206892222Y-113797009D01*
X206940878Y-113737722D01*
X207004814Y-113659814D01*
X207106271Y-113576552D01*
X207142009Y-113547222D01*
X207298534Y-113463557D01*
X207468373Y-113412037D01*
X207534557Y-113405519D01*
X207600740Y-113399000D01*
X207689260Y-113399000D01*
X207755443Y-113405519D01*
X207755443Y-113405519D01*
G37*
G36*
X179180443Y-113405519D02*
G01*
X179246627Y-113412037D01*
X179416466Y-113463557D01*
X179572991Y-113547222D01*
X179608729Y-113576552D01*
X179710186Y-113659814D01*
X179774122Y-113737722D01*
X179822778Y-113797009D01*
X179906443Y-113953534D01*
X179957963Y-114123373D01*
X179975359Y-114300000D01*
X179957963Y-114476627D01*
X179906443Y-114646466D01*
X179906442Y-114646468D01*
X179895399Y-114667127D01*
X179822778Y-114802991D01*
X179794895Y-114836966D01*
X179710186Y-114940186D01*
X179608729Y-115023448D01*
X179572991Y-115052778D01*
X179416466Y-115136443D01*
X179246627Y-115187963D01*
X179180442Y-115194482D01*
X179114260Y-115201000D01*
X179025740Y-115201000D01*
X178959558Y-115194482D01*
X178893373Y-115187963D01*
X178723534Y-115136443D01*
X178567009Y-115052778D01*
X178531271Y-115023448D01*
X178429814Y-114940186D01*
X178345105Y-114836966D01*
X178317222Y-114802991D01*
X178244601Y-114667127D01*
X178233558Y-114646468D01*
X178233557Y-114646466D01*
X178182037Y-114476627D01*
X178164641Y-114300000D01*
X178182037Y-114123373D01*
X178233557Y-113953534D01*
X178317222Y-113797009D01*
X178365878Y-113737722D01*
X178429814Y-113659814D01*
X178531271Y-113576552D01*
X178567009Y-113547222D01*
X178723534Y-113463557D01*
X178893373Y-113412037D01*
X178959557Y-113405519D01*
X179025740Y-113399000D01*
X179114260Y-113399000D01*
X179180443Y-113405519D01*
X179180443Y-113405519D01*
G37*
G36*
X223051823Y-113461313D02*
G01*
X223212242Y-113509976D01*
X223281922Y-113547221D01*
X223360078Y-113588996D01*
X223489659Y-113695341D01*
X223596004Y-113824922D01*
X223596005Y-113824924D01*
X223675024Y-113972758D01*
X223723687Y-114133177D01*
X223740117Y-114300000D01*
X223723687Y-114466823D01*
X223700882Y-114542000D01*
X223681299Y-114606558D01*
X223675024Y-114627242D01*
X223664747Y-114646468D01*
X223596004Y-114775078D01*
X223489659Y-114904659D01*
X223360078Y-115011004D01*
X223360076Y-115011005D01*
X223212242Y-115090024D01*
X223051823Y-115138687D01*
X222926804Y-115151000D01*
X222843196Y-115151000D01*
X222718177Y-115138687D01*
X222557758Y-115090024D01*
X222409924Y-115011005D01*
X222409922Y-115011004D01*
X222280341Y-114904659D01*
X222173996Y-114775078D01*
X222105253Y-114646468D01*
X222094976Y-114627242D01*
X222088702Y-114606558D01*
X222069118Y-114542000D01*
X222046313Y-114466823D01*
X222029883Y-114300000D01*
X222046313Y-114133177D01*
X222094976Y-113972758D01*
X222173995Y-113824924D01*
X222173996Y-113824922D01*
X222280341Y-113695341D01*
X222409922Y-113588996D01*
X222488078Y-113547221D01*
X222557758Y-113509976D01*
X222718177Y-113461313D01*
X222843196Y-113449000D01*
X222926804Y-113449000D01*
X223051823Y-113461313D01*
X223051823Y-113461313D01*
G37*
G36*
X190666823Y-113461313D02*
G01*
X190827242Y-113509976D01*
X190896922Y-113547221D01*
X190975078Y-113588996D01*
X191104659Y-113695341D01*
X191211004Y-113824922D01*
X191211005Y-113824924D01*
X191290024Y-113972758D01*
X191338687Y-114133177D01*
X191355117Y-114300000D01*
X191338687Y-114466823D01*
X191315882Y-114542000D01*
X191296299Y-114606558D01*
X191290024Y-114627242D01*
X191279747Y-114646468D01*
X191211004Y-114775078D01*
X191104659Y-114904659D01*
X190975078Y-115011004D01*
X190975076Y-115011005D01*
X190827242Y-115090024D01*
X190666823Y-115138687D01*
X190541804Y-115151000D01*
X190458196Y-115151000D01*
X190333177Y-115138687D01*
X190172758Y-115090024D01*
X190024924Y-115011005D01*
X190024922Y-115011004D01*
X189895341Y-114904659D01*
X189788996Y-114775078D01*
X189720253Y-114646468D01*
X189709976Y-114627242D01*
X189703702Y-114606558D01*
X189684118Y-114542000D01*
X189661313Y-114466823D01*
X189644883Y-114300000D01*
X189661313Y-114133177D01*
X189709976Y-113972758D01*
X189788995Y-113824924D01*
X189788996Y-113824922D01*
X189895341Y-113695341D01*
X190024922Y-113588996D01*
X190103078Y-113547221D01*
X190172758Y-113509976D01*
X190333177Y-113461313D01*
X190458196Y-113449000D01*
X190541804Y-113449000D01*
X190666823Y-113461313D01*
X190666823Y-113461313D01*
G37*
G36*
X183046823Y-113461313D02*
G01*
X183207242Y-113509976D01*
X183276922Y-113547221D01*
X183355078Y-113588996D01*
X183484659Y-113695341D01*
X183591004Y-113824922D01*
X183591005Y-113824924D01*
X183670024Y-113972758D01*
X183718687Y-114133177D01*
X183735117Y-114300000D01*
X183718687Y-114466823D01*
X183695882Y-114542000D01*
X183676299Y-114606558D01*
X183670024Y-114627242D01*
X183659747Y-114646468D01*
X183591004Y-114775078D01*
X183484659Y-114904659D01*
X183355078Y-115011004D01*
X183355076Y-115011005D01*
X183207242Y-115090024D01*
X183046823Y-115138687D01*
X182921804Y-115151000D01*
X182838196Y-115151000D01*
X182713177Y-115138687D01*
X182552758Y-115090024D01*
X182404924Y-115011005D01*
X182404922Y-115011004D01*
X182275341Y-114904659D01*
X182168996Y-114775078D01*
X182100253Y-114646468D01*
X182089976Y-114627242D01*
X182083702Y-114606558D01*
X182064118Y-114542000D01*
X182041313Y-114466823D01*
X182024883Y-114300000D01*
X182041313Y-114133177D01*
X182089976Y-113972758D01*
X182168995Y-113824924D01*
X182168996Y-113824922D01*
X182275341Y-113695341D01*
X182404922Y-113588996D01*
X182483078Y-113547221D01*
X182552758Y-113509976D01*
X182713177Y-113461313D01*
X182838196Y-113449000D01*
X182921804Y-113449000D01*
X183046823Y-113461313D01*
X183046823Y-113461313D01*
G37*
G36*
X215431823Y-113461313D02*
G01*
X215592242Y-113509976D01*
X215661922Y-113547221D01*
X215740078Y-113588996D01*
X215869659Y-113695341D01*
X215976004Y-113824922D01*
X215976005Y-113824924D01*
X216055024Y-113972758D01*
X216103687Y-114133177D01*
X216120117Y-114300000D01*
X216103687Y-114466823D01*
X216080882Y-114542000D01*
X216061299Y-114606558D01*
X216055024Y-114627242D01*
X216044747Y-114646468D01*
X215976004Y-114775078D01*
X215869659Y-114904659D01*
X215740078Y-115011004D01*
X215740076Y-115011005D01*
X215592242Y-115090024D01*
X215431823Y-115138687D01*
X215306804Y-115151000D01*
X215223196Y-115151000D01*
X215098177Y-115138687D01*
X214937758Y-115090024D01*
X214789924Y-115011005D01*
X214789922Y-115011004D01*
X214660341Y-114904659D01*
X214553996Y-114775078D01*
X214485253Y-114646468D01*
X214474976Y-114627242D01*
X214468702Y-114606558D01*
X214449118Y-114542000D01*
X214426313Y-114466823D01*
X214409883Y-114300000D01*
X214426313Y-114133177D01*
X214474976Y-113972758D01*
X214553995Y-113824924D01*
X214553996Y-113824922D01*
X214660341Y-113695341D01*
X214789922Y-113588996D01*
X214868078Y-113547221D01*
X214937758Y-113509976D01*
X215098177Y-113461313D01*
X215223196Y-113449000D01*
X215306804Y-113449000D01*
X215431823Y-113461313D01*
X215431823Y-113461313D01*
G37*
G36*
X207755442Y-110865518D02*
G01*
X207821627Y-110872037D01*
X207991466Y-110923557D01*
X208147991Y-111007222D01*
X208183729Y-111036552D01*
X208285186Y-111119814D01*
X208368448Y-111221271D01*
X208397778Y-111257009D01*
X208481443Y-111413534D01*
X208532963Y-111583373D01*
X208550359Y-111760000D01*
X208532963Y-111936627D01*
X208481443Y-112106466D01*
X208397778Y-112262991D01*
X208368448Y-112298729D01*
X208285186Y-112400186D01*
X208183729Y-112483448D01*
X208147991Y-112512778D01*
X207991466Y-112596443D01*
X207821627Y-112647963D01*
X207755442Y-112654482D01*
X207689260Y-112661000D01*
X207600740Y-112661000D01*
X207534558Y-112654482D01*
X207468373Y-112647963D01*
X207298534Y-112596443D01*
X207142009Y-112512778D01*
X207106271Y-112483448D01*
X207004814Y-112400186D01*
X206921552Y-112298729D01*
X206892222Y-112262991D01*
X206808557Y-112106466D01*
X206757037Y-111936627D01*
X206739641Y-111760000D01*
X206757037Y-111583373D01*
X206808557Y-111413534D01*
X206892222Y-111257009D01*
X206921552Y-111221271D01*
X207004814Y-111119814D01*
X207106271Y-111036552D01*
X207142009Y-111007222D01*
X207298534Y-110923557D01*
X207468373Y-110872037D01*
X207534558Y-110865518D01*
X207600740Y-110859000D01*
X207689260Y-110859000D01*
X207755442Y-110865518D01*
X207755442Y-110865518D01*
G37*
G36*
X179180442Y-110865518D02*
G01*
X179246627Y-110872037D01*
X179416466Y-110923557D01*
X179572991Y-111007222D01*
X179608729Y-111036552D01*
X179710186Y-111119814D01*
X179793448Y-111221271D01*
X179822778Y-111257009D01*
X179906443Y-111413534D01*
X179957963Y-111583373D01*
X179975359Y-111760000D01*
X179957963Y-111936627D01*
X179906443Y-112106466D01*
X179822778Y-112262991D01*
X179793448Y-112298729D01*
X179710186Y-112400186D01*
X179608729Y-112483448D01*
X179572991Y-112512778D01*
X179416466Y-112596443D01*
X179246627Y-112647963D01*
X179180442Y-112654482D01*
X179114260Y-112661000D01*
X179025740Y-112661000D01*
X178959558Y-112654482D01*
X178893373Y-112647963D01*
X178723534Y-112596443D01*
X178567009Y-112512778D01*
X178531271Y-112483448D01*
X178429814Y-112400186D01*
X178346552Y-112298729D01*
X178317222Y-112262991D01*
X178233557Y-112106466D01*
X178182037Y-111936627D01*
X178164641Y-111760000D01*
X178182037Y-111583373D01*
X178233557Y-111413534D01*
X178317222Y-111257009D01*
X178346552Y-111221271D01*
X178429814Y-111119814D01*
X178531271Y-111036552D01*
X178567009Y-111007222D01*
X178723534Y-110923557D01*
X178893373Y-110872037D01*
X178959558Y-110865518D01*
X179025740Y-110859000D01*
X179114260Y-110859000D01*
X179180442Y-110865518D01*
X179180442Y-110865518D01*
G37*
G36*
X183046823Y-110921313D02*
G01*
X183207242Y-110969976D01*
X183276922Y-111007221D01*
X183355078Y-111048996D01*
X183484659Y-111155341D01*
X183591004Y-111284922D01*
X183591005Y-111284924D01*
X183670024Y-111432758D01*
X183718687Y-111593177D01*
X183735117Y-111760000D01*
X183718687Y-111926823D01*
X183670024Y-112087242D01*
X183659747Y-112106468D01*
X183591004Y-112235078D01*
X183484659Y-112364659D01*
X183355078Y-112471004D01*
X183355076Y-112471005D01*
X183207242Y-112550024D01*
X183046823Y-112598687D01*
X182921804Y-112611000D01*
X182838196Y-112611000D01*
X182713177Y-112598687D01*
X182552758Y-112550024D01*
X182404924Y-112471005D01*
X182404922Y-112471004D01*
X182275341Y-112364659D01*
X182168996Y-112235078D01*
X182100253Y-112106468D01*
X182089976Y-112087242D01*
X182041313Y-111926823D01*
X182024883Y-111760000D01*
X182041313Y-111593177D01*
X182089976Y-111432758D01*
X182168995Y-111284924D01*
X182168996Y-111284922D01*
X182275341Y-111155341D01*
X182404922Y-111048996D01*
X182483078Y-111007221D01*
X182552758Y-110969976D01*
X182713177Y-110921313D01*
X182838196Y-110909000D01*
X182921804Y-110909000D01*
X183046823Y-110921313D01*
X183046823Y-110921313D01*
G37*
G36*
X190666823Y-110921313D02*
G01*
X190827242Y-110969976D01*
X190896922Y-111007221D01*
X190975078Y-111048996D01*
X191104659Y-111155341D01*
X191211004Y-111284922D01*
X191211005Y-111284924D01*
X191290024Y-111432758D01*
X191338687Y-111593177D01*
X191355117Y-111760000D01*
X191338687Y-111926823D01*
X191290024Y-112087242D01*
X191279747Y-112106468D01*
X191211004Y-112235078D01*
X191104659Y-112364659D01*
X190975078Y-112471004D01*
X190975076Y-112471005D01*
X190827242Y-112550024D01*
X190666823Y-112598687D01*
X190541804Y-112611000D01*
X190458196Y-112611000D01*
X190333177Y-112598687D01*
X190172758Y-112550024D01*
X190024924Y-112471005D01*
X190024922Y-112471004D01*
X189895341Y-112364659D01*
X189788996Y-112235078D01*
X189720253Y-112106468D01*
X189709976Y-112087242D01*
X189661313Y-111926823D01*
X189644883Y-111760000D01*
X189661313Y-111593177D01*
X189709976Y-111432758D01*
X189788995Y-111284924D01*
X189788996Y-111284922D01*
X189895341Y-111155341D01*
X190024922Y-111048996D01*
X190103078Y-111007221D01*
X190172758Y-110969976D01*
X190333177Y-110921313D01*
X190458196Y-110909000D01*
X190541804Y-110909000D01*
X190666823Y-110921313D01*
X190666823Y-110921313D01*
G37*
G36*
X215431823Y-110921313D02*
G01*
X215592242Y-110969976D01*
X215661922Y-111007221D01*
X215740078Y-111048996D01*
X215869659Y-111155341D01*
X215976004Y-111284922D01*
X215976005Y-111284924D01*
X216055024Y-111432758D01*
X216103687Y-111593177D01*
X216120117Y-111760000D01*
X216103687Y-111926823D01*
X216055024Y-112087242D01*
X216044747Y-112106468D01*
X215976004Y-112235078D01*
X215869659Y-112364659D01*
X215740078Y-112471004D01*
X215740076Y-112471005D01*
X215592242Y-112550024D01*
X215431823Y-112598687D01*
X215306804Y-112611000D01*
X215223196Y-112611000D01*
X215098177Y-112598687D01*
X214937758Y-112550024D01*
X214789924Y-112471005D01*
X214789922Y-112471004D01*
X214660341Y-112364659D01*
X214553996Y-112235078D01*
X214485253Y-112106468D01*
X214474976Y-112087242D01*
X214426313Y-111926823D01*
X214409883Y-111760000D01*
X214426313Y-111593177D01*
X214474976Y-111432758D01*
X214553995Y-111284924D01*
X214553996Y-111284922D01*
X214660341Y-111155341D01*
X214789922Y-111048996D01*
X214868078Y-111007221D01*
X214937758Y-110969976D01*
X215098177Y-110921313D01*
X215223196Y-110909000D01*
X215306804Y-110909000D01*
X215431823Y-110921313D01*
X215431823Y-110921313D01*
G37*
G36*
X223051823Y-110921313D02*
G01*
X223212242Y-110969976D01*
X223281922Y-111007221D01*
X223360078Y-111048996D01*
X223489659Y-111155341D01*
X223596004Y-111284922D01*
X223596005Y-111284924D01*
X223675024Y-111432758D01*
X223723687Y-111593177D01*
X223740117Y-111760000D01*
X223723687Y-111926823D01*
X223675024Y-112087242D01*
X223664747Y-112106468D01*
X223596004Y-112235078D01*
X223489659Y-112364659D01*
X223360078Y-112471004D01*
X223360076Y-112471005D01*
X223212242Y-112550024D01*
X223051823Y-112598687D01*
X222926804Y-112611000D01*
X222843196Y-112611000D01*
X222718177Y-112598687D01*
X222557758Y-112550024D01*
X222409924Y-112471005D01*
X222409922Y-112471004D01*
X222280341Y-112364659D01*
X222173996Y-112235078D01*
X222105253Y-112106468D01*
X222094976Y-112087242D01*
X222046313Y-111926823D01*
X222029883Y-111760000D01*
X222046313Y-111593177D01*
X222094976Y-111432758D01*
X222173995Y-111284924D01*
X222173996Y-111284922D01*
X222280341Y-111155341D01*
X222409922Y-111048996D01*
X222488078Y-111007221D01*
X222557758Y-110969976D01*
X222718177Y-110921313D01*
X222843196Y-110909000D01*
X222926804Y-110909000D01*
X223051823Y-110921313D01*
X223051823Y-110921313D01*
G37*
G36*
X228866000Y-112026000D02*
G01*
X227064000Y-112026000D01*
X227064000Y-110224000D01*
X228866000Y-110224000D01*
X228866000Y-112026000D01*
X228866000Y-112026000D01*
G37*
G36*
X171716000Y-112026000D02*
G01*
X169914000Y-112026000D01*
X169914000Y-110224000D01*
X171716000Y-110224000D01*
X171716000Y-112026000D01*
X171716000Y-112026000D01*
G37*
G36*
X168385443Y-110230519D02*
G01*
X168451627Y-110237037D01*
X168621466Y-110288557D01*
X168777991Y-110372222D01*
X168813729Y-110401552D01*
X168915186Y-110484814D01*
X168998448Y-110586271D01*
X169027778Y-110622009D01*
X169111443Y-110778534D01*
X169162963Y-110948373D01*
X169180359Y-111125000D01*
X169162963Y-111301627D01*
X169111443Y-111471466D01*
X169027778Y-111627991D01*
X168998448Y-111663729D01*
X168915186Y-111765186D01*
X168813729Y-111848448D01*
X168777991Y-111877778D01*
X168621466Y-111961443D01*
X168451627Y-112012963D01*
X168385442Y-112019482D01*
X168319260Y-112026000D01*
X168230740Y-112026000D01*
X168164558Y-112019482D01*
X168098373Y-112012963D01*
X167928534Y-111961443D01*
X167772009Y-111877778D01*
X167736271Y-111848448D01*
X167634814Y-111765186D01*
X167551552Y-111663729D01*
X167522222Y-111627991D01*
X167438557Y-111471466D01*
X167387037Y-111301627D01*
X167369641Y-111125000D01*
X167387037Y-110948373D01*
X167438557Y-110778534D01*
X167522222Y-110622009D01*
X167551552Y-110586271D01*
X167634814Y-110484814D01*
X167736271Y-110401552D01*
X167772009Y-110372222D01*
X167928534Y-110288557D01*
X168098373Y-110237037D01*
X168164557Y-110230519D01*
X168230740Y-110224000D01*
X168319260Y-110224000D01*
X168385443Y-110230519D01*
X168385443Y-110230519D01*
G37*
G36*
X197751000Y-111391000D02*
G01*
X195949000Y-111391000D01*
X195949000Y-109589000D01*
X197751000Y-109589000D01*
X197751000Y-111391000D01*
X197751000Y-111391000D01*
G37*
G36*
X211565443Y-108960519D02*
G01*
X211631627Y-108967037D01*
X211801466Y-109018557D01*
X211957991Y-109102222D01*
X211993729Y-109131552D01*
X212095186Y-109214814D01*
X212178448Y-109316271D01*
X212207778Y-109352009D01*
X212291443Y-109508534D01*
X212342963Y-109678373D01*
X212360359Y-109855000D01*
X212342963Y-110031627D01*
X212291443Y-110201466D01*
X212207778Y-110357991D01*
X212178448Y-110393729D01*
X212095186Y-110495186D01*
X211993729Y-110578448D01*
X211957991Y-110607778D01*
X211801466Y-110691443D01*
X211631627Y-110742963D01*
X211565442Y-110749482D01*
X211499260Y-110756000D01*
X211410740Y-110756000D01*
X211344558Y-110749482D01*
X211278373Y-110742963D01*
X211108534Y-110691443D01*
X210952009Y-110607778D01*
X210916271Y-110578448D01*
X210814814Y-110495186D01*
X210731552Y-110393729D01*
X210702222Y-110357991D01*
X210618557Y-110201466D01*
X210567037Y-110031627D01*
X210549641Y-109855000D01*
X210567037Y-109678373D01*
X210618557Y-109508534D01*
X210702222Y-109352009D01*
X210731552Y-109316271D01*
X210814814Y-109214814D01*
X210916271Y-109131552D01*
X210952009Y-109102222D01*
X211108534Y-109018557D01*
X211278373Y-108967037D01*
X211344557Y-108960519D01*
X211410740Y-108954000D01*
X211499260Y-108954000D01*
X211565443Y-108960519D01*
X211565443Y-108960519D01*
G37*
G36*
X207755443Y-108325519D02*
G01*
X207821627Y-108332037D01*
X207991466Y-108383557D01*
X208147991Y-108467222D01*
X208183729Y-108496552D01*
X208285186Y-108579814D01*
X208368448Y-108681271D01*
X208397778Y-108717009D01*
X208481443Y-108873534D01*
X208532963Y-109043373D01*
X208550359Y-109220000D01*
X208532963Y-109396627D01*
X208481443Y-109566466D01*
X208397778Y-109722991D01*
X208368448Y-109758729D01*
X208285186Y-109860186D01*
X208183729Y-109943448D01*
X208147991Y-109972778D01*
X207991466Y-110056443D01*
X207821627Y-110107963D01*
X207755443Y-110114481D01*
X207689260Y-110121000D01*
X207600740Y-110121000D01*
X207534557Y-110114481D01*
X207468373Y-110107963D01*
X207298534Y-110056443D01*
X207142009Y-109972778D01*
X207106271Y-109943448D01*
X207004814Y-109860186D01*
X206921552Y-109758729D01*
X206892222Y-109722991D01*
X206808557Y-109566466D01*
X206757037Y-109396627D01*
X206739641Y-109220000D01*
X206757037Y-109043373D01*
X206808557Y-108873534D01*
X206892222Y-108717009D01*
X206921552Y-108681271D01*
X207004814Y-108579814D01*
X207106271Y-108496552D01*
X207142009Y-108467222D01*
X207298534Y-108383557D01*
X207468373Y-108332037D01*
X207534557Y-108325519D01*
X207600740Y-108319000D01*
X207689260Y-108319000D01*
X207755443Y-108325519D01*
X207755443Y-108325519D01*
G37*
G36*
X179180443Y-108325519D02*
G01*
X179246627Y-108332037D01*
X179416466Y-108383557D01*
X179572991Y-108467222D01*
X179608729Y-108496552D01*
X179710186Y-108579814D01*
X179793448Y-108681271D01*
X179822778Y-108717009D01*
X179906443Y-108873534D01*
X179957963Y-109043373D01*
X179975359Y-109220000D01*
X179957963Y-109396627D01*
X179906443Y-109566466D01*
X179822778Y-109722991D01*
X179793448Y-109758729D01*
X179710186Y-109860186D01*
X179608729Y-109943448D01*
X179572991Y-109972778D01*
X179416466Y-110056443D01*
X179246627Y-110107963D01*
X179180443Y-110114481D01*
X179114260Y-110121000D01*
X179025740Y-110121000D01*
X178959557Y-110114481D01*
X178893373Y-110107963D01*
X178723534Y-110056443D01*
X178567009Y-109972778D01*
X178531271Y-109943448D01*
X178429814Y-109860186D01*
X178346552Y-109758729D01*
X178317222Y-109722991D01*
X178233557Y-109566466D01*
X178182037Y-109396627D01*
X178164641Y-109220000D01*
X178182037Y-109043373D01*
X178233557Y-108873534D01*
X178317222Y-108717009D01*
X178346552Y-108681271D01*
X178429814Y-108579814D01*
X178531271Y-108496552D01*
X178567009Y-108467222D01*
X178723534Y-108383557D01*
X178893373Y-108332037D01*
X178959557Y-108325519D01*
X179025740Y-108319000D01*
X179114260Y-108319000D01*
X179180443Y-108325519D01*
X179180443Y-108325519D01*
G37*
G36*
X223051823Y-108381313D02*
G01*
X223212242Y-108429976D01*
X223281922Y-108467221D01*
X223360078Y-108508996D01*
X223489659Y-108615341D01*
X223596004Y-108744922D01*
X223596005Y-108744924D01*
X223675024Y-108892758D01*
X223723687Y-109053177D01*
X223740117Y-109220000D01*
X223723687Y-109386823D01*
X223675024Y-109547242D01*
X223604933Y-109678373D01*
X223596004Y-109695078D01*
X223489659Y-109824659D01*
X223360078Y-109931004D01*
X223360076Y-109931005D01*
X223212242Y-110010024D01*
X223051823Y-110058687D01*
X222926804Y-110071000D01*
X222843196Y-110071000D01*
X222718177Y-110058687D01*
X222557758Y-110010024D01*
X222409924Y-109931005D01*
X222409922Y-109931004D01*
X222280341Y-109824659D01*
X222173996Y-109695078D01*
X222165067Y-109678373D01*
X222094976Y-109547242D01*
X222046313Y-109386823D01*
X222029883Y-109220000D01*
X222046313Y-109053177D01*
X222094976Y-108892758D01*
X222173995Y-108744924D01*
X222173996Y-108744922D01*
X222280341Y-108615341D01*
X222409922Y-108508996D01*
X222488078Y-108467221D01*
X222557758Y-108429976D01*
X222718177Y-108381313D01*
X222843196Y-108369000D01*
X222926804Y-108369000D01*
X223051823Y-108381313D01*
X223051823Y-108381313D01*
G37*
G36*
X215431823Y-108381313D02*
G01*
X215592242Y-108429976D01*
X215661922Y-108467221D01*
X215740078Y-108508996D01*
X215869659Y-108615341D01*
X215976004Y-108744922D01*
X215976005Y-108744924D01*
X216055024Y-108892758D01*
X216103687Y-109053177D01*
X216120117Y-109220000D01*
X216103687Y-109386823D01*
X216055024Y-109547242D01*
X215984933Y-109678373D01*
X215976004Y-109695078D01*
X215869659Y-109824659D01*
X215740078Y-109931004D01*
X215740076Y-109931005D01*
X215592242Y-110010024D01*
X215431823Y-110058687D01*
X215306804Y-110071000D01*
X215223196Y-110071000D01*
X215098177Y-110058687D01*
X214937758Y-110010024D01*
X214789924Y-109931005D01*
X214789922Y-109931004D01*
X214660341Y-109824659D01*
X214553996Y-109695078D01*
X214545067Y-109678373D01*
X214474976Y-109547242D01*
X214426313Y-109386823D01*
X214409883Y-109220000D01*
X214426313Y-109053177D01*
X214474976Y-108892758D01*
X214553995Y-108744924D01*
X214553996Y-108744922D01*
X214660341Y-108615341D01*
X214789922Y-108508996D01*
X214868078Y-108467221D01*
X214937758Y-108429976D01*
X215098177Y-108381313D01*
X215223196Y-108369000D01*
X215306804Y-108369000D01*
X215431823Y-108381313D01*
X215431823Y-108381313D01*
G37*
G36*
X190666823Y-108381313D02*
G01*
X190827242Y-108429976D01*
X190896922Y-108467221D01*
X190975078Y-108508996D01*
X191104659Y-108615341D01*
X191211004Y-108744922D01*
X191211005Y-108744924D01*
X191290024Y-108892758D01*
X191338687Y-109053177D01*
X191355117Y-109220000D01*
X191338687Y-109386823D01*
X191290024Y-109547242D01*
X191219933Y-109678373D01*
X191211004Y-109695078D01*
X191104659Y-109824659D01*
X190975078Y-109931004D01*
X190975076Y-109931005D01*
X190827242Y-110010024D01*
X190666823Y-110058687D01*
X190541804Y-110071000D01*
X190458196Y-110071000D01*
X190333177Y-110058687D01*
X190172758Y-110010024D01*
X190024924Y-109931005D01*
X190024922Y-109931004D01*
X189895341Y-109824659D01*
X189788996Y-109695078D01*
X189780067Y-109678373D01*
X189709976Y-109547242D01*
X189661313Y-109386823D01*
X189644883Y-109220000D01*
X189661313Y-109053177D01*
X189709976Y-108892758D01*
X189788995Y-108744924D01*
X189788996Y-108744922D01*
X189895341Y-108615341D01*
X190024922Y-108508996D01*
X190103078Y-108467221D01*
X190172758Y-108429976D01*
X190333177Y-108381313D01*
X190458196Y-108369000D01*
X190541804Y-108369000D01*
X190666823Y-108381313D01*
X190666823Y-108381313D01*
G37*
G36*
X183046823Y-108381313D02*
G01*
X183207242Y-108429976D01*
X183276922Y-108467221D01*
X183355078Y-108508996D01*
X183484659Y-108615341D01*
X183591004Y-108744922D01*
X183591005Y-108744924D01*
X183670024Y-108892758D01*
X183718687Y-109053177D01*
X183735117Y-109220000D01*
X183718687Y-109386823D01*
X183670024Y-109547242D01*
X183599933Y-109678373D01*
X183591004Y-109695078D01*
X183484659Y-109824659D01*
X183355078Y-109931004D01*
X183355076Y-109931005D01*
X183207242Y-110010024D01*
X183046823Y-110058687D01*
X182921804Y-110071000D01*
X182838196Y-110071000D01*
X182713177Y-110058687D01*
X182552758Y-110010024D01*
X182404924Y-109931005D01*
X182404922Y-109931004D01*
X182275341Y-109824659D01*
X182168996Y-109695078D01*
X182160067Y-109678373D01*
X182089976Y-109547242D01*
X182041313Y-109386823D01*
X182024883Y-109220000D01*
X182041313Y-109053177D01*
X182089976Y-108892758D01*
X182168995Y-108744924D01*
X182168996Y-108744922D01*
X182275341Y-108615341D01*
X182404922Y-108508996D01*
X182483078Y-108467221D01*
X182552758Y-108429976D01*
X182713177Y-108381313D01*
X182838196Y-108369000D01*
X182921804Y-108369000D01*
X183046823Y-108381313D01*
X183046823Y-108381313D01*
G37*
G36*
X168385443Y-107690519D02*
G01*
X168451627Y-107697037D01*
X168621466Y-107748557D01*
X168777991Y-107832222D01*
X168813729Y-107861552D01*
X168915186Y-107944814D01*
X168998448Y-108046271D01*
X169027778Y-108082009D01*
X169111443Y-108238534D01*
X169162963Y-108408373D01*
X169180359Y-108585000D01*
X169162963Y-108761627D01*
X169111443Y-108931466D01*
X169027778Y-109087991D01*
X168998448Y-109123729D01*
X168915186Y-109225186D01*
X168813729Y-109308448D01*
X168777991Y-109337778D01*
X168621466Y-109421443D01*
X168451627Y-109472963D01*
X168385442Y-109479482D01*
X168319260Y-109486000D01*
X168230740Y-109486000D01*
X168164558Y-109479482D01*
X168098373Y-109472963D01*
X167928534Y-109421443D01*
X167772009Y-109337778D01*
X167736271Y-109308448D01*
X167634814Y-109225186D01*
X167551552Y-109123729D01*
X167522222Y-109087991D01*
X167438557Y-108931466D01*
X167387037Y-108761627D01*
X167369641Y-108585000D01*
X167387037Y-108408373D01*
X167438557Y-108238534D01*
X167522222Y-108082009D01*
X167551552Y-108046271D01*
X167634814Y-107944814D01*
X167736271Y-107861552D01*
X167772009Y-107832222D01*
X167928534Y-107748557D01*
X168098373Y-107697037D01*
X168164557Y-107690519D01*
X168230740Y-107684000D01*
X168319260Y-107684000D01*
X168385443Y-107690519D01*
X168385443Y-107690519D01*
G37*
G36*
X170925443Y-107690519D02*
G01*
X170991627Y-107697037D01*
X171161466Y-107748557D01*
X171317991Y-107832222D01*
X171353729Y-107861552D01*
X171455186Y-107944814D01*
X171538448Y-108046271D01*
X171567778Y-108082009D01*
X171651443Y-108238534D01*
X171702963Y-108408373D01*
X171720359Y-108585000D01*
X171702963Y-108761627D01*
X171651443Y-108931466D01*
X171567778Y-109087991D01*
X171538448Y-109123729D01*
X171455186Y-109225186D01*
X171353729Y-109308448D01*
X171317991Y-109337778D01*
X171161466Y-109421443D01*
X170991627Y-109472963D01*
X170925442Y-109479482D01*
X170859260Y-109486000D01*
X170770740Y-109486000D01*
X170704558Y-109479482D01*
X170638373Y-109472963D01*
X170468534Y-109421443D01*
X170312009Y-109337778D01*
X170276271Y-109308448D01*
X170174814Y-109225186D01*
X170091552Y-109123729D01*
X170062222Y-109087991D01*
X169978557Y-108931466D01*
X169927037Y-108761627D01*
X169909641Y-108585000D01*
X169927037Y-108408373D01*
X169978557Y-108238534D01*
X170062222Y-108082009D01*
X170091552Y-108046271D01*
X170174814Y-107944814D01*
X170276271Y-107861552D01*
X170312009Y-107832222D01*
X170468534Y-107748557D01*
X170638373Y-107697037D01*
X170704557Y-107690519D01*
X170770740Y-107684000D01*
X170859260Y-107684000D01*
X170925443Y-107690519D01*
X170925443Y-107690519D01*
G37*
G36*
X228075443Y-107690519D02*
G01*
X228141627Y-107697037D01*
X228311466Y-107748557D01*
X228467991Y-107832222D01*
X228503729Y-107861552D01*
X228605186Y-107944814D01*
X228688448Y-108046271D01*
X228717778Y-108082009D01*
X228801443Y-108238534D01*
X228852963Y-108408373D01*
X228870359Y-108585000D01*
X228852963Y-108761627D01*
X228801443Y-108931466D01*
X228717778Y-109087991D01*
X228688448Y-109123729D01*
X228605186Y-109225186D01*
X228503729Y-109308448D01*
X228467991Y-109337778D01*
X228311466Y-109421443D01*
X228141627Y-109472963D01*
X228075442Y-109479482D01*
X228009260Y-109486000D01*
X227920740Y-109486000D01*
X227854558Y-109479482D01*
X227788373Y-109472963D01*
X227618534Y-109421443D01*
X227462009Y-109337778D01*
X227426271Y-109308448D01*
X227324814Y-109225186D01*
X227241552Y-109123729D01*
X227212222Y-109087991D01*
X227128557Y-108931466D01*
X227077037Y-108761627D01*
X227059641Y-108585000D01*
X227077037Y-108408373D01*
X227128557Y-108238534D01*
X227212222Y-108082009D01*
X227241552Y-108046271D01*
X227324814Y-107944814D01*
X227426271Y-107861552D01*
X227462009Y-107832222D01*
X227618534Y-107748557D01*
X227788373Y-107697037D01*
X227854557Y-107690519D01*
X227920740Y-107684000D01*
X228009260Y-107684000D01*
X228075443Y-107690519D01*
X228075443Y-107690519D01*
G37*
G36*
X196960442Y-107055518D02*
G01*
X197026627Y-107062037D01*
X197196466Y-107113557D01*
X197352991Y-107197222D01*
X197388729Y-107226552D01*
X197490186Y-107309814D01*
X197573448Y-107411271D01*
X197602778Y-107447009D01*
X197686443Y-107603534D01*
X197737963Y-107773373D01*
X197755359Y-107950000D01*
X197737963Y-108126627D01*
X197686443Y-108296466D01*
X197602778Y-108452991D01*
X197573448Y-108488729D01*
X197490186Y-108590186D01*
X197388729Y-108673448D01*
X197352991Y-108702778D01*
X197196466Y-108786443D01*
X197026627Y-108837963D01*
X196960442Y-108844482D01*
X196894260Y-108851000D01*
X196805740Y-108851000D01*
X196739558Y-108844482D01*
X196673373Y-108837963D01*
X196503534Y-108786443D01*
X196347009Y-108702778D01*
X196311271Y-108673448D01*
X196209814Y-108590186D01*
X196126552Y-108488729D01*
X196097222Y-108452991D01*
X196013557Y-108296466D01*
X195962037Y-108126627D01*
X195944641Y-107950000D01*
X195962037Y-107773373D01*
X196013557Y-107603534D01*
X196097222Y-107447009D01*
X196126552Y-107411271D01*
X196209814Y-107309814D01*
X196311271Y-107226552D01*
X196347009Y-107197222D01*
X196503534Y-107113557D01*
X196673373Y-107062037D01*
X196739558Y-107055518D01*
X196805740Y-107049000D01*
X196894260Y-107049000D01*
X196960442Y-107055518D01*
X196960442Y-107055518D01*
G37*
G36*
X211565443Y-106420519D02*
G01*
X211631627Y-106427037D01*
X211801466Y-106478557D01*
X211957991Y-106562222D01*
X211993729Y-106591552D01*
X212095186Y-106674814D01*
X212178448Y-106776271D01*
X212207778Y-106812009D01*
X212291443Y-106968534D01*
X212342963Y-107138373D01*
X212360359Y-107315000D01*
X212342963Y-107491627D01*
X212291443Y-107661466D01*
X212207778Y-107817991D01*
X212178448Y-107853729D01*
X212095186Y-107955186D01*
X211993729Y-108038448D01*
X211957991Y-108067778D01*
X211801466Y-108151443D01*
X211631627Y-108202963D01*
X211565443Y-108209481D01*
X211499260Y-108216000D01*
X211410740Y-108216000D01*
X211344557Y-108209481D01*
X211278373Y-108202963D01*
X211108534Y-108151443D01*
X210952009Y-108067778D01*
X210916271Y-108038448D01*
X210814814Y-107955186D01*
X210731552Y-107853729D01*
X210702222Y-107817991D01*
X210618557Y-107661466D01*
X210567037Y-107491627D01*
X210549641Y-107315000D01*
X210567037Y-107138373D01*
X210618557Y-106968534D01*
X210702222Y-106812009D01*
X210731552Y-106776271D01*
X210814814Y-106674814D01*
X210916271Y-106591552D01*
X210952009Y-106562222D01*
X211108534Y-106478557D01*
X211278373Y-106427037D01*
X211344557Y-106420519D01*
X211410740Y-106414000D01*
X211499260Y-106414000D01*
X211565443Y-106420519D01*
X211565443Y-106420519D01*
G37*
G36*
X179971000Y-107581000D02*
G01*
X178169000Y-107581000D01*
X178169000Y-105779000D01*
X179971000Y-105779000D01*
X179971000Y-107581000D01*
X179971000Y-107581000D01*
G37*
G36*
X207755443Y-105785519D02*
G01*
X207821627Y-105792037D01*
X207991466Y-105843557D01*
X208147991Y-105927222D01*
X208183729Y-105956552D01*
X208285186Y-106039814D01*
X208368448Y-106141271D01*
X208397778Y-106177009D01*
X208481443Y-106333534D01*
X208532963Y-106503373D01*
X208550359Y-106680000D01*
X208532963Y-106856627D01*
X208481443Y-107026466D01*
X208397778Y-107182991D01*
X208368448Y-107218729D01*
X208285186Y-107320186D01*
X208183729Y-107403448D01*
X208147991Y-107432778D01*
X207991466Y-107516443D01*
X207821627Y-107567963D01*
X207755443Y-107574481D01*
X207689260Y-107581000D01*
X207600740Y-107581000D01*
X207534557Y-107574481D01*
X207468373Y-107567963D01*
X207298534Y-107516443D01*
X207142009Y-107432778D01*
X207106271Y-107403448D01*
X207004814Y-107320186D01*
X206921552Y-107218729D01*
X206892222Y-107182991D01*
X206808557Y-107026466D01*
X206757037Y-106856627D01*
X206739641Y-106680000D01*
X206757037Y-106503373D01*
X206808557Y-106333534D01*
X206892222Y-106177009D01*
X206921552Y-106141271D01*
X207004814Y-106039814D01*
X207106271Y-105956552D01*
X207142009Y-105927222D01*
X207298534Y-105843557D01*
X207468373Y-105792037D01*
X207534557Y-105785519D01*
X207600740Y-105779000D01*
X207689260Y-105779000D01*
X207755443Y-105785519D01*
X207755443Y-105785519D01*
G37*
G36*
X204101000Y-107581000D02*
G01*
X202299000Y-107581000D01*
X202299000Y-105779000D01*
X204101000Y-105779000D01*
X204101000Y-107581000D01*
X204101000Y-107581000D01*
G37*
G36*
X223051823Y-105841313D02*
G01*
X223212242Y-105889976D01*
X223281922Y-105927221D01*
X223360078Y-105968996D01*
X223489659Y-106075341D01*
X223596004Y-106204922D01*
X223596005Y-106204924D01*
X223675024Y-106352758D01*
X223723687Y-106513177D01*
X223740117Y-106680000D01*
X223723687Y-106846823D01*
X223675024Y-107007242D01*
X223645735Y-107062037D01*
X223596004Y-107155078D01*
X223489659Y-107284659D01*
X223360078Y-107391004D01*
X223360076Y-107391005D01*
X223212242Y-107470024D01*
X223051823Y-107518687D01*
X222926804Y-107531000D01*
X222843196Y-107531000D01*
X222718177Y-107518687D01*
X222557758Y-107470024D01*
X222409924Y-107391005D01*
X222409922Y-107391004D01*
X222280341Y-107284659D01*
X222173996Y-107155078D01*
X222124265Y-107062037D01*
X222094976Y-107007242D01*
X222046313Y-106846823D01*
X222029883Y-106680000D01*
X222046313Y-106513177D01*
X222094976Y-106352758D01*
X222173995Y-106204924D01*
X222173996Y-106204922D01*
X222280341Y-106075341D01*
X222409922Y-105968996D01*
X222488078Y-105927221D01*
X222557758Y-105889976D01*
X222718177Y-105841313D01*
X222843196Y-105829000D01*
X222926804Y-105829000D01*
X223051823Y-105841313D01*
X223051823Y-105841313D01*
G37*
G36*
X183046823Y-105841313D02*
G01*
X183207242Y-105889976D01*
X183276922Y-105927221D01*
X183355078Y-105968996D01*
X183484659Y-106075341D01*
X183591004Y-106204922D01*
X183591005Y-106204924D01*
X183670024Y-106352758D01*
X183718687Y-106513177D01*
X183735117Y-106680000D01*
X183718687Y-106846823D01*
X183670024Y-107007242D01*
X183640735Y-107062037D01*
X183591004Y-107155078D01*
X183484659Y-107284659D01*
X183355078Y-107391004D01*
X183355076Y-107391005D01*
X183207242Y-107470024D01*
X183046823Y-107518687D01*
X182921804Y-107531000D01*
X182838196Y-107531000D01*
X182713177Y-107518687D01*
X182552758Y-107470024D01*
X182404924Y-107391005D01*
X182404922Y-107391004D01*
X182275341Y-107284659D01*
X182168996Y-107155078D01*
X182119265Y-107062037D01*
X182089976Y-107007242D01*
X182041313Y-106846823D01*
X182024883Y-106680000D01*
X182041313Y-106513177D01*
X182089976Y-106352758D01*
X182168995Y-106204924D01*
X182168996Y-106204922D01*
X182275341Y-106075341D01*
X182404922Y-105968996D01*
X182483078Y-105927221D01*
X182552758Y-105889976D01*
X182713177Y-105841313D01*
X182838196Y-105829000D01*
X182921804Y-105829000D01*
X183046823Y-105841313D01*
X183046823Y-105841313D01*
G37*
G36*
X215431823Y-105841313D02*
G01*
X215592242Y-105889976D01*
X215661922Y-105927221D01*
X215740078Y-105968996D01*
X215869659Y-106075341D01*
X215976004Y-106204922D01*
X215976005Y-106204924D01*
X216055024Y-106352758D01*
X216103687Y-106513177D01*
X216120117Y-106680000D01*
X216103687Y-106846823D01*
X216055024Y-107007242D01*
X216025735Y-107062037D01*
X215976004Y-107155078D01*
X215869659Y-107284659D01*
X215740078Y-107391004D01*
X215740076Y-107391005D01*
X215592242Y-107470024D01*
X215431823Y-107518687D01*
X215306804Y-107531000D01*
X215223196Y-107531000D01*
X215098177Y-107518687D01*
X214937758Y-107470024D01*
X214789924Y-107391005D01*
X214789922Y-107391004D01*
X214660341Y-107284659D01*
X214553996Y-107155078D01*
X214504265Y-107062037D01*
X214474976Y-107007242D01*
X214426313Y-106846823D01*
X214409883Y-106680000D01*
X214426313Y-106513177D01*
X214474976Y-106352758D01*
X214553995Y-106204924D01*
X214553996Y-106204922D01*
X214660341Y-106075341D01*
X214789922Y-105968996D01*
X214868078Y-105927221D01*
X214937758Y-105889976D01*
X215098177Y-105841313D01*
X215223196Y-105829000D01*
X215306804Y-105829000D01*
X215431823Y-105841313D01*
X215431823Y-105841313D01*
G37*
G36*
X190666823Y-105841313D02*
G01*
X190827242Y-105889976D01*
X190896922Y-105927221D01*
X190975078Y-105968996D01*
X191104659Y-106075341D01*
X191211004Y-106204922D01*
X191211005Y-106204924D01*
X191290024Y-106352758D01*
X191338687Y-106513177D01*
X191355117Y-106680000D01*
X191338687Y-106846823D01*
X191290024Y-107007242D01*
X191260735Y-107062037D01*
X191211004Y-107155078D01*
X191104659Y-107284659D01*
X190975078Y-107391004D01*
X190975076Y-107391005D01*
X190827242Y-107470024D01*
X190666823Y-107518687D01*
X190541804Y-107531000D01*
X190458196Y-107531000D01*
X190333177Y-107518687D01*
X190172758Y-107470024D01*
X190024924Y-107391005D01*
X190024922Y-107391004D01*
X189895341Y-107284659D01*
X189788996Y-107155078D01*
X189739265Y-107062037D01*
X189709976Y-107007242D01*
X189661313Y-106846823D01*
X189644883Y-106680000D01*
X189661313Y-106513177D01*
X189709976Y-106352758D01*
X189788995Y-106204924D01*
X189788996Y-106204922D01*
X189895341Y-106075341D01*
X190024922Y-105968996D01*
X190103078Y-105927221D01*
X190172758Y-105889976D01*
X190333177Y-105841313D01*
X190458196Y-105829000D01*
X190541804Y-105829000D01*
X190666823Y-105841313D01*
X190666823Y-105841313D01*
G37*
G36*
X170925443Y-105150519D02*
G01*
X170991627Y-105157037D01*
X171161466Y-105208557D01*
X171317991Y-105292222D01*
X171353729Y-105321552D01*
X171455186Y-105404814D01*
X171538448Y-105506271D01*
X171567778Y-105542009D01*
X171651443Y-105698534D01*
X171702963Y-105868373D01*
X171720359Y-106045000D01*
X171702963Y-106221627D01*
X171651443Y-106391466D01*
X171567778Y-106547991D01*
X171538448Y-106583729D01*
X171455186Y-106685186D01*
X171353729Y-106768448D01*
X171317991Y-106797778D01*
X171161466Y-106881443D01*
X170991627Y-106932963D01*
X170925442Y-106939482D01*
X170859260Y-106946000D01*
X170770740Y-106946000D01*
X170704558Y-106939482D01*
X170638373Y-106932963D01*
X170468534Y-106881443D01*
X170312009Y-106797778D01*
X170276271Y-106768448D01*
X170174814Y-106685186D01*
X170091552Y-106583729D01*
X170062222Y-106547991D01*
X169978557Y-106391466D01*
X169927037Y-106221627D01*
X169909641Y-106045000D01*
X169927037Y-105868373D01*
X169978557Y-105698534D01*
X170062222Y-105542009D01*
X170091552Y-105506271D01*
X170174814Y-105404814D01*
X170276271Y-105321552D01*
X170312009Y-105292222D01*
X170468534Y-105208557D01*
X170638373Y-105157037D01*
X170704558Y-105150518D01*
X170770740Y-105144000D01*
X170859260Y-105144000D01*
X170925443Y-105150519D01*
X170925443Y-105150519D01*
G37*
G36*
X168385443Y-105150519D02*
G01*
X168451627Y-105157037D01*
X168621466Y-105208557D01*
X168777991Y-105292222D01*
X168813729Y-105321552D01*
X168915186Y-105404814D01*
X168998448Y-105506271D01*
X169027778Y-105542009D01*
X169111443Y-105698534D01*
X169162963Y-105868373D01*
X169180359Y-106045000D01*
X169162963Y-106221627D01*
X169111443Y-106391466D01*
X169027778Y-106547991D01*
X168998448Y-106583729D01*
X168915186Y-106685186D01*
X168813729Y-106768448D01*
X168777991Y-106797778D01*
X168621466Y-106881443D01*
X168451627Y-106932963D01*
X168385442Y-106939482D01*
X168319260Y-106946000D01*
X168230740Y-106946000D01*
X168164558Y-106939482D01*
X168098373Y-106932963D01*
X167928534Y-106881443D01*
X167772009Y-106797778D01*
X167736271Y-106768448D01*
X167634814Y-106685186D01*
X167551552Y-106583729D01*
X167522222Y-106547991D01*
X167438557Y-106391466D01*
X167387037Y-106221627D01*
X167369641Y-106045000D01*
X167387037Y-105868373D01*
X167438557Y-105698534D01*
X167522222Y-105542009D01*
X167551552Y-105506271D01*
X167634814Y-105404814D01*
X167736271Y-105321552D01*
X167772009Y-105292222D01*
X167928534Y-105208557D01*
X168098373Y-105157037D01*
X168164558Y-105150518D01*
X168230740Y-105144000D01*
X168319260Y-105144000D01*
X168385443Y-105150519D01*
X168385443Y-105150519D01*
G37*
G36*
X196960443Y-104515519D02*
G01*
X197026627Y-104522037D01*
X197196466Y-104573557D01*
X197352991Y-104657222D01*
X197388729Y-104686552D01*
X197490186Y-104769814D01*
X197573448Y-104871271D01*
X197602778Y-104907009D01*
X197686443Y-105063534D01*
X197737963Y-105233373D01*
X197755359Y-105410000D01*
X197737963Y-105586627D01*
X197686443Y-105756466D01*
X197602778Y-105912991D01*
X197573448Y-105948729D01*
X197490186Y-106050186D01*
X197388729Y-106133448D01*
X197352991Y-106162778D01*
X197196466Y-106246443D01*
X197026627Y-106297963D01*
X196960442Y-106304482D01*
X196894260Y-106311000D01*
X196805740Y-106311000D01*
X196739558Y-106304482D01*
X196673373Y-106297963D01*
X196503534Y-106246443D01*
X196347009Y-106162778D01*
X196311271Y-106133448D01*
X196209814Y-106050186D01*
X196126552Y-105948729D01*
X196097222Y-105912991D01*
X196013557Y-105756466D01*
X195962037Y-105586627D01*
X195944641Y-105410000D01*
X195962037Y-105233373D01*
X196013557Y-105063534D01*
X196097222Y-104907009D01*
X196126552Y-104871271D01*
X196209814Y-104769814D01*
X196311271Y-104686552D01*
X196347009Y-104657222D01*
X196503534Y-104573557D01*
X196673373Y-104522037D01*
X196739557Y-104515519D01*
X196805740Y-104509000D01*
X196894260Y-104509000D01*
X196960443Y-104515519D01*
X196960443Y-104515519D01*
G37*
G36*
X211565443Y-103880519D02*
G01*
X211631627Y-103887037D01*
X211801466Y-103938557D01*
X211957991Y-104022222D01*
X211993729Y-104051552D01*
X212095186Y-104134814D01*
X212178448Y-104236271D01*
X212207778Y-104272009D01*
X212291443Y-104428534D01*
X212342963Y-104598373D01*
X212360359Y-104775000D01*
X212342963Y-104951627D01*
X212291443Y-105121466D01*
X212207778Y-105277991D01*
X212178448Y-105313729D01*
X212095186Y-105415186D01*
X211993729Y-105498448D01*
X211957991Y-105527778D01*
X211801466Y-105611443D01*
X211631627Y-105662963D01*
X211565443Y-105669481D01*
X211499260Y-105676000D01*
X211410740Y-105676000D01*
X211344557Y-105669481D01*
X211278373Y-105662963D01*
X211108534Y-105611443D01*
X210952009Y-105527778D01*
X210916271Y-105498448D01*
X210814814Y-105415186D01*
X210731552Y-105313729D01*
X210702222Y-105277991D01*
X210618557Y-105121466D01*
X210567037Y-104951627D01*
X210549641Y-104775000D01*
X210567037Y-104598373D01*
X210618557Y-104428534D01*
X210702222Y-104272009D01*
X210731552Y-104236271D01*
X210814814Y-104134814D01*
X210916271Y-104051552D01*
X210952009Y-104022222D01*
X211108534Y-103938557D01*
X211278373Y-103887037D01*
X211344557Y-103880519D01*
X211410740Y-103874000D01*
X211499260Y-103874000D01*
X211565443Y-103880519D01*
X211565443Y-103880519D01*
G37*
G36*
X228866000Y-105676000D02*
G01*
X227064000Y-105676000D01*
X227064000Y-103874000D01*
X228866000Y-103874000D01*
X228866000Y-105676000D01*
X228866000Y-105676000D01*
G37*
G36*
X203310443Y-103245519D02*
G01*
X203376627Y-103252037D01*
X203546466Y-103303557D01*
X203702991Y-103387222D01*
X203738729Y-103416552D01*
X203840186Y-103499814D01*
X203923448Y-103601271D01*
X203952778Y-103637009D01*
X204036443Y-103793534D01*
X204087963Y-103963373D01*
X204105359Y-104140000D01*
X204087963Y-104316627D01*
X204036443Y-104486466D01*
X203952778Y-104642991D01*
X203923448Y-104678729D01*
X203840186Y-104780186D01*
X203738729Y-104863448D01*
X203702991Y-104892778D01*
X203546466Y-104976443D01*
X203376627Y-105027963D01*
X203310442Y-105034482D01*
X203244260Y-105041000D01*
X203155740Y-105041000D01*
X203089557Y-105034481D01*
X203023373Y-105027963D01*
X202853534Y-104976443D01*
X202697009Y-104892778D01*
X202661271Y-104863448D01*
X202559814Y-104780186D01*
X202476552Y-104678729D01*
X202447222Y-104642991D01*
X202363557Y-104486466D01*
X202312037Y-104316627D01*
X202294641Y-104140000D01*
X202312037Y-103963373D01*
X202363557Y-103793534D01*
X202447222Y-103637009D01*
X202476552Y-103601271D01*
X202559814Y-103499814D01*
X202661271Y-103416552D01*
X202697009Y-103387222D01*
X202853534Y-103303557D01*
X203023373Y-103252037D01*
X203089558Y-103245518D01*
X203155740Y-103239000D01*
X203244260Y-103239000D01*
X203310443Y-103245519D01*
X203310443Y-103245519D01*
G37*
G36*
X207755443Y-103245519D02*
G01*
X207821627Y-103252037D01*
X207991466Y-103303557D01*
X208147991Y-103387222D01*
X208183729Y-103416552D01*
X208285186Y-103499814D01*
X208368448Y-103601271D01*
X208397778Y-103637009D01*
X208481443Y-103793534D01*
X208532963Y-103963373D01*
X208550359Y-104140000D01*
X208532963Y-104316627D01*
X208481443Y-104486466D01*
X208397778Y-104642991D01*
X208368448Y-104678729D01*
X208285186Y-104780186D01*
X208183729Y-104863448D01*
X208147991Y-104892778D01*
X207991466Y-104976443D01*
X207821627Y-105027963D01*
X207755442Y-105034482D01*
X207689260Y-105041000D01*
X207600740Y-105041000D01*
X207534557Y-105034481D01*
X207468373Y-105027963D01*
X207298534Y-104976443D01*
X207142009Y-104892778D01*
X207106271Y-104863448D01*
X207004814Y-104780186D01*
X206921552Y-104678729D01*
X206892222Y-104642991D01*
X206808557Y-104486466D01*
X206757037Y-104316627D01*
X206739641Y-104140000D01*
X206757037Y-103963373D01*
X206808557Y-103793534D01*
X206892222Y-103637009D01*
X206921552Y-103601271D01*
X207004814Y-103499814D01*
X207106271Y-103416552D01*
X207142009Y-103387222D01*
X207298534Y-103303557D01*
X207468373Y-103252037D01*
X207534558Y-103245518D01*
X207600740Y-103239000D01*
X207689260Y-103239000D01*
X207755443Y-103245519D01*
X207755443Y-103245519D01*
G37*
G36*
X223051823Y-103301313D02*
G01*
X223212242Y-103349976D01*
X223281922Y-103387221D01*
X223360078Y-103428996D01*
X223489659Y-103535341D01*
X223596004Y-103664922D01*
X223596005Y-103664924D01*
X223675024Y-103812758D01*
X223723687Y-103973177D01*
X223740117Y-104140000D01*
X223723687Y-104306823D01*
X223675024Y-104467242D01*
X223645735Y-104522037D01*
X223596004Y-104615078D01*
X223489659Y-104744659D01*
X223360078Y-104851004D01*
X223360076Y-104851005D01*
X223212242Y-104930024D01*
X223051823Y-104978687D01*
X222926804Y-104991000D01*
X222843196Y-104991000D01*
X222718177Y-104978687D01*
X222557758Y-104930024D01*
X222409924Y-104851005D01*
X222409922Y-104851004D01*
X222280341Y-104744659D01*
X222173996Y-104615078D01*
X222124265Y-104522037D01*
X222094976Y-104467242D01*
X222046313Y-104306823D01*
X222029883Y-104140000D01*
X222046313Y-103973177D01*
X222094976Y-103812758D01*
X222173995Y-103664924D01*
X222173996Y-103664922D01*
X222280341Y-103535341D01*
X222409922Y-103428996D01*
X222488078Y-103387221D01*
X222557758Y-103349976D01*
X222718177Y-103301313D01*
X222843196Y-103289000D01*
X222926804Y-103289000D01*
X223051823Y-103301313D01*
X223051823Y-103301313D01*
G37*
G36*
X215431823Y-103301313D02*
G01*
X215592242Y-103349976D01*
X215661922Y-103387221D01*
X215740078Y-103428996D01*
X215869659Y-103535341D01*
X215976004Y-103664922D01*
X215976005Y-103664924D01*
X216055024Y-103812758D01*
X216103687Y-103973177D01*
X216120117Y-104140000D01*
X216103687Y-104306823D01*
X216055024Y-104467242D01*
X216025735Y-104522037D01*
X215976004Y-104615078D01*
X215869659Y-104744659D01*
X215740078Y-104851004D01*
X215740076Y-104851005D01*
X215592242Y-104930024D01*
X215431823Y-104978687D01*
X215306804Y-104991000D01*
X215223196Y-104991000D01*
X215098177Y-104978687D01*
X214937758Y-104930024D01*
X214789924Y-104851005D01*
X214789922Y-104851004D01*
X214660341Y-104744659D01*
X214553996Y-104615078D01*
X214504265Y-104522037D01*
X214474976Y-104467242D01*
X214426313Y-104306823D01*
X214409883Y-104140000D01*
X214426313Y-103973177D01*
X214474976Y-103812758D01*
X214553995Y-103664924D01*
X214553996Y-103664922D01*
X214660341Y-103535341D01*
X214789922Y-103428996D01*
X214868078Y-103387221D01*
X214937758Y-103349976D01*
X215098177Y-103301313D01*
X215223196Y-103289000D01*
X215306804Y-103289000D01*
X215431823Y-103301313D01*
X215431823Y-103301313D01*
G37*
G36*
X190666823Y-103301313D02*
G01*
X190827242Y-103349976D01*
X190896922Y-103387221D01*
X190975078Y-103428996D01*
X191104659Y-103535341D01*
X191211004Y-103664922D01*
X191211005Y-103664924D01*
X191290024Y-103812758D01*
X191338687Y-103973177D01*
X191355117Y-104140000D01*
X191338687Y-104306823D01*
X191290024Y-104467242D01*
X191260735Y-104522037D01*
X191211004Y-104615078D01*
X191104659Y-104744659D01*
X190975078Y-104851004D01*
X190975076Y-104851005D01*
X190827242Y-104930024D01*
X190666823Y-104978687D01*
X190541804Y-104991000D01*
X190458196Y-104991000D01*
X190333177Y-104978687D01*
X190172758Y-104930024D01*
X190024924Y-104851005D01*
X190024922Y-104851004D01*
X189895341Y-104744659D01*
X189788996Y-104615078D01*
X189739265Y-104522037D01*
X189709976Y-104467242D01*
X189661313Y-104306823D01*
X189644883Y-104140000D01*
X189661313Y-103973177D01*
X189709976Y-103812758D01*
X189788995Y-103664924D01*
X189788996Y-103664922D01*
X189895341Y-103535341D01*
X190024922Y-103428996D01*
X190103078Y-103387221D01*
X190172758Y-103349976D01*
X190333177Y-103301313D01*
X190458196Y-103289000D01*
X190541804Y-103289000D01*
X190666823Y-103301313D01*
X190666823Y-103301313D01*
G37*
G36*
X183046823Y-103301313D02*
G01*
X183207242Y-103349976D01*
X183276922Y-103387221D01*
X183355078Y-103428996D01*
X183484659Y-103535341D01*
X183591004Y-103664922D01*
X183591005Y-103664924D01*
X183670024Y-103812758D01*
X183718687Y-103973177D01*
X183735117Y-104140000D01*
X183718687Y-104306823D01*
X183670024Y-104467242D01*
X183640735Y-104522037D01*
X183591004Y-104615078D01*
X183484659Y-104744659D01*
X183355078Y-104851004D01*
X183355076Y-104851005D01*
X183207242Y-104930024D01*
X183046823Y-104978687D01*
X182921804Y-104991000D01*
X182838196Y-104991000D01*
X182713177Y-104978687D01*
X182552758Y-104930024D01*
X182404924Y-104851005D01*
X182404922Y-104851004D01*
X182275341Y-104744659D01*
X182168996Y-104615078D01*
X182119265Y-104522037D01*
X182089976Y-104467242D01*
X182041313Y-104306823D01*
X182024883Y-104140000D01*
X182041313Y-103973177D01*
X182089976Y-103812758D01*
X182168995Y-103664924D01*
X182168996Y-103664922D01*
X182275341Y-103535341D01*
X182404922Y-103428996D01*
X182483078Y-103387221D01*
X182552758Y-103349976D01*
X182713177Y-103301313D01*
X182838196Y-103289000D01*
X182921804Y-103289000D01*
X183046823Y-103301313D01*
X183046823Y-103301313D01*
G37*
G36*
X212356000Y-103136000D02*
G01*
X210554000Y-103136000D01*
X210554000Y-101334000D01*
X212356000Y-101334000D01*
X212356000Y-103136000D01*
X212356000Y-103136000D01*
G37*
G36*
X207755443Y-100705519D02*
G01*
X207821627Y-100712037D01*
X207991466Y-100763557D01*
X208147991Y-100847222D01*
X208183729Y-100876552D01*
X208285186Y-100959814D01*
X208368448Y-101061271D01*
X208397778Y-101097009D01*
X208481443Y-101253534D01*
X208532963Y-101423373D01*
X208550359Y-101600000D01*
X208532963Y-101776627D01*
X208481443Y-101946466D01*
X208397778Y-102102991D01*
X208368448Y-102138729D01*
X208285186Y-102240186D01*
X208183729Y-102323448D01*
X208147991Y-102352778D01*
X207991466Y-102436443D01*
X207821627Y-102487963D01*
X207755442Y-102494482D01*
X207689260Y-102501000D01*
X207600740Y-102501000D01*
X207534558Y-102494482D01*
X207468373Y-102487963D01*
X207298534Y-102436443D01*
X207142009Y-102352778D01*
X207106271Y-102323448D01*
X207004814Y-102240186D01*
X206921552Y-102138729D01*
X206892222Y-102102991D01*
X206808557Y-101946466D01*
X206757037Y-101776627D01*
X206739641Y-101600000D01*
X206757037Y-101423373D01*
X206808557Y-101253534D01*
X206892222Y-101097009D01*
X206921552Y-101061271D01*
X207004814Y-100959814D01*
X207106271Y-100876552D01*
X207142009Y-100847222D01*
X207298534Y-100763557D01*
X207468373Y-100712037D01*
X207534557Y-100705519D01*
X207600740Y-100699000D01*
X207689260Y-100699000D01*
X207755443Y-100705519D01*
X207755443Y-100705519D01*
G37*
G36*
X190666823Y-100761313D02*
G01*
X190827242Y-100809976D01*
X190896922Y-100847221D01*
X190975078Y-100888996D01*
X191104659Y-100995341D01*
X191211004Y-101124922D01*
X191211005Y-101124924D01*
X191290024Y-101272758D01*
X191338687Y-101433177D01*
X191355117Y-101600000D01*
X191338687Y-101766823D01*
X191290024Y-101927242D01*
X191279747Y-101946468D01*
X191211004Y-102075078D01*
X191104659Y-102204659D01*
X190975078Y-102311004D01*
X190975076Y-102311005D01*
X190827242Y-102390024D01*
X190666823Y-102438687D01*
X190541804Y-102451000D01*
X190458196Y-102451000D01*
X190333177Y-102438687D01*
X190172758Y-102390024D01*
X190024924Y-102311005D01*
X190024922Y-102311004D01*
X189895341Y-102204659D01*
X189788996Y-102075078D01*
X189720253Y-101946468D01*
X189709976Y-101927242D01*
X189661313Y-101766823D01*
X189644883Y-101600000D01*
X189661313Y-101433177D01*
X189709976Y-101272758D01*
X189788995Y-101124924D01*
X189788996Y-101124922D01*
X189895341Y-100995341D01*
X190024922Y-100888996D01*
X190103078Y-100847221D01*
X190172758Y-100809976D01*
X190333177Y-100761313D01*
X190458196Y-100749000D01*
X190541804Y-100749000D01*
X190666823Y-100761313D01*
X190666823Y-100761313D01*
G37*
G36*
X223051823Y-100761313D02*
G01*
X223212242Y-100809976D01*
X223281922Y-100847221D01*
X223360078Y-100888996D01*
X223489659Y-100995341D01*
X223596004Y-101124922D01*
X223596005Y-101124924D01*
X223675024Y-101272758D01*
X223723687Y-101433177D01*
X223740117Y-101600000D01*
X223723687Y-101766823D01*
X223675024Y-101927242D01*
X223664747Y-101946468D01*
X223596004Y-102075078D01*
X223489659Y-102204659D01*
X223360078Y-102311004D01*
X223360076Y-102311005D01*
X223212242Y-102390024D01*
X223051823Y-102438687D01*
X222926804Y-102451000D01*
X222843196Y-102451000D01*
X222718177Y-102438687D01*
X222557758Y-102390024D01*
X222409924Y-102311005D01*
X222409922Y-102311004D01*
X222280341Y-102204659D01*
X222173996Y-102075078D01*
X222105253Y-101946468D01*
X222094976Y-101927242D01*
X222046313Y-101766823D01*
X222029883Y-101600000D01*
X222046313Y-101433177D01*
X222094976Y-101272758D01*
X222173995Y-101124924D01*
X222173996Y-101124922D01*
X222280341Y-100995341D01*
X222409922Y-100888996D01*
X222488078Y-100847221D01*
X222557758Y-100809976D01*
X222718177Y-100761313D01*
X222843196Y-100749000D01*
X222926804Y-100749000D01*
X223051823Y-100761313D01*
X223051823Y-100761313D01*
G37*
G36*
X183046823Y-100761313D02*
G01*
X183207242Y-100809976D01*
X183276922Y-100847221D01*
X183355078Y-100888996D01*
X183484659Y-100995341D01*
X183591004Y-101124922D01*
X183591005Y-101124924D01*
X183670024Y-101272758D01*
X183718687Y-101433177D01*
X183735117Y-101600000D01*
X183718687Y-101766823D01*
X183670024Y-101927242D01*
X183659747Y-101946468D01*
X183591004Y-102075078D01*
X183484659Y-102204659D01*
X183355078Y-102311004D01*
X183355076Y-102311005D01*
X183207242Y-102390024D01*
X183046823Y-102438687D01*
X182921804Y-102451000D01*
X182838196Y-102451000D01*
X182713177Y-102438687D01*
X182552758Y-102390024D01*
X182404924Y-102311005D01*
X182404922Y-102311004D01*
X182275341Y-102204659D01*
X182168996Y-102075078D01*
X182100253Y-101946468D01*
X182089976Y-101927242D01*
X182041313Y-101766823D01*
X182024883Y-101600000D01*
X182041313Y-101433177D01*
X182089976Y-101272758D01*
X182168995Y-101124924D01*
X182168996Y-101124922D01*
X182275341Y-100995341D01*
X182404922Y-100888996D01*
X182483078Y-100847221D01*
X182552758Y-100809976D01*
X182713177Y-100761313D01*
X182838196Y-100749000D01*
X182921804Y-100749000D01*
X183046823Y-100761313D01*
X183046823Y-100761313D01*
G37*
G36*
X215431823Y-100761313D02*
G01*
X215592242Y-100809976D01*
X215661922Y-100847221D01*
X215740078Y-100888996D01*
X215869659Y-100995341D01*
X215976004Y-101124922D01*
X215976005Y-101124924D01*
X216055024Y-101272758D01*
X216103687Y-101433177D01*
X216120117Y-101600000D01*
X216103687Y-101766823D01*
X216055024Y-101927242D01*
X216044747Y-101946468D01*
X215976004Y-102075078D01*
X215869659Y-102204659D01*
X215740078Y-102311004D01*
X215740076Y-102311005D01*
X215592242Y-102390024D01*
X215431823Y-102438687D01*
X215306804Y-102451000D01*
X215223196Y-102451000D01*
X215098177Y-102438687D01*
X214937758Y-102390024D01*
X214789924Y-102311005D01*
X214789922Y-102311004D01*
X214660341Y-102204659D01*
X214553996Y-102075078D01*
X214485253Y-101946468D01*
X214474976Y-101927242D01*
X214426313Y-101766823D01*
X214409883Y-101600000D01*
X214426313Y-101433177D01*
X214474976Y-101272758D01*
X214553995Y-101124924D01*
X214553996Y-101124922D01*
X214660341Y-100995341D01*
X214789922Y-100888996D01*
X214868078Y-100847221D01*
X214937758Y-100809976D01*
X215098177Y-100761313D01*
X215223196Y-100749000D01*
X215306804Y-100749000D01*
X215431823Y-100761313D01*
X215431823Y-100761313D01*
G37*
G36*
X207755443Y-98165519D02*
G01*
X207821627Y-98172037D01*
X207991466Y-98223557D01*
X208147991Y-98307222D01*
X208183729Y-98336552D01*
X208285186Y-98419814D01*
X208368448Y-98521271D01*
X208397778Y-98557009D01*
X208481443Y-98713534D01*
X208532963Y-98883373D01*
X208550359Y-99060000D01*
X208532963Y-99236627D01*
X208481443Y-99406466D01*
X208397778Y-99562991D01*
X208368448Y-99598729D01*
X208285186Y-99700186D01*
X208183729Y-99783448D01*
X208147991Y-99812778D01*
X207991466Y-99896443D01*
X207821627Y-99947963D01*
X207755443Y-99954481D01*
X207689260Y-99961000D01*
X207600740Y-99961000D01*
X207534557Y-99954481D01*
X207468373Y-99947963D01*
X207298534Y-99896443D01*
X207142009Y-99812778D01*
X207106271Y-99783448D01*
X207004814Y-99700186D01*
X206921552Y-99598729D01*
X206892222Y-99562991D01*
X206808557Y-99406466D01*
X206757037Y-99236627D01*
X206739641Y-99060000D01*
X206757037Y-98883373D01*
X206808557Y-98713534D01*
X206892222Y-98557009D01*
X206921552Y-98521271D01*
X207004814Y-98419814D01*
X207106271Y-98336552D01*
X207142009Y-98307222D01*
X207298534Y-98223557D01*
X207468373Y-98172037D01*
X207534557Y-98165519D01*
X207600740Y-98159000D01*
X207689260Y-98159000D01*
X207755443Y-98165519D01*
X207755443Y-98165519D01*
G37*
G36*
X190666823Y-98221313D02*
G01*
X190827242Y-98269976D01*
X190896922Y-98307221D01*
X190975078Y-98348996D01*
X191104659Y-98455341D01*
X191211004Y-98584922D01*
X191211005Y-98584924D01*
X191290024Y-98732758D01*
X191338687Y-98893177D01*
X191355117Y-99060000D01*
X191338687Y-99226823D01*
X191290024Y-99387242D01*
X191279747Y-99406468D01*
X191211004Y-99535078D01*
X191104659Y-99664659D01*
X190975078Y-99771004D01*
X190975076Y-99771005D01*
X190827242Y-99850024D01*
X190666823Y-99898687D01*
X190541804Y-99911000D01*
X190458196Y-99911000D01*
X190333177Y-99898687D01*
X190172758Y-99850024D01*
X190024924Y-99771005D01*
X190024922Y-99771004D01*
X189895341Y-99664659D01*
X189788996Y-99535078D01*
X189720253Y-99406468D01*
X189709976Y-99387242D01*
X189661313Y-99226823D01*
X189644883Y-99060000D01*
X189661313Y-98893177D01*
X189709976Y-98732758D01*
X189788995Y-98584924D01*
X189788996Y-98584922D01*
X189895341Y-98455341D01*
X190024922Y-98348996D01*
X190103078Y-98307221D01*
X190172758Y-98269976D01*
X190333177Y-98221313D01*
X190458196Y-98209000D01*
X190541804Y-98209000D01*
X190666823Y-98221313D01*
X190666823Y-98221313D01*
G37*
G36*
X223051823Y-98221313D02*
G01*
X223212242Y-98269976D01*
X223281922Y-98307221D01*
X223360078Y-98348996D01*
X223489659Y-98455341D01*
X223596004Y-98584922D01*
X223596005Y-98584924D01*
X223675024Y-98732758D01*
X223723687Y-98893177D01*
X223740117Y-99060000D01*
X223723687Y-99226823D01*
X223675024Y-99387242D01*
X223664747Y-99406468D01*
X223596004Y-99535078D01*
X223489659Y-99664659D01*
X223360078Y-99771004D01*
X223360076Y-99771005D01*
X223212242Y-99850024D01*
X223051823Y-99898687D01*
X222926804Y-99911000D01*
X222843196Y-99911000D01*
X222718177Y-99898687D01*
X222557758Y-99850024D01*
X222409924Y-99771005D01*
X222409922Y-99771004D01*
X222280341Y-99664659D01*
X222173996Y-99535078D01*
X222105253Y-99406468D01*
X222094976Y-99387242D01*
X222046313Y-99226823D01*
X222029883Y-99060000D01*
X222046313Y-98893177D01*
X222094976Y-98732758D01*
X222173995Y-98584924D01*
X222173996Y-98584922D01*
X222280341Y-98455341D01*
X222409922Y-98348996D01*
X222488078Y-98307221D01*
X222557758Y-98269976D01*
X222718177Y-98221313D01*
X222843196Y-98209000D01*
X222926804Y-98209000D01*
X223051823Y-98221313D01*
X223051823Y-98221313D01*
G37*
G36*
X215431823Y-98221313D02*
G01*
X215592242Y-98269976D01*
X215661922Y-98307221D01*
X215740078Y-98348996D01*
X215869659Y-98455341D01*
X215976004Y-98584922D01*
X215976005Y-98584924D01*
X216055024Y-98732758D01*
X216103687Y-98893177D01*
X216120117Y-99060000D01*
X216103687Y-99226823D01*
X216055024Y-99387242D01*
X216044747Y-99406468D01*
X215976004Y-99535078D01*
X215869659Y-99664659D01*
X215740078Y-99771004D01*
X215740076Y-99771005D01*
X215592242Y-99850024D01*
X215431823Y-99898687D01*
X215306804Y-99911000D01*
X215223196Y-99911000D01*
X215098177Y-99898687D01*
X214937758Y-99850024D01*
X214789924Y-99771005D01*
X214789922Y-99771004D01*
X214660341Y-99664659D01*
X214553996Y-99535078D01*
X214485253Y-99406468D01*
X214474976Y-99387242D01*
X214426313Y-99226823D01*
X214409883Y-99060000D01*
X214426313Y-98893177D01*
X214474976Y-98732758D01*
X214553995Y-98584924D01*
X214553996Y-98584922D01*
X214660341Y-98455341D01*
X214789922Y-98348996D01*
X214868078Y-98307221D01*
X214937758Y-98269976D01*
X215098177Y-98221313D01*
X215223196Y-98209000D01*
X215306804Y-98209000D01*
X215431823Y-98221313D01*
X215431823Y-98221313D01*
G37*
G36*
X183046823Y-98221313D02*
G01*
X183207242Y-98269976D01*
X183276922Y-98307221D01*
X183355078Y-98348996D01*
X183484659Y-98455341D01*
X183591004Y-98584922D01*
X183591005Y-98584924D01*
X183670024Y-98732758D01*
X183718687Y-98893177D01*
X183735117Y-99060000D01*
X183718687Y-99226823D01*
X183670024Y-99387242D01*
X183659747Y-99406468D01*
X183591004Y-99535078D01*
X183484659Y-99664659D01*
X183355078Y-99771004D01*
X183355076Y-99771005D01*
X183207242Y-99850024D01*
X183046823Y-99898687D01*
X182921804Y-99911000D01*
X182838196Y-99911000D01*
X182713177Y-99898687D01*
X182552758Y-99850024D01*
X182404924Y-99771005D01*
X182404922Y-99771004D01*
X182275341Y-99664659D01*
X182168996Y-99535078D01*
X182100253Y-99406468D01*
X182089976Y-99387242D01*
X182041313Y-99226823D01*
X182024883Y-99060000D01*
X182041313Y-98893177D01*
X182089976Y-98732758D01*
X182168995Y-98584924D01*
X182168996Y-98584922D01*
X182275341Y-98455341D01*
X182404922Y-98348996D01*
X182483078Y-98307221D01*
X182552758Y-98269976D01*
X182713177Y-98221313D01*
X182838196Y-98209000D01*
X182921804Y-98209000D01*
X183046823Y-98221313D01*
X183046823Y-98221313D01*
G37*
G36*
X234255625Y-97160185D02*
G01*
X234274890Y-97164017D01*
X234393364Y-97213091D01*
X234420174Y-97231005D01*
X234499988Y-97284335D01*
X234590665Y-97375012D01*
X234661910Y-97481638D01*
X234710983Y-97600111D01*
X234712403Y-97607249D01*
X234719516Y-97630698D01*
X234731067Y-97652309D01*
X234746612Y-97671251D01*
X234765554Y-97686797D01*
X234787164Y-97698348D01*
X234810613Y-97705461D01*
X234834999Y-97707863D01*
X234859385Y-97705461D01*
X234882834Y-97698348D01*
X234904445Y-97686797D01*
X234923387Y-97671252D01*
X234938933Y-97652310D01*
X234950484Y-97630700D01*
X234957597Y-97607249D01*
X234959017Y-97600111D01*
X235008090Y-97481638D01*
X235079335Y-97375012D01*
X235170012Y-97284335D01*
X235249826Y-97231005D01*
X235276636Y-97213091D01*
X235395110Y-97164017D01*
X235414375Y-97160185D01*
X235520881Y-97139000D01*
X235649119Y-97139000D01*
X235755625Y-97160185D01*
X235774890Y-97164017D01*
X235893364Y-97213091D01*
X235920174Y-97231005D01*
X235999988Y-97284335D01*
X236090665Y-97375012D01*
X236161910Y-97481638D01*
X236210983Y-97600110D01*
X236236000Y-97725881D01*
X236236000Y-97854119D01*
X236221366Y-97927690D01*
X236210983Y-97979890D01*
X236161909Y-98098364D01*
X236090665Y-98204988D01*
X235999988Y-98295665D01*
X235893364Y-98366909D01*
X235893363Y-98366910D01*
X235893362Y-98366910D01*
X235774890Y-98415983D01*
X235649119Y-98441000D01*
X235520881Y-98441000D01*
X235395110Y-98415983D01*
X235276638Y-98366910D01*
X235276637Y-98366910D01*
X235276636Y-98366909D01*
X235170012Y-98295665D01*
X235079335Y-98204988D01*
X235008091Y-98098364D01*
X234959017Y-97979890D01*
X234957597Y-97972751D01*
X234950484Y-97949302D01*
X234938933Y-97927691D01*
X234923388Y-97908749D01*
X234904446Y-97893203D01*
X234882836Y-97881652D01*
X234859387Y-97874539D01*
X234835001Y-97872137D01*
X234810615Y-97874539D01*
X234787166Y-97881652D01*
X234765555Y-97893203D01*
X234746613Y-97908748D01*
X234731067Y-97927690D01*
X234719516Y-97949300D01*
X234712403Y-97972751D01*
X234710983Y-97979890D01*
X234661909Y-98098364D01*
X234590665Y-98204988D01*
X234499988Y-98295665D01*
X234393364Y-98366909D01*
X234393363Y-98366910D01*
X234393362Y-98366910D01*
X234274890Y-98415983D01*
X234149119Y-98441000D01*
X234020881Y-98441000D01*
X233895110Y-98415983D01*
X233776638Y-98366910D01*
X233776637Y-98366910D01*
X233776636Y-98366909D01*
X233670012Y-98295665D01*
X233579335Y-98204988D01*
X233508091Y-98098364D01*
X233459017Y-97979890D01*
X233448634Y-97927690D01*
X233434000Y-97854119D01*
X233434000Y-97725881D01*
X233459017Y-97600110D01*
X233508090Y-97481638D01*
X233579335Y-97375012D01*
X233670012Y-97284335D01*
X233749826Y-97231005D01*
X233776636Y-97213091D01*
X233895110Y-97164017D01*
X233914375Y-97160185D01*
X234020881Y-97139000D01*
X234149119Y-97139000D01*
X234255625Y-97160185D01*
X234255625Y-97160185D01*
G37*
G36*
X229468642Y-96839781D02*
G01*
X229614414Y-96900162D01*
X229614416Y-96900163D01*
X229745608Y-96987822D01*
X229857178Y-97099392D01*
X229944837Y-97230584D01*
X229944838Y-97230586D01*
X230005219Y-97376358D01*
X230036000Y-97531107D01*
X230036000Y-97688893D01*
X230005219Y-97843642D01*
X229961454Y-97949300D01*
X229944837Y-97989416D01*
X229857178Y-98120608D01*
X229745608Y-98232178D01*
X229614416Y-98319837D01*
X229614415Y-98319838D01*
X229614414Y-98319838D01*
X229468642Y-98380219D01*
X229313893Y-98411000D01*
X229156107Y-98411000D01*
X229001358Y-98380219D01*
X228855586Y-98319838D01*
X228855585Y-98319838D01*
X228855584Y-98319837D01*
X228724392Y-98232178D01*
X228612822Y-98120608D01*
X228525163Y-97989416D01*
X228508546Y-97949300D01*
X228464781Y-97843642D01*
X228434000Y-97688893D01*
X228434000Y-97531107D01*
X228464781Y-97376358D01*
X228525162Y-97230586D01*
X228525163Y-97230584D01*
X228612822Y-97099392D01*
X228724392Y-96987822D01*
X228855584Y-96900163D01*
X228855586Y-96900162D01*
X229001358Y-96839781D01*
X229156107Y-96809000D01*
X229313893Y-96809000D01*
X229468642Y-96839781D01*
X229468642Y-96839781D01*
G37*
G36*
X196448642Y-96839781D02*
G01*
X196594414Y-96900162D01*
X196594416Y-96900163D01*
X196725608Y-96987822D01*
X196837178Y-97099392D01*
X196924837Y-97230584D01*
X196924838Y-97230586D01*
X196985219Y-97376358D01*
X197016000Y-97531107D01*
X197016000Y-97688893D01*
X196985219Y-97843642D01*
X196941454Y-97949300D01*
X196924837Y-97989416D01*
X196837178Y-98120608D01*
X196725608Y-98232178D01*
X196594416Y-98319837D01*
X196594415Y-98319838D01*
X196594414Y-98319838D01*
X196448642Y-98380219D01*
X196293893Y-98411000D01*
X196136107Y-98411000D01*
X195981358Y-98380219D01*
X195835586Y-98319838D01*
X195835585Y-98319838D01*
X195835584Y-98319837D01*
X195704392Y-98232178D01*
X195592822Y-98120608D01*
X195505163Y-97989416D01*
X195488546Y-97949300D01*
X195444781Y-97843642D01*
X195414000Y-97688893D01*
X195414000Y-97531107D01*
X195444781Y-97376358D01*
X195505162Y-97230586D01*
X195505163Y-97230584D01*
X195592822Y-97099392D01*
X195704392Y-96987822D01*
X195835584Y-96900163D01*
X195835586Y-96900162D01*
X195981358Y-96839781D01*
X196136107Y-96809000D01*
X196293893Y-96809000D01*
X196448642Y-96839781D01*
X196448642Y-96839781D01*
G37*
G36*
X207755442Y-95625518D02*
G01*
X207821627Y-95632037D01*
X207991466Y-95683557D01*
X208147991Y-95767222D01*
X208183729Y-95796552D01*
X208285186Y-95879814D01*
X208337115Y-95943091D01*
X208397778Y-96017009D01*
X208481443Y-96173534D01*
X208532963Y-96343373D01*
X208550359Y-96520000D01*
X208532963Y-96696627D01*
X208481443Y-96866466D01*
X208397778Y-97022991D01*
X208395583Y-97025665D01*
X208285186Y-97160186D01*
X208187357Y-97240471D01*
X208147991Y-97272778D01*
X207991466Y-97356443D01*
X207821627Y-97407963D01*
X207755442Y-97414482D01*
X207689260Y-97421000D01*
X207600740Y-97421000D01*
X207534558Y-97414482D01*
X207468373Y-97407963D01*
X207298534Y-97356443D01*
X207142009Y-97272778D01*
X207102643Y-97240471D01*
X207004814Y-97160186D01*
X206894417Y-97025665D01*
X206892222Y-97022991D01*
X206808557Y-96866466D01*
X206757037Y-96696627D01*
X206739641Y-96520000D01*
X206757037Y-96343373D01*
X206808557Y-96173534D01*
X206892222Y-96017009D01*
X206952885Y-95943091D01*
X207004814Y-95879814D01*
X207106271Y-95796552D01*
X207142009Y-95767222D01*
X207298534Y-95683557D01*
X207468373Y-95632037D01*
X207534558Y-95625518D01*
X207600740Y-95619000D01*
X207689260Y-95619000D01*
X207755442Y-95625518D01*
X207755442Y-95625518D01*
G37*
G36*
X190666823Y-95681313D02*
G01*
X190827242Y-95729976D01*
X190896922Y-95767221D01*
X190975078Y-95808996D01*
X191104659Y-95915341D01*
X191211004Y-96044922D01*
X191211005Y-96044924D01*
X191290024Y-96192758D01*
X191338687Y-96353177D01*
X191355117Y-96520000D01*
X191338687Y-96686823D01*
X191290024Y-96847242D01*
X191243123Y-96934988D01*
X191211004Y-96995078D01*
X191104659Y-97124659D01*
X190975078Y-97231004D01*
X190975076Y-97231005D01*
X190827242Y-97310024D01*
X190666823Y-97358687D01*
X190541804Y-97371000D01*
X190458196Y-97371000D01*
X190333177Y-97358687D01*
X190172758Y-97310024D01*
X190024924Y-97231005D01*
X190024922Y-97231004D01*
X189895341Y-97124659D01*
X189788996Y-96995078D01*
X189756877Y-96934988D01*
X189709976Y-96847242D01*
X189661313Y-96686823D01*
X189644883Y-96520000D01*
X189661313Y-96353177D01*
X189709976Y-96192758D01*
X189788995Y-96044924D01*
X189788996Y-96044922D01*
X189895341Y-95915341D01*
X190024922Y-95808996D01*
X190103078Y-95767221D01*
X190172758Y-95729976D01*
X190333177Y-95681313D01*
X190458196Y-95669000D01*
X190541804Y-95669000D01*
X190666823Y-95681313D01*
X190666823Y-95681313D01*
G37*
G36*
X223051823Y-95681313D02*
G01*
X223212242Y-95729976D01*
X223281922Y-95767221D01*
X223360078Y-95808996D01*
X223489659Y-95915341D01*
X223596004Y-96044922D01*
X223596005Y-96044924D01*
X223675024Y-96192758D01*
X223723687Y-96353177D01*
X223740117Y-96520000D01*
X223723687Y-96686823D01*
X223675024Y-96847242D01*
X223628123Y-96934988D01*
X223596004Y-96995078D01*
X223489659Y-97124659D01*
X223360078Y-97231004D01*
X223360076Y-97231005D01*
X223212242Y-97310024D01*
X223051823Y-97358687D01*
X222926804Y-97371000D01*
X222843196Y-97371000D01*
X222718177Y-97358687D01*
X222557758Y-97310024D01*
X222409924Y-97231005D01*
X222409922Y-97231004D01*
X222280341Y-97124659D01*
X222173996Y-96995078D01*
X222141877Y-96934988D01*
X222094976Y-96847242D01*
X222046313Y-96686823D01*
X222029883Y-96520000D01*
X222046313Y-96353177D01*
X222094976Y-96192758D01*
X222173995Y-96044924D01*
X222173996Y-96044922D01*
X222280341Y-95915341D01*
X222409922Y-95808996D01*
X222488078Y-95767221D01*
X222557758Y-95729976D01*
X222718177Y-95681313D01*
X222843196Y-95669000D01*
X222926804Y-95669000D01*
X223051823Y-95681313D01*
X223051823Y-95681313D01*
G37*
G36*
X215431823Y-95681313D02*
G01*
X215592242Y-95729976D01*
X215661922Y-95767221D01*
X215740078Y-95808996D01*
X215869659Y-95915341D01*
X215976004Y-96044922D01*
X215976005Y-96044924D01*
X216055024Y-96192758D01*
X216103687Y-96353177D01*
X216120117Y-96520000D01*
X216103687Y-96686823D01*
X216055024Y-96847242D01*
X216008123Y-96934988D01*
X215976004Y-96995078D01*
X215869659Y-97124659D01*
X215740078Y-97231004D01*
X215740076Y-97231005D01*
X215592242Y-97310024D01*
X215431823Y-97358687D01*
X215306804Y-97371000D01*
X215223196Y-97371000D01*
X215098177Y-97358687D01*
X214937758Y-97310024D01*
X214789924Y-97231005D01*
X214789922Y-97231004D01*
X214660341Y-97124659D01*
X214553996Y-96995078D01*
X214521877Y-96934988D01*
X214474976Y-96847242D01*
X214426313Y-96686823D01*
X214409883Y-96520000D01*
X214426313Y-96353177D01*
X214474976Y-96192758D01*
X214553995Y-96044924D01*
X214553996Y-96044922D01*
X214660341Y-95915341D01*
X214789922Y-95808996D01*
X214868078Y-95767221D01*
X214937758Y-95729976D01*
X215098177Y-95681313D01*
X215223196Y-95669000D01*
X215306804Y-95669000D01*
X215431823Y-95681313D01*
X215431823Y-95681313D01*
G37*
G36*
X183046823Y-95681313D02*
G01*
X183207242Y-95729976D01*
X183276922Y-95767221D01*
X183355078Y-95808996D01*
X183484659Y-95915341D01*
X183591004Y-96044922D01*
X183591005Y-96044924D01*
X183670024Y-96192758D01*
X183718687Y-96353177D01*
X183735117Y-96520000D01*
X183718687Y-96686823D01*
X183670024Y-96847242D01*
X183623123Y-96934988D01*
X183591004Y-96995078D01*
X183484659Y-97124659D01*
X183355078Y-97231004D01*
X183355076Y-97231005D01*
X183207242Y-97310024D01*
X183046823Y-97358687D01*
X182921804Y-97371000D01*
X182838196Y-97371000D01*
X182713177Y-97358687D01*
X182552758Y-97310024D01*
X182404924Y-97231005D01*
X182404922Y-97231004D01*
X182275341Y-97124659D01*
X182168996Y-96995078D01*
X182136877Y-96934988D01*
X182089976Y-96847242D01*
X182041313Y-96686823D01*
X182024883Y-96520000D01*
X182041313Y-96353177D01*
X182089976Y-96192758D01*
X182168995Y-96044924D01*
X182168996Y-96044922D01*
X182275341Y-95915341D01*
X182404922Y-95808996D01*
X182483078Y-95767221D01*
X182552758Y-95729976D01*
X182713177Y-95681313D01*
X182838196Y-95669000D01*
X182921804Y-95669000D01*
X183046823Y-95681313D01*
X183046823Y-95681313D01*
G37*
G36*
X177343000Y-97333000D02*
G01*
X175717000Y-97333000D01*
X175717000Y-95707000D01*
X177343000Y-95707000D01*
X177343000Y-97333000D01*
X177343000Y-97333000D01*
G37*
G36*
X174227142Y-95738242D02*
G01*
X174375101Y-95799529D01*
X174508255Y-95888499D01*
X174621501Y-96001745D01*
X174710471Y-96134899D01*
X174771758Y-96282858D01*
X174803000Y-96439925D01*
X174803000Y-96600075D01*
X174771758Y-96757142D01*
X174710471Y-96905101D01*
X174621501Y-97038255D01*
X174508255Y-97151501D01*
X174375101Y-97240471D01*
X174227142Y-97301758D01*
X174070075Y-97333000D01*
X173909925Y-97333000D01*
X173752858Y-97301758D01*
X173604899Y-97240471D01*
X173471745Y-97151501D01*
X173358499Y-97038255D01*
X173269529Y-96905101D01*
X173208242Y-96757142D01*
X173177000Y-96600075D01*
X173177000Y-96439925D01*
X173208242Y-96282858D01*
X173269529Y-96134899D01*
X173358499Y-96001745D01*
X173471745Y-95888499D01*
X173604899Y-95799529D01*
X173752858Y-95738242D01*
X173909925Y-95707000D01*
X174070075Y-95707000D01*
X174227142Y-95738242D01*
X174227142Y-95738242D01*
G37*
G36*
X202092159Y-95888501D02*
G01*
X202119890Y-95894017D01*
X202238364Y-95943091D01*
X202344988Y-96014335D01*
X202435665Y-96105012D01*
X202481449Y-96173532D01*
X202506910Y-96211638D01*
X202555983Y-96330111D01*
X202557403Y-96337249D01*
X202564516Y-96360698D01*
X202576067Y-96382309D01*
X202591612Y-96401251D01*
X202610554Y-96416797D01*
X202632164Y-96428348D01*
X202655613Y-96435461D01*
X202679999Y-96437863D01*
X202704385Y-96435461D01*
X202727834Y-96428348D01*
X202749445Y-96416797D01*
X202768387Y-96401252D01*
X202783933Y-96382310D01*
X202795484Y-96360700D01*
X202802597Y-96337249D01*
X202804017Y-96330111D01*
X202853090Y-96211638D01*
X202878552Y-96173532D01*
X202924335Y-96105012D01*
X203015012Y-96014335D01*
X203121636Y-95943091D01*
X203240110Y-95894017D01*
X203267841Y-95888501D01*
X203365881Y-95869000D01*
X203494119Y-95869000D01*
X203592159Y-95888501D01*
X203619890Y-95894017D01*
X203738364Y-95943091D01*
X203844988Y-96014335D01*
X203935665Y-96105012D01*
X203981449Y-96173532D01*
X204006910Y-96211638D01*
X204055983Y-96330110D01*
X204081000Y-96455881D01*
X204081000Y-96584119D01*
X204066366Y-96657690D01*
X204055983Y-96709890D01*
X204006909Y-96828364D01*
X203935665Y-96934988D01*
X203844988Y-97025665D01*
X203738364Y-97096909D01*
X203738363Y-97096910D01*
X203738362Y-97096910D01*
X203619890Y-97145983D01*
X203494119Y-97171000D01*
X203365881Y-97171000D01*
X203240110Y-97145983D01*
X203121638Y-97096910D01*
X203121637Y-97096910D01*
X203121636Y-97096909D01*
X203015012Y-97025665D01*
X202924335Y-96934988D01*
X202853091Y-96828364D01*
X202804017Y-96709890D01*
X202802597Y-96702751D01*
X202795484Y-96679302D01*
X202783933Y-96657691D01*
X202768388Y-96638749D01*
X202749446Y-96623203D01*
X202727836Y-96611652D01*
X202704387Y-96604539D01*
X202680001Y-96602137D01*
X202655615Y-96604539D01*
X202632166Y-96611652D01*
X202610555Y-96623203D01*
X202591613Y-96638748D01*
X202576067Y-96657690D01*
X202564516Y-96679300D01*
X202557403Y-96702751D01*
X202555983Y-96709890D01*
X202506909Y-96828364D01*
X202435665Y-96934988D01*
X202344988Y-97025665D01*
X202238364Y-97096909D01*
X202238363Y-97096910D01*
X202238362Y-97096910D01*
X202119890Y-97145983D01*
X201994119Y-97171000D01*
X201865881Y-97171000D01*
X201740110Y-97145983D01*
X201621638Y-97096910D01*
X201621637Y-97096910D01*
X201621636Y-97096909D01*
X201515012Y-97025665D01*
X201424335Y-96934988D01*
X201353091Y-96828364D01*
X201304017Y-96709890D01*
X201293634Y-96657690D01*
X201279000Y-96584119D01*
X201279000Y-96455881D01*
X201304017Y-96330110D01*
X201353090Y-96211638D01*
X201378552Y-96173532D01*
X201424335Y-96105012D01*
X201515012Y-96014335D01*
X201621636Y-95943091D01*
X201740110Y-95894017D01*
X201767841Y-95888501D01*
X201865881Y-95869000D01*
X201994119Y-95869000D01*
X202092159Y-95888501D01*
X202092159Y-95888501D01*
G37*
G36*
X223051823Y-93141313D02*
G01*
X223212242Y-93189976D01*
X223269550Y-93220608D01*
X223360078Y-93268996D01*
X223489659Y-93375341D01*
X223596004Y-93504922D01*
X223596005Y-93504924D01*
X223675024Y-93652758D01*
X223723687Y-93813177D01*
X223740117Y-93980000D01*
X223723687Y-94146823D01*
X223675024Y-94307242D01*
X223604114Y-94439906D01*
X223596004Y-94455078D01*
X223489659Y-94584659D01*
X223360078Y-94691004D01*
X223360076Y-94691005D01*
X223212242Y-94770024D01*
X223051823Y-94818687D01*
X222926804Y-94831000D01*
X222843196Y-94831000D01*
X222718177Y-94818687D01*
X222557758Y-94770024D01*
X222409924Y-94691005D01*
X222409922Y-94691004D01*
X222280341Y-94584659D01*
X222173996Y-94455078D01*
X222165886Y-94439906D01*
X222094976Y-94307242D01*
X222046313Y-94146823D01*
X222029883Y-93980000D01*
X222046313Y-93813177D01*
X222094976Y-93652758D01*
X222173995Y-93504924D01*
X222173996Y-93504922D01*
X222280341Y-93375341D01*
X222409922Y-93268996D01*
X222500450Y-93220608D01*
X222557758Y-93189976D01*
X222718177Y-93141313D01*
X222843196Y-93129000D01*
X222926804Y-93129000D01*
X223051823Y-93141313D01*
X223051823Y-93141313D01*
G37*
G36*
X215431823Y-93141313D02*
G01*
X215592242Y-93189976D01*
X215649550Y-93220608D01*
X215740078Y-93268996D01*
X215869659Y-93375341D01*
X215976004Y-93504922D01*
X215976005Y-93504924D01*
X216055024Y-93652758D01*
X216103687Y-93813177D01*
X216120117Y-93980000D01*
X216103687Y-94146823D01*
X216055024Y-94307242D01*
X215984114Y-94439906D01*
X215976004Y-94455078D01*
X215869659Y-94584659D01*
X215740078Y-94691004D01*
X215740076Y-94691005D01*
X215592242Y-94770024D01*
X215431823Y-94818687D01*
X215306804Y-94831000D01*
X215223196Y-94831000D01*
X215098177Y-94818687D01*
X214937758Y-94770024D01*
X214789924Y-94691005D01*
X214789922Y-94691004D01*
X214660341Y-94584659D01*
X214553996Y-94455078D01*
X214545886Y-94439906D01*
X214474976Y-94307242D01*
X214426313Y-94146823D01*
X214409883Y-93980000D01*
X214426313Y-93813177D01*
X214474976Y-93652758D01*
X214553995Y-93504924D01*
X214553996Y-93504922D01*
X214660341Y-93375341D01*
X214789922Y-93268996D01*
X214880450Y-93220608D01*
X214937758Y-93189976D01*
X215098177Y-93141313D01*
X215223196Y-93129000D01*
X215306804Y-93129000D01*
X215431823Y-93141313D01*
X215431823Y-93141313D01*
G37*
G36*
X190666823Y-93141313D02*
G01*
X190827242Y-93189976D01*
X190884550Y-93220608D01*
X190975078Y-93268996D01*
X191104659Y-93375341D01*
X191211004Y-93504922D01*
X191211005Y-93504924D01*
X191290024Y-93652758D01*
X191338687Y-93813177D01*
X191355117Y-93980000D01*
X191338687Y-94146823D01*
X191290024Y-94307242D01*
X191219114Y-94439906D01*
X191211004Y-94455078D01*
X191104659Y-94584659D01*
X190975078Y-94691004D01*
X190975076Y-94691005D01*
X190827242Y-94770024D01*
X190666823Y-94818687D01*
X190541804Y-94831000D01*
X190458196Y-94831000D01*
X190333177Y-94818687D01*
X190172758Y-94770024D01*
X190024924Y-94691005D01*
X190024922Y-94691004D01*
X189895341Y-94584659D01*
X189788996Y-94455078D01*
X189780886Y-94439906D01*
X189709976Y-94307242D01*
X189661313Y-94146823D01*
X189644883Y-93980000D01*
X189661313Y-93813177D01*
X189709976Y-93652758D01*
X189788995Y-93504924D01*
X189788996Y-93504922D01*
X189895341Y-93375341D01*
X190024922Y-93268996D01*
X190115450Y-93220608D01*
X190172758Y-93189976D01*
X190333177Y-93141313D01*
X190458196Y-93129000D01*
X190541804Y-93129000D01*
X190666823Y-93141313D01*
X190666823Y-93141313D01*
G37*
G36*
X183046823Y-93141313D02*
G01*
X183207242Y-93189976D01*
X183264550Y-93220608D01*
X183355078Y-93268996D01*
X183484659Y-93375341D01*
X183591004Y-93504922D01*
X183591005Y-93504924D01*
X183670024Y-93652758D01*
X183718687Y-93813177D01*
X183735117Y-93980000D01*
X183718687Y-94146823D01*
X183670024Y-94307242D01*
X183599114Y-94439906D01*
X183591004Y-94455078D01*
X183484659Y-94584659D01*
X183355078Y-94691004D01*
X183355076Y-94691005D01*
X183207242Y-94770024D01*
X183046823Y-94818687D01*
X182921804Y-94831000D01*
X182838196Y-94831000D01*
X182713177Y-94818687D01*
X182552758Y-94770024D01*
X182404924Y-94691005D01*
X182404922Y-94691004D01*
X182275341Y-94584659D01*
X182168996Y-94455078D01*
X182160886Y-94439906D01*
X182089976Y-94307242D01*
X182041313Y-94146823D01*
X182024883Y-93980000D01*
X182041313Y-93813177D01*
X182089976Y-93652758D01*
X182168995Y-93504924D01*
X182168996Y-93504922D01*
X182275341Y-93375341D01*
X182404922Y-93268996D01*
X182495450Y-93220608D01*
X182552758Y-93189976D01*
X182713177Y-93141313D01*
X182838196Y-93129000D01*
X182921804Y-93129000D01*
X183046823Y-93141313D01*
X183046823Y-93141313D01*
G37*
G36*
X174227142Y-93198242D02*
G01*
X174375101Y-93259529D01*
X174508255Y-93348499D01*
X174621501Y-93461745D01*
X174710471Y-93594899D01*
X174771758Y-93742858D01*
X174803000Y-93899925D01*
X174803000Y-94060075D01*
X174771758Y-94217142D01*
X174710471Y-94365101D01*
X174621501Y-94498255D01*
X174508255Y-94611501D01*
X174375101Y-94700471D01*
X174227142Y-94761758D01*
X174070075Y-94793000D01*
X173909925Y-94793000D01*
X173752858Y-94761758D01*
X173604899Y-94700471D01*
X173471745Y-94611501D01*
X173358499Y-94498255D01*
X173269529Y-94365101D01*
X173208242Y-94217142D01*
X173177000Y-94060075D01*
X173177000Y-93899925D01*
X173208242Y-93742858D01*
X173269529Y-93594899D01*
X173358499Y-93461745D01*
X173471745Y-93348499D01*
X173604899Y-93259529D01*
X173752858Y-93198242D01*
X173909925Y-93167000D01*
X174070075Y-93167000D01*
X174227142Y-93198242D01*
X174227142Y-93198242D01*
G37*
G36*
X176767142Y-93198242D02*
G01*
X176915101Y-93259529D01*
X177048255Y-93348499D01*
X177161501Y-93461745D01*
X177250471Y-93594899D01*
X177311758Y-93742858D01*
X177343000Y-93899925D01*
X177343000Y-94060075D01*
X177311758Y-94217142D01*
X177250471Y-94365101D01*
X177161501Y-94498255D01*
X177048255Y-94611501D01*
X176915101Y-94700471D01*
X176767142Y-94761758D01*
X176610075Y-94793000D01*
X176449925Y-94793000D01*
X176292858Y-94761758D01*
X176144899Y-94700471D01*
X176011745Y-94611501D01*
X175898499Y-94498255D01*
X175809529Y-94365101D01*
X175748242Y-94217142D01*
X175717000Y-94060075D01*
X175717000Y-93899925D01*
X175748242Y-93742858D01*
X175809529Y-93594899D01*
X175898499Y-93461745D01*
X176011745Y-93348499D01*
X176144899Y-93259529D01*
X176292858Y-93198242D01*
X176449925Y-93167000D01*
X176610075Y-93167000D01*
X176767142Y-93198242D01*
X176767142Y-93198242D01*
G37*
G36*
X229468642Y-91939781D02*
G01*
X229614414Y-92000162D01*
X229614416Y-92000163D01*
X229745608Y-92087822D01*
X229857178Y-92199392D01*
X229918388Y-92291000D01*
X229944838Y-92330586D01*
X230005219Y-92476358D01*
X230036000Y-92631107D01*
X230036000Y-92788893D01*
X230005219Y-92943642D01*
X229944838Y-93089414D01*
X229944837Y-93089416D01*
X229857178Y-93220608D01*
X229745608Y-93332178D01*
X229614416Y-93419837D01*
X229614415Y-93419838D01*
X229614414Y-93419838D01*
X229468642Y-93480219D01*
X229313893Y-93511000D01*
X229156107Y-93511000D01*
X229001358Y-93480219D01*
X228855586Y-93419838D01*
X228855585Y-93419838D01*
X228855584Y-93419837D01*
X228724392Y-93332178D01*
X228612822Y-93220608D01*
X228525163Y-93089416D01*
X228525162Y-93089414D01*
X228464781Y-92943642D01*
X228434000Y-92788893D01*
X228434000Y-92631107D01*
X228464781Y-92476358D01*
X228525162Y-92330586D01*
X228551612Y-92291000D01*
X228612822Y-92199392D01*
X228724392Y-92087822D01*
X228855584Y-92000163D01*
X228855586Y-92000162D01*
X229001358Y-91939781D01*
X229156107Y-91909000D01*
X229313893Y-91909000D01*
X229468642Y-91939781D01*
X229468642Y-91939781D01*
G37*
G36*
X196448642Y-91939781D02*
G01*
X196594414Y-92000162D01*
X196594416Y-92000163D01*
X196725608Y-92087822D01*
X196837178Y-92199392D01*
X196898388Y-92291000D01*
X196924838Y-92330586D01*
X196985219Y-92476358D01*
X197016000Y-92631107D01*
X197016000Y-92788893D01*
X196985219Y-92943642D01*
X196924838Y-93089414D01*
X196924837Y-93089416D01*
X196837178Y-93220608D01*
X196725608Y-93332178D01*
X196594416Y-93419837D01*
X196594415Y-93419838D01*
X196594414Y-93419838D01*
X196448642Y-93480219D01*
X196293893Y-93511000D01*
X196136107Y-93511000D01*
X195981358Y-93480219D01*
X195835586Y-93419838D01*
X195835585Y-93419838D01*
X195835584Y-93419837D01*
X195704392Y-93332178D01*
X195592822Y-93220608D01*
X195505163Y-93089416D01*
X195505162Y-93089414D01*
X195444781Y-92943642D01*
X195414000Y-92788893D01*
X195414000Y-92631107D01*
X195444781Y-92476358D01*
X195505162Y-92330586D01*
X195531612Y-92291000D01*
X195592822Y-92199392D01*
X195704392Y-92087822D01*
X195835584Y-92000163D01*
X195835586Y-92000162D01*
X195981358Y-91939781D01*
X196136107Y-91909000D01*
X196293893Y-91909000D01*
X196448642Y-91939781D01*
X196448642Y-91939781D01*
G37*
G36*
X207755442Y-91180518D02*
G01*
X207821627Y-91187037D01*
X207991466Y-91238557D01*
X208147991Y-91322222D01*
X208179825Y-91348348D01*
X208285186Y-91434814D01*
X208337115Y-91498091D01*
X208397778Y-91572009D01*
X208481443Y-91728534D01*
X208532963Y-91898373D01*
X208550359Y-92075000D01*
X208532963Y-92251627D01*
X208481443Y-92421466D01*
X208397778Y-92577991D01*
X208395583Y-92580665D01*
X208285186Y-92715186D01*
X208195372Y-92788893D01*
X208147991Y-92827778D01*
X207991466Y-92911443D01*
X207821627Y-92962963D01*
X207755442Y-92969482D01*
X207689260Y-92976000D01*
X207600740Y-92976000D01*
X207534558Y-92969482D01*
X207468373Y-92962963D01*
X207298534Y-92911443D01*
X207142009Y-92827778D01*
X207094628Y-92788893D01*
X207004814Y-92715186D01*
X206894417Y-92580665D01*
X206892222Y-92577991D01*
X206808557Y-92421466D01*
X206757037Y-92251627D01*
X206739641Y-92075000D01*
X206757037Y-91898373D01*
X206808557Y-91728534D01*
X206892222Y-91572009D01*
X206952885Y-91498091D01*
X207004814Y-91434814D01*
X207110175Y-91348348D01*
X207142009Y-91322222D01*
X207298534Y-91238557D01*
X207468373Y-91187037D01*
X207534558Y-91180518D01*
X207600740Y-91174000D01*
X207689260Y-91174000D01*
X207755442Y-91180518D01*
X207755442Y-91180518D01*
G37*
G36*
X234274890Y-91449017D02*
G01*
X234393364Y-91498091D01*
X234499988Y-91569335D01*
X234590665Y-91660012D01*
X234649699Y-91748362D01*
X234661910Y-91766638D01*
X234710983Y-91885111D01*
X234712403Y-91892249D01*
X234719516Y-91915698D01*
X234731067Y-91937309D01*
X234746612Y-91956251D01*
X234765554Y-91971797D01*
X234787164Y-91983348D01*
X234810613Y-91990461D01*
X234834999Y-91992863D01*
X234859385Y-91990461D01*
X234882834Y-91983348D01*
X234904445Y-91971797D01*
X234923387Y-91956252D01*
X234938933Y-91937310D01*
X234950484Y-91915700D01*
X234957597Y-91892249D01*
X234959017Y-91885111D01*
X235008090Y-91766638D01*
X235020302Y-91748362D01*
X235079335Y-91660012D01*
X235170012Y-91569335D01*
X235276636Y-91498091D01*
X235395110Y-91449017D01*
X235520881Y-91424000D01*
X235649119Y-91424000D01*
X235774890Y-91449017D01*
X235893364Y-91498091D01*
X235999988Y-91569335D01*
X236090665Y-91660012D01*
X236149699Y-91748362D01*
X236161910Y-91766638D01*
X236210983Y-91885110D01*
X236236000Y-92010881D01*
X236236000Y-92139119D01*
X236219562Y-92221758D01*
X236210983Y-92264890D01*
X236161909Y-92383364D01*
X236090665Y-92489988D01*
X235999988Y-92580665D01*
X235893364Y-92651909D01*
X235893363Y-92651910D01*
X235893362Y-92651910D01*
X235774890Y-92700983D01*
X235649119Y-92726000D01*
X235520881Y-92726000D01*
X235395110Y-92700983D01*
X235276638Y-92651910D01*
X235276637Y-92651910D01*
X235276636Y-92651909D01*
X235170012Y-92580665D01*
X235079335Y-92489988D01*
X235008091Y-92383364D01*
X234959017Y-92264890D01*
X234957597Y-92257751D01*
X234950484Y-92234302D01*
X234938933Y-92212691D01*
X234923388Y-92193749D01*
X234904446Y-92178203D01*
X234882836Y-92166652D01*
X234859387Y-92159539D01*
X234835001Y-92157137D01*
X234810615Y-92159539D01*
X234787166Y-92166652D01*
X234765555Y-92178203D01*
X234746613Y-92193748D01*
X234731067Y-92212690D01*
X234719516Y-92234300D01*
X234712403Y-92257751D01*
X234710983Y-92264890D01*
X234661909Y-92383364D01*
X234590665Y-92489988D01*
X234499988Y-92580665D01*
X234393364Y-92651909D01*
X234393363Y-92651910D01*
X234393362Y-92651910D01*
X234274890Y-92700983D01*
X234149119Y-92726000D01*
X234020881Y-92726000D01*
X233895110Y-92700983D01*
X233776638Y-92651910D01*
X233776637Y-92651910D01*
X233776636Y-92651909D01*
X233670012Y-92580665D01*
X233579335Y-92489988D01*
X233508091Y-92383364D01*
X233459017Y-92264890D01*
X233450438Y-92221758D01*
X233434000Y-92139119D01*
X233434000Y-92010881D01*
X233459017Y-91885110D01*
X233508090Y-91766638D01*
X233520302Y-91748362D01*
X233579335Y-91660012D01*
X233670012Y-91569335D01*
X233776636Y-91498091D01*
X233895110Y-91449017D01*
X234020881Y-91424000D01*
X234149119Y-91424000D01*
X234274890Y-91449017D01*
X234274890Y-91449017D01*
G37*
G36*
X215431823Y-90601313D02*
G01*
X215592242Y-90649976D01*
X215722366Y-90719529D01*
X215740078Y-90728996D01*
X215869659Y-90835341D01*
X215976004Y-90964922D01*
X215976005Y-90964924D01*
X216055024Y-91112758D01*
X216103687Y-91273177D01*
X216120117Y-91440000D01*
X216103687Y-91606823D01*
X216055024Y-91767242D01*
X216008123Y-91854988D01*
X215976004Y-91915078D01*
X215869659Y-92044659D01*
X215740078Y-92151004D01*
X215740076Y-92151005D01*
X215592242Y-92230024D01*
X215592239Y-92230025D01*
X215562380Y-92239083D01*
X215431823Y-92278687D01*
X215306804Y-92291000D01*
X215223196Y-92291000D01*
X215098177Y-92278687D01*
X214967620Y-92239083D01*
X214937761Y-92230025D01*
X214937758Y-92230024D01*
X214789924Y-92151005D01*
X214789922Y-92151004D01*
X214660341Y-92044659D01*
X214553996Y-91915078D01*
X214521877Y-91854988D01*
X214474976Y-91767242D01*
X214426313Y-91606823D01*
X214409883Y-91440000D01*
X214426313Y-91273177D01*
X214474976Y-91112758D01*
X214553995Y-90964924D01*
X214553996Y-90964922D01*
X214660341Y-90835341D01*
X214789922Y-90728996D01*
X214807634Y-90719529D01*
X214937758Y-90649976D01*
X215098177Y-90601313D01*
X215223196Y-90589000D01*
X215306804Y-90589000D01*
X215431823Y-90601313D01*
X215431823Y-90601313D01*
G37*
G36*
X223051823Y-90601313D02*
G01*
X223212242Y-90649976D01*
X223342366Y-90719529D01*
X223360078Y-90728996D01*
X223489659Y-90835341D01*
X223596004Y-90964922D01*
X223596005Y-90964924D01*
X223675024Y-91112758D01*
X223723687Y-91273177D01*
X223740117Y-91440000D01*
X223723687Y-91606823D01*
X223675024Y-91767242D01*
X223628123Y-91854988D01*
X223596004Y-91915078D01*
X223489659Y-92044659D01*
X223360078Y-92151004D01*
X223360076Y-92151005D01*
X223212242Y-92230024D01*
X223212239Y-92230025D01*
X223182380Y-92239083D01*
X223051823Y-92278687D01*
X222926804Y-92291000D01*
X222843196Y-92291000D01*
X222718177Y-92278687D01*
X222587620Y-92239083D01*
X222557761Y-92230025D01*
X222557758Y-92230024D01*
X222409924Y-92151005D01*
X222409922Y-92151004D01*
X222280341Y-92044659D01*
X222173996Y-91915078D01*
X222141877Y-91854988D01*
X222094976Y-91767242D01*
X222046313Y-91606823D01*
X222029883Y-91440000D01*
X222046313Y-91273177D01*
X222094976Y-91112758D01*
X222173995Y-90964924D01*
X222173996Y-90964922D01*
X222280341Y-90835341D01*
X222409922Y-90728996D01*
X222427634Y-90719529D01*
X222557758Y-90649976D01*
X222718177Y-90601313D01*
X222843196Y-90589000D01*
X222926804Y-90589000D01*
X223051823Y-90601313D01*
X223051823Y-90601313D01*
G37*
G36*
X183046823Y-90601313D02*
G01*
X183207242Y-90649976D01*
X183337366Y-90719529D01*
X183355078Y-90728996D01*
X183484659Y-90835341D01*
X183591004Y-90964922D01*
X183591005Y-90964924D01*
X183670024Y-91112758D01*
X183718687Y-91273177D01*
X183735117Y-91440000D01*
X183718687Y-91606823D01*
X183670024Y-91767242D01*
X183623123Y-91854988D01*
X183591004Y-91915078D01*
X183484659Y-92044659D01*
X183355078Y-92151004D01*
X183355076Y-92151005D01*
X183207242Y-92230024D01*
X183207239Y-92230025D01*
X183177380Y-92239083D01*
X183046823Y-92278687D01*
X182921804Y-92291000D01*
X182838196Y-92291000D01*
X182713177Y-92278687D01*
X182582620Y-92239083D01*
X182552761Y-92230025D01*
X182552758Y-92230024D01*
X182404924Y-92151005D01*
X182404922Y-92151004D01*
X182275341Y-92044659D01*
X182168996Y-91915078D01*
X182136877Y-91854988D01*
X182089976Y-91767242D01*
X182041313Y-91606823D01*
X182024883Y-91440000D01*
X182041313Y-91273177D01*
X182089976Y-91112758D01*
X182168995Y-90964924D01*
X182168996Y-90964922D01*
X182275341Y-90835341D01*
X182404922Y-90728996D01*
X182422634Y-90719529D01*
X182552758Y-90649976D01*
X182713177Y-90601313D01*
X182838196Y-90589000D01*
X182921804Y-90589000D01*
X183046823Y-90601313D01*
X183046823Y-90601313D01*
G37*
G36*
X190666823Y-90601313D02*
G01*
X190827242Y-90649976D01*
X190957366Y-90719529D01*
X190975078Y-90728996D01*
X191104659Y-90835341D01*
X191211004Y-90964922D01*
X191211005Y-90964924D01*
X191290024Y-91112758D01*
X191338687Y-91273177D01*
X191355117Y-91440000D01*
X191338687Y-91606823D01*
X191290024Y-91767242D01*
X191243123Y-91854988D01*
X191211004Y-91915078D01*
X191104659Y-92044659D01*
X190975078Y-92151004D01*
X190975076Y-92151005D01*
X190827242Y-92230024D01*
X190827239Y-92230025D01*
X190797380Y-92239083D01*
X190666823Y-92278687D01*
X190541804Y-92291000D01*
X190458196Y-92291000D01*
X190333177Y-92278687D01*
X190202620Y-92239083D01*
X190172761Y-92230025D01*
X190172758Y-92230024D01*
X190024924Y-92151005D01*
X190024922Y-92151004D01*
X189895341Y-92044659D01*
X189788996Y-91915078D01*
X189756877Y-91854988D01*
X189709976Y-91767242D01*
X189661313Y-91606823D01*
X189644883Y-91440000D01*
X189661313Y-91273177D01*
X189709976Y-91112758D01*
X189788995Y-90964924D01*
X189788996Y-90964922D01*
X189895341Y-90835341D01*
X190024922Y-90728996D01*
X190042634Y-90719529D01*
X190172758Y-90649976D01*
X190333177Y-90601313D01*
X190458196Y-90589000D01*
X190541804Y-90589000D01*
X190666823Y-90601313D01*
X190666823Y-90601313D01*
G37*
G36*
X174227142Y-90658242D02*
G01*
X174375101Y-90719529D01*
X174508255Y-90808499D01*
X174621501Y-90921745D01*
X174710471Y-91054899D01*
X174771758Y-91202858D01*
X174803000Y-91359925D01*
X174803000Y-91520075D01*
X174771758Y-91677142D01*
X174710471Y-91825101D01*
X174621501Y-91958255D01*
X174508255Y-92071501D01*
X174375101Y-92160471D01*
X174227142Y-92221758D01*
X174070075Y-92253000D01*
X173909925Y-92253000D01*
X173752858Y-92221758D01*
X173604899Y-92160471D01*
X173471745Y-92071501D01*
X173358499Y-91958255D01*
X173269529Y-91825101D01*
X173208242Y-91677142D01*
X173177000Y-91520075D01*
X173177000Y-91359925D01*
X173208242Y-91202858D01*
X173269529Y-91054899D01*
X173358499Y-90921745D01*
X173471745Y-90808499D01*
X173604899Y-90719529D01*
X173752858Y-90658242D01*
X173909925Y-90627000D01*
X174070075Y-90627000D01*
X174227142Y-90658242D01*
X174227142Y-90658242D01*
G37*
G36*
X176767142Y-90658242D02*
G01*
X176915101Y-90719529D01*
X177048255Y-90808499D01*
X177161501Y-90921745D01*
X177250471Y-91054899D01*
X177311758Y-91202858D01*
X177343000Y-91359925D01*
X177343000Y-91520075D01*
X177311758Y-91677142D01*
X177250471Y-91825101D01*
X177161501Y-91958255D01*
X177048255Y-92071501D01*
X176915101Y-92160471D01*
X176767142Y-92221758D01*
X176610075Y-92253000D01*
X176449925Y-92253000D01*
X176292858Y-92221758D01*
X176144899Y-92160471D01*
X176011745Y-92071501D01*
X175898499Y-91958255D01*
X175809529Y-91825101D01*
X175748242Y-91677142D01*
X175717000Y-91520075D01*
X175717000Y-91359925D01*
X175748242Y-91202858D01*
X175809529Y-91054899D01*
X175898499Y-90921745D01*
X176011745Y-90808499D01*
X176144899Y-90719529D01*
X176292858Y-90658242D01*
X176449925Y-90627000D01*
X176610075Y-90627000D01*
X176767142Y-90658242D01*
X176767142Y-90658242D01*
G37*
G36*
X202092159Y-90808501D02*
G01*
X202119890Y-90814017D01*
X202238364Y-90863091D01*
X202344988Y-90934335D01*
X202435665Y-91025012D01*
X202506909Y-91131636D01*
X202551198Y-91238557D01*
X202555983Y-91250111D01*
X202557403Y-91257249D01*
X202564516Y-91280698D01*
X202576067Y-91302309D01*
X202591612Y-91321251D01*
X202610554Y-91336797D01*
X202632164Y-91348348D01*
X202655613Y-91355461D01*
X202679999Y-91357863D01*
X202704385Y-91355461D01*
X202727834Y-91348348D01*
X202749445Y-91336797D01*
X202768387Y-91321252D01*
X202783933Y-91302310D01*
X202795484Y-91280700D01*
X202802597Y-91257249D01*
X202804017Y-91250111D01*
X202808803Y-91238557D01*
X202853091Y-91131636D01*
X202924335Y-91025012D01*
X203015012Y-90934335D01*
X203121636Y-90863091D01*
X203240110Y-90814017D01*
X203267841Y-90808501D01*
X203365881Y-90789000D01*
X203494119Y-90789000D01*
X203592159Y-90808501D01*
X203619890Y-90814017D01*
X203738364Y-90863091D01*
X203844988Y-90934335D01*
X203935665Y-91025012D01*
X203955636Y-91054900D01*
X204006910Y-91131638D01*
X204055983Y-91250110D01*
X204081000Y-91375881D01*
X204081000Y-91504119D01*
X204068028Y-91569335D01*
X204055983Y-91629890D01*
X204006909Y-91748364D01*
X203935665Y-91854988D01*
X203844988Y-91945665D01*
X203738364Y-92016909D01*
X203738363Y-92016910D01*
X203738362Y-92016910D01*
X203619890Y-92065983D01*
X203494119Y-92091000D01*
X203365881Y-92091000D01*
X203240110Y-92065983D01*
X203121638Y-92016910D01*
X203121637Y-92016910D01*
X203121636Y-92016909D01*
X203015012Y-91945665D01*
X202924335Y-91854988D01*
X202853091Y-91748364D01*
X202804017Y-91629890D01*
X202802597Y-91622751D01*
X202795484Y-91599302D01*
X202783933Y-91577691D01*
X202768388Y-91558749D01*
X202749446Y-91543203D01*
X202727836Y-91531652D01*
X202704387Y-91524539D01*
X202680001Y-91522137D01*
X202655615Y-91524539D01*
X202632166Y-91531652D01*
X202610555Y-91543203D01*
X202591613Y-91558748D01*
X202576067Y-91577690D01*
X202564516Y-91599300D01*
X202557403Y-91622751D01*
X202555983Y-91629890D01*
X202506909Y-91748364D01*
X202435665Y-91854988D01*
X202344988Y-91945665D01*
X202238364Y-92016909D01*
X202238363Y-92016910D01*
X202238362Y-92016910D01*
X202119890Y-92065983D01*
X201994119Y-92091000D01*
X201865881Y-92091000D01*
X201740110Y-92065983D01*
X201621638Y-92016910D01*
X201621637Y-92016910D01*
X201621636Y-92016909D01*
X201515012Y-91945665D01*
X201424335Y-91854988D01*
X201353091Y-91748364D01*
X201304017Y-91629890D01*
X201291972Y-91569335D01*
X201279000Y-91504119D01*
X201279000Y-91375881D01*
X201304017Y-91250110D01*
X201353090Y-91131638D01*
X201404365Y-91054900D01*
X201424335Y-91025012D01*
X201515012Y-90934335D01*
X201621636Y-90863091D01*
X201740110Y-90814017D01*
X201767841Y-90808501D01*
X201865881Y-90789000D01*
X201994119Y-90789000D01*
X202092159Y-90808501D01*
X202092159Y-90808501D01*
G37*
G36*
X207755443Y-88640519D02*
G01*
X207821627Y-88647037D01*
X207991466Y-88698557D01*
X208147991Y-88782222D01*
X208183729Y-88811552D01*
X208285186Y-88894814D01*
X208355156Y-88980074D01*
X208397778Y-89032009D01*
X208481443Y-89188534D01*
X208532963Y-89358373D01*
X208550359Y-89535000D01*
X208532963Y-89711627D01*
X208481443Y-89881466D01*
X208397778Y-90037991D01*
X208368448Y-90073729D01*
X208285186Y-90175186D01*
X208183729Y-90258448D01*
X208147991Y-90287778D01*
X207991466Y-90371443D01*
X207821627Y-90422963D01*
X207755443Y-90429481D01*
X207689260Y-90436000D01*
X207600740Y-90436000D01*
X207534557Y-90429481D01*
X207468373Y-90422963D01*
X207298534Y-90371443D01*
X207142009Y-90287778D01*
X207106271Y-90258448D01*
X207004814Y-90175186D01*
X206921552Y-90073729D01*
X206892222Y-90037991D01*
X206808557Y-89881466D01*
X206757037Y-89711627D01*
X206739641Y-89535000D01*
X206757037Y-89358373D01*
X206808557Y-89188534D01*
X206892222Y-89032009D01*
X206934844Y-88980074D01*
X207004814Y-88894814D01*
X207106271Y-88811552D01*
X207142009Y-88782222D01*
X207298534Y-88698557D01*
X207468373Y-88647037D01*
X207534557Y-88640519D01*
X207600740Y-88634000D01*
X207689260Y-88634000D01*
X207755443Y-88640519D01*
X207755443Y-88640519D01*
G37*
G36*
X215431823Y-88061313D02*
G01*
X215592242Y-88109976D01*
X215722366Y-88179529D01*
X215740078Y-88188996D01*
X215869659Y-88295341D01*
X215976004Y-88424922D01*
X215976005Y-88424924D01*
X216055024Y-88572758D01*
X216103687Y-88733177D01*
X216120117Y-88900000D01*
X216103687Y-89066823D01*
X216055024Y-89227242D01*
X215984933Y-89358373D01*
X215976004Y-89375078D01*
X215869659Y-89504659D01*
X215740078Y-89611004D01*
X215740076Y-89611005D01*
X215592242Y-89690024D01*
X215431823Y-89738687D01*
X215306804Y-89751000D01*
X215223196Y-89751000D01*
X215098177Y-89738687D01*
X214937758Y-89690024D01*
X214789924Y-89611005D01*
X214789922Y-89611004D01*
X214660341Y-89504659D01*
X214553996Y-89375078D01*
X214545067Y-89358373D01*
X214474976Y-89227242D01*
X214426313Y-89066823D01*
X214409883Y-88900000D01*
X214426313Y-88733177D01*
X214474976Y-88572758D01*
X214553995Y-88424924D01*
X214553996Y-88424922D01*
X214660341Y-88295341D01*
X214789922Y-88188996D01*
X214807634Y-88179529D01*
X214937758Y-88109976D01*
X215098177Y-88061313D01*
X215223196Y-88049000D01*
X215306804Y-88049000D01*
X215431823Y-88061313D01*
X215431823Y-88061313D01*
G37*
G36*
X183046823Y-88061313D02*
G01*
X183207242Y-88109976D01*
X183337366Y-88179529D01*
X183355078Y-88188996D01*
X183484659Y-88295341D01*
X183591004Y-88424922D01*
X183591005Y-88424924D01*
X183670024Y-88572758D01*
X183718687Y-88733177D01*
X183735117Y-88900000D01*
X183718687Y-89066823D01*
X183670024Y-89227242D01*
X183599933Y-89358373D01*
X183591004Y-89375078D01*
X183484659Y-89504659D01*
X183355078Y-89611004D01*
X183355076Y-89611005D01*
X183207242Y-89690024D01*
X183046823Y-89738687D01*
X182921804Y-89751000D01*
X182838196Y-89751000D01*
X182713177Y-89738687D01*
X182552758Y-89690024D01*
X182404924Y-89611005D01*
X182404922Y-89611004D01*
X182275341Y-89504659D01*
X182168996Y-89375078D01*
X182160067Y-89358373D01*
X182089976Y-89227242D01*
X182041313Y-89066823D01*
X182024883Y-88900000D01*
X182041313Y-88733177D01*
X182089976Y-88572758D01*
X182168995Y-88424924D01*
X182168996Y-88424922D01*
X182275341Y-88295341D01*
X182404922Y-88188996D01*
X182422634Y-88179529D01*
X182552758Y-88109976D01*
X182713177Y-88061313D01*
X182838196Y-88049000D01*
X182921804Y-88049000D01*
X183046823Y-88061313D01*
X183046823Y-88061313D01*
G37*
G36*
X223051823Y-88061313D02*
G01*
X223212242Y-88109976D01*
X223342366Y-88179529D01*
X223360078Y-88188996D01*
X223489659Y-88295341D01*
X223596004Y-88424922D01*
X223596005Y-88424924D01*
X223675024Y-88572758D01*
X223723687Y-88733177D01*
X223740117Y-88900000D01*
X223723687Y-89066823D01*
X223675024Y-89227242D01*
X223604933Y-89358373D01*
X223596004Y-89375078D01*
X223489659Y-89504659D01*
X223360078Y-89611004D01*
X223360076Y-89611005D01*
X223212242Y-89690024D01*
X223051823Y-89738687D01*
X222926804Y-89751000D01*
X222843196Y-89751000D01*
X222718177Y-89738687D01*
X222557758Y-89690024D01*
X222409924Y-89611005D01*
X222409922Y-89611004D01*
X222280341Y-89504659D01*
X222173996Y-89375078D01*
X222165067Y-89358373D01*
X222094976Y-89227242D01*
X222046313Y-89066823D01*
X222029883Y-88900000D01*
X222046313Y-88733177D01*
X222094976Y-88572758D01*
X222173995Y-88424924D01*
X222173996Y-88424922D01*
X222280341Y-88295341D01*
X222409922Y-88188996D01*
X222427634Y-88179529D01*
X222557758Y-88109976D01*
X222718177Y-88061313D01*
X222843196Y-88049000D01*
X222926804Y-88049000D01*
X223051823Y-88061313D01*
X223051823Y-88061313D01*
G37*
G36*
X190666823Y-88061313D02*
G01*
X190827242Y-88109976D01*
X190957366Y-88179529D01*
X190975078Y-88188996D01*
X191104659Y-88295341D01*
X191211004Y-88424922D01*
X191211005Y-88424924D01*
X191290024Y-88572758D01*
X191338687Y-88733177D01*
X191355117Y-88900000D01*
X191338687Y-89066823D01*
X191290024Y-89227242D01*
X191219933Y-89358373D01*
X191211004Y-89375078D01*
X191104659Y-89504659D01*
X190975078Y-89611004D01*
X190975076Y-89611005D01*
X190827242Y-89690024D01*
X190666823Y-89738687D01*
X190541804Y-89751000D01*
X190458196Y-89751000D01*
X190333177Y-89738687D01*
X190172758Y-89690024D01*
X190024924Y-89611005D01*
X190024922Y-89611004D01*
X189895341Y-89504659D01*
X189788996Y-89375078D01*
X189780067Y-89358373D01*
X189709976Y-89227242D01*
X189661313Y-89066823D01*
X189644883Y-88900000D01*
X189661313Y-88733177D01*
X189709976Y-88572758D01*
X189788995Y-88424924D01*
X189788996Y-88424922D01*
X189895341Y-88295341D01*
X190024922Y-88188996D01*
X190042634Y-88179529D01*
X190172758Y-88109976D01*
X190333177Y-88061313D01*
X190458196Y-88049000D01*
X190541804Y-88049000D01*
X190666823Y-88061313D01*
X190666823Y-88061313D01*
G37*
G36*
X176767142Y-88118242D02*
G01*
X176915101Y-88179529D01*
X177048255Y-88268499D01*
X177161501Y-88381745D01*
X177250471Y-88514899D01*
X177311758Y-88662858D01*
X177343000Y-88819925D01*
X177343000Y-88980075D01*
X177311758Y-89137142D01*
X177250471Y-89285101D01*
X177161501Y-89418255D01*
X177048255Y-89531501D01*
X176915101Y-89620471D01*
X176767142Y-89681758D01*
X176610075Y-89713000D01*
X176449925Y-89713000D01*
X176292858Y-89681758D01*
X176144899Y-89620471D01*
X176011745Y-89531501D01*
X175898499Y-89418255D01*
X175809529Y-89285101D01*
X175748242Y-89137142D01*
X175717000Y-88980075D01*
X175717000Y-88819925D01*
X175748242Y-88662858D01*
X175809529Y-88514899D01*
X175898499Y-88381745D01*
X176011745Y-88268499D01*
X176144899Y-88179529D01*
X176292858Y-88118242D01*
X176449925Y-88087000D01*
X176610075Y-88087000D01*
X176767142Y-88118242D01*
X176767142Y-88118242D01*
G37*
G36*
X174227142Y-88118242D02*
G01*
X174375101Y-88179529D01*
X174508255Y-88268499D01*
X174621501Y-88381745D01*
X174710471Y-88514899D01*
X174771758Y-88662858D01*
X174803000Y-88819925D01*
X174803000Y-88980075D01*
X174771758Y-89137142D01*
X174710471Y-89285101D01*
X174621501Y-89418255D01*
X174508255Y-89531501D01*
X174375101Y-89620471D01*
X174227142Y-89681758D01*
X174070075Y-89713000D01*
X173909925Y-89713000D01*
X173752858Y-89681758D01*
X173604899Y-89620471D01*
X173471745Y-89531501D01*
X173358499Y-89418255D01*
X173269529Y-89285101D01*
X173208242Y-89137142D01*
X173177000Y-88980075D01*
X173177000Y-88819925D01*
X173208242Y-88662858D01*
X173269529Y-88514899D01*
X173358499Y-88381745D01*
X173471745Y-88268499D01*
X173604899Y-88179529D01*
X173752858Y-88118242D01*
X173909925Y-88087000D01*
X174070075Y-88087000D01*
X174227142Y-88118242D01*
X174227142Y-88118242D01*
G37*
G36*
X207755442Y-86100518D02*
G01*
X207821627Y-86107037D01*
X207991466Y-86158557D01*
X208147991Y-86242222D01*
X208183729Y-86271552D01*
X208285186Y-86354814D01*
X208368448Y-86456271D01*
X208397778Y-86492009D01*
X208481443Y-86648534D01*
X208532963Y-86818373D01*
X208550359Y-86995000D01*
X208532963Y-87171627D01*
X208481443Y-87341466D01*
X208397778Y-87497991D01*
X208368448Y-87533729D01*
X208285186Y-87635186D01*
X208183729Y-87718448D01*
X208147991Y-87747778D01*
X207991466Y-87831443D01*
X207821627Y-87882963D01*
X207755442Y-87889482D01*
X207689260Y-87896000D01*
X207600740Y-87896000D01*
X207534557Y-87889481D01*
X207468373Y-87882963D01*
X207298534Y-87831443D01*
X207142009Y-87747778D01*
X207106271Y-87718448D01*
X207004814Y-87635186D01*
X206921552Y-87533729D01*
X206892222Y-87497991D01*
X206808557Y-87341466D01*
X206757037Y-87171627D01*
X206739641Y-86995000D01*
X206757037Y-86818373D01*
X206808557Y-86648534D01*
X206892222Y-86492009D01*
X206921552Y-86456271D01*
X207004814Y-86354814D01*
X207106271Y-86271552D01*
X207142009Y-86242222D01*
X207298534Y-86158557D01*
X207468373Y-86107037D01*
X207534558Y-86100518D01*
X207600740Y-86094000D01*
X207689260Y-86094000D01*
X207755442Y-86100518D01*
X207755442Y-86100518D01*
G37*
G36*
X190666823Y-85521313D02*
G01*
X190827242Y-85569976D01*
X190959906Y-85640886D01*
X190975078Y-85648996D01*
X191104659Y-85755341D01*
X191211004Y-85884922D01*
X191211005Y-85884924D01*
X191290024Y-86032758D01*
X191338687Y-86193177D01*
X191355117Y-86360000D01*
X191338687Y-86526823D01*
X191290024Y-86687242D01*
X191219933Y-86818373D01*
X191211004Y-86835078D01*
X191104659Y-86964659D01*
X190975078Y-87071004D01*
X190975076Y-87071005D01*
X190827242Y-87150024D01*
X190666823Y-87198687D01*
X190541804Y-87211000D01*
X190458196Y-87211000D01*
X190333177Y-87198687D01*
X190172758Y-87150024D01*
X190024924Y-87071005D01*
X190024922Y-87071004D01*
X189895341Y-86964659D01*
X189788996Y-86835078D01*
X189780067Y-86818373D01*
X189709976Y-86687242D01*
X189661313Y-86526823D01*
X189644883Y-86360000D01*
X189661313Y-86193177D01*
X189709976Y-86032758D01*
X189788995Y-85884924D01*
X189788996Y-85884922D01*
X189895341Y-85755341D01*
X190024922Y-85648996D01*
X190040094Y-85640886D01*
X190172758Y-85569976D01*
X190333177Y-85521313D01*
X190458196Y-85509000D01*
X190541804Y-85509000D01*
X190666823Y-85521313D01*
X190666823Y-85521313D01*
G37*
G36*
X183046823Y-85521313D02*
G01*
X183207242Y-85569976D01*
X183339906Y-85640886D01*
X183355078Y-85648996D01*
X183484659Y-85755341D01*
X183591004Y-85884922D01*
X183591005Y-85884924D01*
X183670024Y-86032758D01*
X183718687Y-86193177D01*
X183735117Y-86360000D01*
X183718687Y-86526823D01*
X183670024Y-86687242D01*
X183599933Y-86818373D01*
X183591004Y-86835078D01*
X183484659Y-86964659D01*
X183355078Y-87071004D01*
X183355076Y-87071005D01*
X183207242Y-87150024D01*
X183046823Y-87198687D01*
X182921804Y-87211000D01*
X182838196Y-87211000D01*
X182713177Y-87198687D01*
X182552758Y-87150024D01*
X182404924Y-87071005D01*
X182404922Y-87071004D01*
X182275341Y-86964659D01*
X182168996Y-86835078D01*
X182160067Y-86818373D01*
X182089976Y-86687242D01*
X182041313Y-86526823D01*
X182024883Y-86360000D01*
X182041313Y-86193177D01*
X182089976Y-86032758D01*
X182168995Y-85884924D01*
X182168996Y-85884922D01*
X182275341Y-85755341D01*
X182404922Y-85648996D01*
X182420094Y-85640886D01*
X182552758Y-85569976D01*
X182713177Y-85521313D01*
X182838196Y-85509000D01*
X182921804Y-85509000D01*
X183046823Y-85521313D01*
X183046823Y-85521313D01*
G37*
G36*
X215431823Y-85521313D02*
G01*
X215592242Y-85569976D01*
X215724906Y-85640886D01*
X215740078Y-85648996D01*
X215869659Y-85755341D01*
X215976004Y-85884922D01*
X215976005Y-85884924D01*
X216055024Y-86032758D01*
X216103687Y-86193177D01*
X216120117Y-86360000D01*
X216103687Y-86526823D01*
X216055024Y-86687242D01*
X215984933Y-86818373D01*
X215976004Y-86835078D01*
X215869659Y-86964659D01*
X215740078Y-87071004D01*
X215740076Y-87071005D01*
X215592242Y-87150024D01*
X215431823Y-87198687D01*
X215306804Y-87211000D01*
X215223196Y-87211000D01*
X215098177Y-87198687D01*
X214937758Y-87150024D01*
X214789924Y-87071005D01*
X214789922Y-87071004D01*
X214660341Y-86964659D01*
X214553996Y-86835078D01*
X214545067Y-86818373D01*
X214474976Y-86687242D01*
X214426313Y-86526823D01*
X214409883Y-86360000D01*
X214426313Y-86193177D01*
X214474976Y-86032758D01*
X214553995Y-85884924D01*
X214553996Y-85884922D01*
X214660341Y-85755341D01*
X214789922Y-85648996D01*
X214805094Y-85640886D01*
X214937758Y-85569976D01*
X215098177Y-85521313D01*
X215223196Y-85509000D01*
X215306804Y-85509000D01*
X215431823Y-85521313D01*
X215431823Y-85521313D01*
G37*
G36*
X223051823Y-85521313D02*
G01*
X223212242Y-85569976D01*
X223344906Y-85640886D01*
X223360078Y-85648996D01*
X223489659Y-85755341D01*
X223596004Y-85884922D01*
X223596005Y-85884924D01*
X223675024Y-86032758D01*
X223723687Y-86193177D01*
X223740117Y-86360000D01*
X223723687Y-86526823D01*
X223675024Y-86687242D01*
X223604933Y-86818373D01*
X223596004Y-86835078D01*
X223489659Y-86964659D01*
X223360078Y-87071004D01*
X223360076Y-87071005D01*
X223212242Y-87150024D01*
X223051823Y-87198687D01*
X222926804Y-87211000D01*
X222843196Y-87211000D01*
X222718177Y-87198687D01*
X222557758Y-87150024D01*
X222409924Y-87071005D01*
X222409922Y-87071004D01*
X222280341Y-86964659D01*
X222173996Y-86835078D01*
X222165067Y-86818373D01*
X222094976Y-86687242D01*
X222046313Y-86526823D01*
X222029883Y-86360000D01*
X222046313Y-86193177D01*
X222094976Y-86032758D01*
X222173995Y-85884924D01*
X222173996Y-85884922D01*
X222280341Y-85755341D01*
X222409922Y-85648996D01*
X222425094Y-85640886D01*
X222557758Y-85569976D01*
X222718177Y-85521313D01*
X222843196Y-85509000D01*
X222926804Y-85509000D01*
X223051823Y-85521313D01*
X223051823Y-85521313D01*
G37*
G36*
X197751000Y-86626000D02*
G01*
X195949000Y-86626000D01*
X195949000Y-84824000D01*
X197751000Y-84824000D01*
X197751000Y-86626000D01*
X197751000Y-86626000D01*
G37*
G36*
X229501000Y-85991000D02*
G01*
X227699000Y-85991000D01*
X227699000Y-84189000D01*
X229501000Y-84189000D01*
X229501000Y-85991000D01*
X229501000Y-85991000D01*
G37*
G36*
X207755443Y-83560519D02*
G01*
X207821627Y-83567037D01*
X207991466Y-83618557D01*
X208147991Y-83702222D01*
X208183729Y-83731552D01*
X208285186Y-83814814D01*
X208368448Y-83916271D01*
X208397778Y-83952009D01*
X208481443Y-84108534D01*
X208532963Y-84278373D01*
X208550359Y-84455000D01*
X208532963Y-84631627D01*
X208481443Y-84801466D01*
X208397778Y-84957991D01*
X208368448Y-84993729D01*
X208285186Y-85095186D01*
X208183729Y-85178448D01*
X208147991Y-85207778D01*
X207991466Y-85291443D01*
X207821627Y-85342963D01*
X207755442Y-85349482D01*
X207689260Y-85356000D01*
X207600740Y-85356000D01*
X207534558Y-85349482D01*
X207468373Y-85342963D01*
X207298534Y-85291443D01*
X207142009Y-85207778D01*
X207106271Y-85178448D01*
X207004814Y-85095186D01*
X206921552Y-84993729D01*
X206892222Y-84957991D01*
X206808557Y-84801466D01*
X206757037Y-84631627D01*
X206739641Y-84455000D01*
X206757037Y-84278373D01*
X206808557Y-84108534D01*
X206892222Y-83952009D01*
X206921552Y-83916271D01*
X207004814Y-83814814D01*
X207106271Y-83731552D01*
X207142009Y-83702222D01*
X207298534Y-83618557D01*
X207468373Y-83567037D01*
X207534557Y-83560519D01*
X207600740Y-83554000D01*
X207689260Y-83554000D01*
X207755443Y-83560519D01*
X207755443Y-83560519D01*
G37*
G36*
X183046823Y-82981313D02*
G01*
X183207242Y-83029976D01*
X183339906Y-83100886D01*
X183355078Y-83108996D01*
X183484659Y-83215341D01*
X183591004Y-83344922D01*
X183591005Y-83344924D01*
X183670024Y-83492758D01*
X183718687Y-83653177D01*
X183735117Y-83820000D01*
X183718687Y-83986823D01*
X183670024Y-84147242D01*
X183599933Y-84278373D01*
X183591004Y-84295078D01*
X183484659Y-84424659D01*
X183355078Y-84531004D01*
X183355076Y-84531005D01*
X183207242Y-84610024D01*
X183046823Y-84658687D01*
X182921804Y-84671000D01*
X182838196Y-84671000D01*
X182713177Y-84658687D01*
X182552758Y-84610024D01*
X182404924Y-84531005D01*
X182404922Y-84531004D01*
X182275341Y-84424659D01*
X182168996Y-84295078D01*
X182160067Y-84278373D01*
X182089976Y-84147242D01*
X182041313Y-83986823D01*
X182024883Y-83820000D01*
X182041313Y-83653177D01*
X182089976Y-83492758D01*
X182168995Y-83344924D01*
X182168996Y-83344922D01*
X182275341Y-83215341D01*
X182404922Y-83108996D01*
X182420094Y-83100886D01*
X182552758Y-83029976D01*
X182713177Y-82981313D01*
X182838196Y-82969000D01*
X182921804Y-82969000D01*
X183046823Y-82981313D01*
X183046823Y-82981313D01*
G37*
G36*
X190666823Y-82981313D02*
G01*
X190827242Y-83029976D01*
X190959906Y-83100886D01*
X190975078Y-83108996D01*
X191104659Y-83215341D01*
X191211004Y-83344922D01*
X191211005Y-83344924D01*
X191290024Y-83492758D01*
X191338687Y-83653177D01*
X191355117Y-83820000D01*
X191338687Y-83986823D01*
X191290024Y-84147242D01*
X191219933Y-84278373D01*
X191211004Y-84295078D01*
X191104659Y-84424659D01*
X190975078Y-84531004D01*
X190975076Y-84531005D01*
X190827242Y-84610024D01*
X190666823Y-84658687D01*
X190541804Y-84671000D01*
X190458196Y-84671000D01*
X190333177Y-84658687D01*
X190172758Y-84610024D01*
X190024924Y-84531005D01*
X190024922Y-84531004D01*
X189895341Y-84424659D01*
X189788996Y-84295078D01*
X189780067Y-84278373D01*
X189709976Y-84147242D01*
X189661313Y-83986823D01*
X189644883Y-83820000D01*
X189661313Y-83653177D01*
X189709976Y-83492758D01*
X189788995Y-83344924D01*
X189788996Y-83344922D01*
X189895341Y-83215341D01*
X190024922Y-83108996D01*
X190040094Y-83100886D01*
X190172758Y-83029976D01*
X190333177Y-82981313D01*
X190458196Y-82969000D01*
X190541804Y-82969000D01*
X190666823Y-82981313D01*
X190666823Y-82981313D01*
G37*
G36*
X215431823Y-82981313D02*
G01*
X215592242Y-83029976D01*
X215724906Y-83100886D01*
X215740078Y-83108996D01*
X215869659Y-83215341D01*
X215976004Y-83344922D01*
X215976005Y-83344924D01*
X216055024Y-83492758D01*
X216103687Y-83653177D01*
X216120117Y-83820000D01*
X216103687Y-83986823D01*
X216055024Y-84147242D01*
X215984933Y-84278373D01*
X215976004Y-84295078D01*
X215869659Y-84424659D01*
X215740078Y-84531004D01*
X215740076Y-84531005D01*
X215592242Y-84610024D01*
X215431823Y-84658687D01*
X215306804Y-84671000D01*
X215223196Y-84671000D01*
X215098177Y-84658687D01*
X214937758Y-84610024D01*
X214789924Y-84531005D01*
X214789922Y-84531004D01*
X214660341Y-84424659D01*
X214553996Y-84295078D01*
X214545067Y-84278373D01*
X214474976Y-84147242D01*
X214426313Y-83986823D01*
X214409883Y-83820000D01*
X214426313Y-83653177D01*
X214474976Y-83492758D01*
X214553995Y-83344924D01*
X214553996Y-83344922D01*
X214660341Y-83215341D01*
X214789922Y-83108996D01*
X214805094Y-83100886D01*
X214937758Y-83029976D01*
X215098177Y-82981313D01*
X215223196Y-82969000D01*
X215306804Y-82969000D01*
X215431823Y-82981313D01*
X215431823Y-82981313D01*
G37*
G36*
X223051823Y-82981313D02*
G01*
X223212242Y-83029976D01*
X223344906Y-83100886D01*
X223360078Y-83108996D01*
X223489659Y-83215341D01*
X223596004Y-83344922D01*
X223596005Y-83344924D01*
X223675024Y-83492758D01*
X223723687Y-83653177D01*
X223740117Y-83820000D01*
X223723687Y-83986823D01*
X223675024Y-84147242D01*
X223604933Y-84278373D01*
X223596004Y-84295078D01*
X223489659Y-84424659D01*
X223360078Y-84531004D01*
X223360076Y-84531005D01*
X223212242Y-84610024D01*
X223051823Y-84658687D01*
X222926804Y-84671000D01*
X222843196Y-84671000D01*
X222718177Y-84658687D01*
X222557758Y-84610024D01*
X222409924Y-84531005D01*
X222409922Y-84531004D01*
X222280341Y-84424659D01*
X222173996Y-84295078D01*
X222165067Y-84278373D01*
X222094976Y-84147242D01*
X222046313Y-83986823D01*
X222029883Y-83820000D01*
X222046313Y-83653177D01*
X222094976Y-83492758D01*
X222173995Y-83344924D01*
X222173996Y-83344922D01*
X222280341Y-83215341D01*
X222409922Y-83108996D01*
X222425094Y-83100886D01*
X222557758Y-83029976D01*
X222718177Y-82981313D01*
X222843196Y-82969000D01*
X222926804Y-82969000D01*
X223051823Y-82981313D01*
X223051823Y-82981313D01*
G37*
G36*
X196960443Y-82290519D02*
G01*
X197026627Y-82297037D01*
X197196466Y-82348557D01*
X197352991Y-82432222D01*
X197388729Y-82461552D01*
X197490186Y-82544814D01*
X197573448Y-82646271D01*
X197602778Y-82682009D01*
X197686443Y-82838534D01*
X197737963Y-83008373D01*
X197755359Y-83185000D01*
X197737963Y-83361627D01*
X197686443Y-83531466D01*
X197602778Y-83687991D01*
X197573448Y-83723729D01*
X197490186Y-83825186D01*
X197388729Y-83908448D01*
X197352991Y-83937778D01*
X197196466Y-84021443D01*
X197026627Y-84072963D01*
X196960443Y-84079481D01*
X196894260Y-84086000D01*
X196805740Y-84086000D01*
X196739557Y-84079481D01*
X196673373Y-84072963D01*
X196503534Y-84021443D01*
X196347009Y-83937778D01*
X196311271Y-83908448D01*
X196209814Y-83825186D01*
X196126552Y-83723729D01*
X196097222Y-83687991D01*
X196013557Y-83531466D01*
X195962037Y-83361627D01*
X195944641Y-83185000D01*
X195962037Y-83008373D01*
X196013557Y-82838534D01*
X196097222Y-82682009D01*
X196126552Y-82646271D01*
X196209814Y-82544814D01*
X196311271Y-82461552D01*
X196347009Y-82432222D01*
X196503534Y-82348557D01*
X196673373Y-82297037D01*
X196739557Y-82290519D01*
X196805740Y-82284000D01*
X196894260Y-82284000D01*
X196960443Y-82290519D01*
X196960443Y-82290519D01*
G37*
G36*
X228710443Y-81655519D02*
G01*
X228776627Y-81662037D01*
X228946466Y-81713557D01*
X229102991Y-81797222D01*
X229138729Y-81826552D01*
X229240186Y-81909814D01*
X229323448Y-82011271D01*
X229352778Y-82047009D01*
X229436443Y-82203534D01*
X229487963Y-82373373D01*
X229505359Y-82550000D01*
X229487963Y-82726627D01*
X229436443Y-82896466D01*
X229352778Y-83052991D01*
X229323448Y-83088729D01*
X229240186Y-83190186D01*
X229138729Y-83273448D01*
X229102991Y-83302778D01*
X228946466Y-83386443D01*
X228776627Y-83437963D01*
X228710443Y-83444481D01*
X228644260Y-83451000D01*
X228555740Y-83451000D01*
X228489557Y-83444481D01*
X228423373Y-83437963D01*
X228253534Y-83386443D01*
X228097009Y-83302778D01*
X228061271Y-83273448D01*
X227959814Y-83190186D01*
X227876552Y-83088729D01*
X227847222Y-83052991D01*
X227763557Y-82896466D01*
X227712037Y-82726627D01*
X227694641Y-82550000D01*
X227712037Y-82373373D01*
X227763557Y-82203534D01*
X227847222Y-82047009D01*
X227876552Y-82011271D01*
X227959814Y-81909814D01*
X228061271Y-81826552D01*
X228097009Y-81797222D01*
X228253534Y-81713557D01*
X228423373Y-81662037D01*
X228489557Y-81655519D01*
X228555740Y-81649000D01*
X228644260Y-81649000D01*
X228710443Y-81655519D01*
X228710443Y-81655519D01*
G37*
G36*
X208546000Y-82816000D02*
G01*
X206744000Y-82816000D01*
X206744000Y-81014000D01*
X208546000Y-81014000D01*
X208546000Y-82816000D01*
X208546000Y-82816000D01*
G37*
G36*
X196960442Y-79750518D02*
G01*
X197026627Y-79757037D01*
X197196466Y-79808557D01*
X197352991Y-79892222D01*
X197388729Y-79921552D01*
X197490186Y-80004814D01*
X197573448Y-80106271D01*
X197602778Y-80142009D01*
X197686443Y-80298534D01*
X197737963Y-80468373D01*
X197755359Y-80645000D01*
X197737963Y-80821627D01*
X197686443Y-80991466D01*
X197602778Y-81147991D01*
X197596535Y-81155598D01*
X197490186Y-81285186D01*
X197388729Y-81368448D01*
X197352991Y-81397778D01*
X197196466Y-81481443D01*
X197026627Y-81532963D01*
X196960442Y-81539482D01*
X196894260Y-81546000D01*
X196805740Y-81546000D01*
X196739558Y-81539482D01*
X196673373Y-81532963D01*
X196503534Y-81481443D01*
X196347009Y-81397778D01*
X196311271Y-81368448D01*
X196209814Y-81285186D01*
X196103465Y-81155598D01*
X196097222Y-81147991D01*
X196013557Y-80991466D01*
X195962037Y-80821627D01*
X195944641Y-80645000D01*
X195962037Y-80468373D01*
X196013557Y-80298534D01*
X196097222Y-80142009D01*
X196126552Y-80106271D01*
X196209814Y-80004814D01*
X196311271Y-79921552D01*
X196347009Y-79892222D01*
X196503534Y-79808557D01*
X196673373Y-79757037D01*
X196739558Y-79750518D01*
X196805740Y-79744000D01*
X196894260Y-79744000D01*
X196960442Y-79750518D01*
X196960442Y-79750518D01*
G37*
G36*
X236912756Y-78083798D02*
G01*
X237019079Y-78104947D01*
X237319542Y-78229403D01*
X237589951Y-78410085D01*
X237819915Y-78640049D01*
X238000597Y-78910458D01*
X238109577Y-79173558D01*
X238125053Y-79210922D01*
X238188500Y-79529889D01*
X238188500Y-79855111D01*
X238125053Y-80174078D01*
X238003152Y-80468375D01*
X238000597Y-80474542D01*
X237819915Y-80744951D01*
X237589951Y-80974915D01*
X237319542Y-81155597D01*
X237019079Y-81280053D01*
X236912756Y-81301202D01*
X236700111Y-81343500D01*
X236374889Y-81343500D01*
X236162244Y-81301202D01*
X236055921Y-81280053D01*
X235755458Y-81155597D01*
X235485049Y-80974915D01*
X235255085Y-80744951D01*
X235074403Y-80474542D01*
X235071849Y-80468375D01*
X234949947Y-80174078D01*
X234886500Y-79855111D01*
X234886500Y-79529889D01*
X234949947Y-79210922D01*
X234965424Y-79173558D01*
X235074403Y-78910458D01*
X235255085Y-78640049D01*
X235485049Y-78410085D01*
X235755458Y-78229403D01*
X236055921Y-78104947D01*
X236162244Y-78083798D01*
X236374889Y-78041500D01*
X236700111Y-78041500D01*
X236912756Y-78083798D01*
X236912756Y-78083798D01*
G37*
G36*
X228710443Y-79115519D02*
G01*
X228776627Y-79122037D01*
X228946466Y-79173557D01*
X229102991Y-79257222D01*
X229138729Y-79286552D01*
X229240186Y-79369814D01*
X229323448Y-79471271D01*
X229352778Y-79507009D01*
X229436443Y-79663534D01*
X229487963Y-79833373D01*
X229505359Y-80010000D01*
X229487963Y-80186627D01*
X229436443Y-80356466D01*
X229352778Y-80512991D01*
X229323448Y-80548729D01*
X229240186Y-80650186D01*
X229165963Y-80711098D01*
X229102991Y-80762778D01*
X228946466Y-80846443D01*
X228776627Y-80897963D01*
X228710442Y-80904482D01*
X228644260Y-80911000D01*
X228555740Y-80911000D01*
X228489558Y-80904482D01*
X228423373Y-80897963D01*
X228253534Y-80846443D01*
X228097009Y-80762778D01*
X228034037Y-80711098D01*
X227959814Y-80650186D01*
X227876552Y-80548729D01*
X227847222Y-80512991D01*
X227763557Y-80356466D01*
X227712037Y-80186627D01*
X227694641Y-80010000D01*
X227712037Y-79833373D01*
X227763557Y-79663534D01*
X227847222Y-79507009D01*
X227876552Y-79471271D01*
X227959814Y-79369814D01*
X228061271Y-79286552D01*
X228097009Y-79257222D01*
X228253534Y-79173557D01*
X228423373Y-79122037D01*
X228489557Y-79115519D01*
X228555740Y-79109000D01*
X228644260Y-79109000D01*
X228710443Y-79115519D01*
X228710443Y-79115519D01*
G37*
G36*
X179971000Y-80911000D02*
G01*
X178169000Y-80911000D01*
X178169000Y-79109000D01*
X179971000Y-79109000D01*
X179971000Y-80911000D01*
X179971000Y-80911000D01*
G37*
G36*
X168523256Y-77639298D02*
G01*
X168629579Y-77660447D01*
X168930042Y-77784903D01*
X169200451Y-77965585D01*
X169430415Y-78195549D01*
X169611097Y-78465958D01*
X169611098Y-78465960D01*
X169735553Y-78766422D01*
X169799000Y-79085389D01*
X169799000Y-79410611D01*
X169756702Y-79623256D01*
X169735553Y-79729579D01*
X169702839Y-79808557D01*
X169621547Y-80004815D01*
X169611097Y-80030042D01*
X169430415Y-80300451D01*
X169200451Y-80530415D01*
X168930042Y-80711097D01*
X168629579Y-80835553D01*
X168574836Y-80846442D01*
X168310611Y-80899000D01*
X167985389Y-80899000D01*
X167721164Y-80846442D01*
X167666421Y-80835553D01*
X167365958Y-80711097D01*
X167095549Y-80530415D01*
X166865585Y-80300451D01*
X166684903Y-80030042D01*
X166674454Y-80004815D01*
X166593161Y-79808557D01*
X166560447Y-79729579D01*
X166539298Y-79623256D01*
X166497000Y-79410611D01*
X166497000Y-79085389D01*
X166560447Y-78766422D01*
X166684902Y-78465960D01*
X166684903Y-78465958D01*
X166865585Y-78195549D01*
X167095549Y-77965585D01*
X167365958Y-77784903D01*
X167666421Y-77660447D01*
X167772744Y-77639298D01*
X167985389Y-77597000D01*
X168310611Y-77597000D01*
X168523256Y-77639298D01*
X168523256Y-77639298D01*
G37*
M02*
