M48
; DRILL file {KiCad (5.1.4)-1} date 26/08/2020 09:46:50
; FORMAT={-:-/ absolute / metric / decimal}
; #@! TF.CreationDate,2020-08-26T09:46:50+02:00
; #@! TF.GenerationSoftware,Kicad,Pcbnew,(5.1.4)-1
; #@! TF.FileFunction,Plated,1,2,PTH
FMAT,2
METRIC
T1C0.600
T2C0.762
T3C0.800
T4C1.000
T5C1.100
%
G90
G05
T1
X235.585Y-97.79
X173.355Y-125.73
X173.355Y-127.73
X213.265Y-134.239
X215.265Y-134.239
X234.085Y-92.075
X235.585Y-92.075
X201.93Y-96.52
X203.43Y-96.52
X201.93Y-91.44
X203.43Y-91.44
X167.545Y-119.38
X169.545Y-119.38
X234.085Y-97.79
X221.71Y-128.651
X223.71Y-128.651
X185.96Y-130.175
X187.96Y-130.175
X207.391Y-134.048
X209.391Y-134.048
T2
X173.99Y-88.9
X173.99Y-91.44
X173.99Y-93.98
X173.99Y-96.52
X176.53Y-88.9
X176.53Y-91.44
X176.53Y-93.98
X176.53Y-96.52
T3
X196.215Y-92.71
X196.215Y-97.61
X182.88Y-83.82
X182.88Y-86.36
X182.88Y-88.9
X182.88Y-91.44
X182.88Y-93.98
X182.88Y-96.52
X182.88Y-99.06
X182.88Y-101.6
X182.88Y-104.14
X182.88Y-106.68
X182.88Y-109.22
X182.88Y-111.76
X182.88Y-114.3
X182.88Y-116.84
X190.5Y-83.82
X190.5Y-86.36
X190.5Y-88.9
X190.5Y-91.44
X190.5Y-93.98
X190.5Y-96.52
X190.5Y-99.06
X190.5Y-101.6
X190.5Y-104.14
X190.5Y-106.68
X190.5Y-109.22
X190.5Y-111.76
X190.5Y-114.3
X190.5Y-116.84
X182.245Y-121.285
X189.865Y-121.285
X182.245Y-124.46
X189.865Y-124.46
X229.235Y-92.71
X229.235Y-97.61
X213.36Y-124.46
X220.98Y-124.46
X213.36Y-121.285
X220.98Y-121.285
X215.265Y-83.82
X215.265Y-86.36
X215.265Y-88.9
X215.265Y-91.44
X215.265Y-93.98
X215.265Y-96.52
X215.265Y-99.06
X215.265Y-101.6
X215.265Y-104.14
X215.265Y-106.68
X215.265Y-109.22
X215.265Y-111.76
X215.265Y-114.3
X215.265Y-116.84
X222.885Y-83.82
X222.885Y-86.36
X222.885Y-88.9
X222.885Y-91.44
X222.885Y-93.98
X222.885Y-96.52
X222.885Y-99.06
X222.885Y-101.6
X222.885Y-104.14
X222.885Y-106.68
X222.885Y-109.22
X222.885Y-111.76
X222.885Y-114.3
X222.885Y-116.84
T4
X233.426Y-115.443
X233.426Y-117.983
X233.426Y-120.523
X235.966Y-115.443
X235.966Y-117.983
X235.966Y-120.523
X227.965Y-104.775
X227.965Y-114.935
X227.965Y-117.475
X227.965Y-120.015
X227.965Y-122.555
X227.965Y-125.095
X227.965Y-127.635
X195.199Y-114.49
X195.199Y-117.03
X195.199Y-119.57
X195.199Y-122.11
X195.199Y-124.65
X195.199Y-127.191
X201.803Y-121.412
X221.361Y-134.556
X223.901Y-134.556
X168.275Y-106.045
X168.275Y-108.585
X168.275Y-111.125
X170.815Y-106.045
X170.815Y-108.585
X170.815Y-111.125
X179.07Y-106.68
X179.07Y-109.22
X179.07Y-111.76
X179.07Y-114.3
X179.07Y-116.84
X203.2Y-104.14
X203.2Y-106.68
X207.645Y-96.52
X207.645Y-99.06
X207.645Y-101.6
X207.645Y-104.14
X207.645Y-106.68
X207.645Y-109.22
X207.645Y-111.76
X207.645Y-114.3
X207.645Y-116.84
X207.645Y-119.38
X211.455Y-102.235
X211.455Y-104.775
X211.455Y-107.315
X211.455Y-109.855
X196.85Y-105.41
X196.85Y-107.95
X196.85Y-110.49
X196.85Y-80.645
X196.85Y-83.185
X196.85Y-85.725
X227.965Y-108.585
X227.965Y-111.125
X207.645Y-81.915
X207.645Y-84.455
X207.645Y-86.995
X207.645Y-89.535
X207.645Y-92.075
X173.355Y-116.84
X173.355Y-119.38
X173.355Y-121.92
X208.851Y-128.143
X211.391Y-128.143
X213.931Y-128.143
X228.6Y-80.01
X228.6Y-82.55
X228.6Y-85.09
X179.07Y-80.01
T5
X201.739Y-125.095
X201.739Y-135.255
T0
M30
